<svg viewBox="0 0 1795 1028" xmlns="http://www.w3.org/2000/svg"><g id="a"></g><g id="b"><g id="c"><g><path fill="#ebf3fa" d="M1760.05,1028l-330.16-1.12-151.01-.51-32.43-.11-117.59-.39-143.31-.49-124.23-.41-7.04-.03-32.77-.11-287.46-.97-144.32-.5-13.61-.05-79.07-.27-206.05-.7S-164.6,358.13,180.93,112.21c445.13-316.8,762.56,139.61,933.07,122.32,250.78-25.44,741.55-217.99,646.05,793.47Z"></path><g><path fill="#dfebfd" d="M1234.08,491.67s84.85-177.89,121.18-154.6c36.33,23.28-121.18,154.6-121.18,154.6Z"></path><path fill="#dfebfd" d="M1230.88,521.66s181.9-190.47,241.3-139.92c59.39,50.55-45.88,75.89-85.61,80.9-39.73,5.01-155.69,59.02-155.69,59.02Z"></path><path fill="#dfebfd" d="M1217.11,493.83s-.25-7.33-.7-18.03c-.89-20.88-2.58-54.58-4.79-71.71-3.35-25.9,8.53-48.89,29.42-28.16,20.9,20.73-18.81,108.84-18.81,108.84l-5.12,9.06Z"></path></g><path fill="#cde0fb" d="M603.78,1023.47l-82.9-.31c-2.65-.6-5.22-.51-7.82-.03l-45.42-.17c-16.19-16.5-18.69-66.61-18.69-66.61,13.61,13.27,43.52,14.01,46.28,7.31,2.76-6.7-37.65-24.08-43.4-29.06-5.76-4.97-12.62-27.12,2.39-58.5,15.01-31.38,54.77-1.58,54.77-1.58,0,0,14.36,73.19,22.38,78.38,8.02,5.19-3.38-65.86-3.38-65.86,16.71,5.13,51.49,50.96,51.49,50.96,0,0-19.39,69.13-10.69,71.45,8.7,2.33,14.89-62.41,14.89-62.41,14.14,13.51,22.77,45.2,22.77,45.2,2.21,12.73,.74,22.99-2.66,31.22Z"></path><path fill="#dfebfd" d="M209.82,239.56c20.82-49.09,82.66-8.52,82.66-8.52,0,0,26.04,108.97,38.47,115.92,12.42,6.95-9.01-99.14-9.01-99.14,25.56,5.89,80.82,71.23,80.82,71.23,0,0-25.19,106.62-11.9,109.16,13.29,2.54,18.8-95.97,18.8-95.97,22.16,18.83,37.1,65.74,37.1,65.74,15.81,73.26-53.53,97.34-53.53,97.34,0,0-8.15,37.21,.3,86.46h0s2.25,9.35,3.48,24.28l-6.57-2.43c-.06-2.62-.2-5.17-.41-7.66,0-.02,0-.03,0-.05,0-.04,0-.07,0-.11-.18-1.56-.44-3.78-.77-6.5h0s0-.02,0-.02c-.95-6.14-1.53-10.62-1.82-13.82,0,0,0-.02,0-.03-2.7-19.16-7.04-44.43-11.92-51.19,0,0,1-1.14,2.22-3.62-.71,1.15-1.44,2.36-2.22,3.62-17.73,28.94-75.05,13.69-104.66-6.7-29.61-20.39-13.57-27.48,7.16-40.95,20.73-13.46,55.07,4.78,67.02,.91,11.96-3.87-1.8-17.22-23.12-22.73-21.32-5.51-37.39,19.32-72,11.27-34.61-8.05-43.25-104.68-43.25-104.68,21.36,18.53,66.59,16.3,70.36,5.87,3.77-10.44-58.32-32.17-67.31-39.04-8.99-6.87-20.68-39.57,.13-88.66Z"></path><path fill="#dfebfd" d="M688.32,488.56c24.17-45.72,82.41,2.91,82.41,2.91,0,0,17.84,111.4,29.63,119.98,11.79,8.58-1.71-99.33-1.71-99.33,24.86,9.33,74.79,81.57,74.79,81.57,0,0-32.68,102.04-19.72,106.37,12.96,4.34,25.58-92.38,25.58-92.38,20.56,21.67,31.92,70.13,31.92,70.13,10.31,74.65-60.05,88.97-60.05,88.97,0,0-10.77,35.7-6,85.59h0s1.55,9.56,1.68,24.5l-6.33-3.3c.13-2.6,.18-5.15,.15-7.64,0-.02,0-.03,0-.05,0-.04,0-.07,0-.11-.06-1.57-.16-3.8-.29-6.53h0s0-.02,0-.02c-.49-6.2-.74-10.72-.8-13.92,0-.01,0-.02,0-.03-1.28-19.33-3.74-44.92-8.06-52.28,0,0,1.07-.99,2.46-3.28-.78,1.05-1.6,2.13-2.46,3.28-19.65,26.2-75.26,3.25-103.07-20.98-27.81-24.24-11.43-29.06,10.06-39.53,21.49-10.48,54.14,12.28,66.25,10.1,12.11-2.18-.52-17.29-21.22-25.66-20.7-8.37-38.4,13.99-72.06,1.28-33.66-12.71-35.18-109.51-35.18-109.51,19.78,21.26,64.71,25.27,69.19,15.45,4.49-9.81-55.36-39.83-63.76-47.86-8.4-8.03-17.58-41.99,6.58-87.71Z"></path><g><path fill="#dfebfd" d="M849.43,966.06s-8.77,42.2-7.08,58.59l-33.19-.12c-.69-9.26,.94-19.31,6.54-29.61,0,0,16.97-24.21,33.72-28.86Z"></path><path fill="#dfebfd" d="M975.33,1025.13l-125.85-.45c4.98-17.41,6.38-64.59,6.38-64.59,0,0,44.83-22.94,61.53-18.58,0,0-30.77,58.58-21.98,58.18,8.79-.39,42.88-59.31,42.88-59.31,0,0,44.78-5.65,49.44,31.07,4.19,32.95-5.54,49.6-12.41,53.68Z"></path></g><path fill="#dfebfd" d="M1239.63,1026.09l-119.12-.43c7.72-4.53,17.8-8.8,28.62-13.88,27.11-12.72,64.05,4.81,90.5,14.31Z"></path><path fill="#dfebfd" d="M1300.15,1026.78l-107.83-.4c2.25-6.55-11.51-19.97-31.42-28.39-25.35-10.72-47.35,16.41-88.6,.11-41.24-16.31-42.06-135.34-42.06-135.34,24.09,26.54,79.27,32.38,84.89,20.41,5.62-11.97-67.63-50.09-77.86-60.13-10.24-10.04-21.16-51.98,9.04-107.69,30.2-55.72,101.27,5.25,101.27,5.25,0,0,20.72,137.3,35.12,148.1,14.4,10.79-1.02-122.14-1.02-122.14,30.46,11.97,91.05,101.8,91.05,101.8,0,0-41.28,124.77-25.39,130.36,15.89,5.59,32.44-113.04,32.44-113.04,25.04,27.05,38.48,86.86,38.48,86.86,4.41,34.22-4.8,57.94-18.12,74.24Z"></path><g><g><g><path fill="#ffb27d" d="M283.02,644.62c0-.31-3.29-9.65-2.24-10.36,1.05-.72,2.92-.61,3.14,1.03,.22,1.64-.9,9.34-.9,9.34Z"></path><path fill="#233862" d="M233.91,528.55s-19.29-31.82-29.5-11.46c0,0-7.62,4.34-10.37,22.14-2.81,18.17,5.99,31.97,10.54,28.56,2.92-2.19,5.13,4.82,5.13,4.82l24.21-44.06Z"></path><path fill="#ffb27d" d="M257.84,697.89c15.34-7.76,30.11-43.79,30.11-43.79l-4.84-4.65c-4.03,8.09-22.15,23.62-22.15,23.62-.41-6.82-1.01-13-1.76-18.61-5.03-38.08-16.54-49.36-19.63-51.75-.5-.39-.78-.54-.78-.54,0,0,.01,.28,.03,.81,.04,1.15,.14,3.46,.3,6.62,1.2,23.57,5.9,94.77,18.71,88.28Z"></path><path fill="#233862" d="M206.52,513.86s-2.59-14.24-17.83-9.79c0,0,7.29-1.26,9.29,2.6,0,0-5.78-3.64-9.4-.59-3.62,3.04-4.21,13.28-3.67,16.39,.54,3.12,4.54,12.39,7.19,12.39s5.78-3.19,5.78-3.19l8.65-17.8Z"></path><path fill="#ffb27d" d="M183.71,736.77c7.58-23.33,11.2-29.92,11.33-37.26,.1-5.8-1.98-12.07-6.03-27.42-.95-3.62-1.61-7.34-2.02-11.1-3.2-29.6,9.27-61.61,17.02-63.79,2.16-.78,5.81-11.47,5.77-28.7l.97,.26,16.32,4.44s-.37,7.05-.38,13.69c-.01,5.54,.23,10.78,1.15,11.44,1.17,.15,1.87,.24,1.87,.24,0,0,13.61,25.94,14.75,50.07s-10.9,34.61,.09,82.83c11.22,49.24-65.01,18.19-60.82,5.3Z"></path><path fill="#e8945b" d="M227.07,573.2s-.37,7.05-.38,13.69c-9.13-.35-13.96-11.79-15.94-18.13l16.32,4.44Z"></path><path fill="#233862" d="M209.06,566.32s-4.79-10.38-5.93-19.26c-.82-6.34,1.53-29.83,18.73-26.44,0,0,4.99,.68,9.69,5.03,3.73,3.46,9.12,10.93,3.1,31.43l-1.56,6.92-24.01,2.32Z"></path><path fill="#ffb27d" d="M230.11,579.49s-21.61,.49-21.62-17.99c-.01-18.48-2.81-30.86,10.98-31.95,13.79-1.09,16.48,5.95,17.58,12.12,1.1,6.17-1.32,37.22-6.94,37.82Z"></path><path fill="#233862" d="M229.31,529.1s-5.92,21.68-14.99,24.88c-9.08,3.21-13.02-.13-13.02-.13,0,0,6.96-7.59,8.41-20.85,0,0,15.14-14.21,19.6-3.9Z"></path><path fill="#233862" d="M227.85,530.86s4.42,4.84,5.49,9.54c1.08,4.71,1.56,14.39,3.62,14.06,0,0,4.46-14.73-.55-23.07-5.31-8.84-8.56-.54-8.56-.54Z"></path><path fill="#163560" d="M202.85,960.61c5.44,29.69,13.62,52.44,13.62,52.44l7.12-.68s-3.49-22.82-3.29-53.65c.14-21.56,2.08-47.03,8.29-71.35,21.32-83.59,17.87-144.42,17.87-144.42l-40.09,6.44-1.87,.3c-.17,25.28-.64,59.6-1.06,86.43-.37,24.13-.69,42.21-.69,42.21-7.71,22.79-4.91,54.96,.1,82.28Z"></path><path fill="#ffb27d" d="M155.62,761.55l6.49,2.67s21.4-48.74,23.34-61.42c.64-4.13,2.19-12.39,4.01-21.65,3.76-19.17,8.61-42.63,8.61-42.63l1.6-9.5,5.45-32.38s-10.43,1.46-16.53,4.96c-2.02,1.16-3.56,2.54-4.1,4.16-4.48,13.53-8.96,47.67-12.1,72.02-1.75,13.57-3.09,24.11-3.79,26.34-1.95,6.23-7.89,40.5-12.97,57.41Z"></path><path fill="#1c468a" d="M179.84,955.87c2.31,33.77,12.46,55.61,12.46,55.61l3.4,3.4s3.22-23.8,5.5-52.1c2.17-26.91,5.15-55.38,8.52-64.07,13.37-34.47,17.39-164.58,17.39-164.58l-40.65-2.77c-4.09,9.44-5.87,24.91-6.29,42.5-1.07,44.41,6.53,102.31,7.67,110.68,0,0,0,.01,0,.02,.09,.65-.05,1.28-.27,1.87-8.09,21.98-9.26,47.12-7.74,69.43Z"></path><path fill="#233862" d="M228.67,531.59s-4.21,22.7-15.67,29.97c0,0,11.45-13.95,12.43-28.93,.97-14.98,3.24-1.04,3.24-1.04Z"></path><path fill="#f99746" d="M178.62,753.61c-.07,1.88,0,3.38,.25,4.46,.86,3.74,3.84,5.44,11.02,4.42,4.39-.63,6.35-10.72,7.22-19.34,2.64,12.32,6.33,19.24,11.1,20.69,6.96,2.13,42.08,7.99,44.38-14.93,2.53-25.21-5.04-69.84-5.46-93.9,1.03-8.53,1.39-15.94,1.27-22.3-.29-17.14-3.96-26.75-6.78-30.62-.8-.84-1.6-1.37-4.8-2.12-1.64-.38-3.91-.83-7.12-1.41,0,0-1.31-.2-1.28-.14,.59,1.46,8.55,17.99,7.93,22.24-.65,4.45-28.86,.44-30.8-2-1.95-2.45-5.02-21.19-5.02-21.19,0,0-9.99,1.5-14.87,6.38l.05,.09c-.59,.58-1.03,1.2-1.28,1.86-5.21,13.63-10.42,48.01-14.08,72.54,8.87,6.71,16.63,4.71,19.03,3.83-3.14,28.25-10.28,58.58-10.74,71.45Z"></path><path fill="#ffb27d" d="M283.11,649.46c0-.92-.56-14.17,1.16-16.95,1.72-2.78,5.23-6.74,6.33-6.62,1.1,.12,5.42,7.99,4.12,14.02-1.3,6.03-6.77,14.19-6.77,14.19l-4.84-4.65Z"></path><g><path fill="#f1a34f" d="M276.02,633.57l8.42,3.46c.77,.32,1.58-.28,1.81-1.34l5.24-24.01c.23-1.06-.21-2.17-.98-2.49l-8.42-3.46c-.77-.32-1.58,.28-1.81,1.34l-5.24,24.01c-.23,1.06,.21,2.17,.98,2.48Z"></path><path fill="#d86713" d="M277.83,634.32l9.07,3.73c.59,.24,1.21-.22,1.39-1.02l5.44-24.9c.18-.81-.16-1.66-.75-1.9l-9.07-3.73c-.59-.24-1.21,.22-1.39,1.02l-5.44,24.9c-.18,.81,.16,1.66,.75,1.9Z"></path></g><path fill="#ffb27d" d="M179.84,955.87c2.31,33.77,12.46,55.61,12.46,55.61l3.47,4.33s3.16-24.73,5.44-53.04c-2.4,.24-12.99,.77-21.36-6.91Z"></path><path fill="#d9935c" d="M202.85,960.61c5.44,29.69,13.62,52.44,13.62,52.44l7.12-.68s-3.49-22.82-3.29-53.65c-2.42,1.67-7.41,3.37-17.45,1.89Z"></path><g><path fill="#233862" d="M212.36,1021.26h4.55c1.52-.33,2.65-.93,4.21-1.21,2.37-.43,3.47,.91,3.68,1.21,.03,.04,.04,.06,.04,.06h19.32c.49-.95,.02-3.16-.44-4.78-.31-1.1-.98-1.94-1.81-2.27-2.05-.81-6.09-1.54-9.79-6.14-2.08-2.58-10.05-9.49-10.05-9.49h-.04c-.18,0-1.01,.34-4.63,4.54-1.87,2.17-5.07-3.06-5.07-3.06,0,0-.6,.68-1.05,1.95-.36,1-.62,2.38-.41,4.07,.29,2.39-.64,6.83-1.38,9.84-.45,1.82-.83,3.11-.83,3.11,0,0-.22,1.5,3.7,2.17Z"></path><path fill="#466aa5" d="M211.29,1002.07c1.09,1.05,3.38,3.12,4.9,3.39,2.05,.37,5.89-6.82,5.89-6.82h-.04c-.18,0-1.01,.34-4.63,4.54-1.87,2.17-5.07-3.06-5.07-3.06,0,0-.6,.68-1.05,1.95Z"></path><path fill="#466aa5" d="M212.36,1021.26h4.55c1.52-.33,2.65-.93,4.21-1.21,2.37-.43,3.47,.91,3.68,1.21,.03,.04,.04,.06,.04,.06h19.32c.49-.95,.02-3.16-.44-4.78-.59-.72-.75,3.11-1.08,3.72-.32,.61-15.76,.22-16.65-.67-.89-.89-3.57-2.45-7.29-1.22-3.25,1.06-8.03-1.66-9.21-2.39-.45,1.82-.83,3.11-.83,3.11,0,0-.22,1.5,3.7,2.17Z"></path></g><g><path fill="#233862" d="M188.09,1021.26h4.55c1.52-.33,2.65-.93,4.21-1.21,2.37-.43,3.47,.91,3.68,1.21,.03,.04,.04,.06,.04,.06h19.32c.49-.95,.02-3.16-.44-4.78-.31-1.1-.98-1.94-1.81-2.27-2.05-.81-6.09-1.54-9.79-6.14-2.08-2.58-10.05-9.49-10.05-9.49h-.04c-.17,0-1.01,.34-4.63,4.54-1.87,2.17-5.07-3.06-5.07-3.06,0,0-.6,.68-1.05,1.95-.36,1-.62,2.38-.42,4.07,.29,2.39-.64,6.83-1.38,9.84-.45,1.82-.83,3.11-.83,3.11,0,0-.22,1.5,3.7,2.17Z"></path><path fill="#466aa5" d="M187.02,1002.07c1.09,1.05,3.38,3.12,4.9,3.39,2.05,.37,5.89-6.82,5.89-6.82h-.04c-.17,0-1.01,.34-4.63,4.54-1.87,2.17-5.07-3.06-5.07-3.06,0,0-.6,.68-1.05,1.95Z"></path><path fill="#466aa5" d="M188.09,1021.26h4.55c1.52-.33,2.65-.93,4.21-1.21,2.37-.43,3.47,.91,3.68,1.21,.03,.04,.04,.06,.04,.06h19.32c.49-.95,.02-3.16-.44-4.78-.59-.72-.75,3.11-1.08,3.72-.32,.61-15.76,.22-16.65-.67-.89-.89-3.57-2.45-7.29-1.22-3.25,1.06-8.03-1.66-9.21-2.39-.45,1.82-.83,3.11-.83,3.11,0,0-.22,1.5,3.7,2.17Z"></path></g><path fill="#f99746" d="M240.41,601.32s13.47,9.31,17.96,46.88c0,0-4.41,8.31-10.63,10.76-.89,.35-1.81,.58-2.77,.65-7.63,.56-4.57-58.28-4.57-58.28Z"></path><path fill="#ffb27d" d="M291.63,626.91s-4.16-8.8-5.18-8.31c-1.45,.7,3.78,11.86,3.78,11.86,0,0-3.87-8.34-4.48-7.72-1.38,1.43,.82,6.67,2.99,10.69,0,0-3.9-4.9-4.02-4.02-.44,3.09,4.28,10.58,4.28,10.58l2.64-8.28v-4.81Z"></path><path fill="#ffb27d" d="M294.75,635.07c-.2-1.08-1.22-22.08-1.65-20.09-.44,1.99-1.47,13.01-1.47,13.01l3.12,7.08Z"></path></g><path fill="#fff" d="M225.89,568.52s.37,2.18,4.32,1.84c0,0,3.31-.28,3.21-2.67,0,0-3.21-1.7-7.53,.83Z"></path></g><path fill="#ffb27d" d="M155.62,761.55s-7.83,7.14-9.02,10.15c-1.2,3.01-3.99,14.09-3.99,14.09,0,0,1.99,.41,3.99-4.38,1.99-4.79,8.57-4.38,10.76-6.98,2.19-2.6,4.74-10.22,4.74-10.22l-6.49-2.67Z"></path><path fill="#ffb27d" d="M161.25,766.58s-1.3,8.41-2.9,10.87c-1.59,2.46-3.79,6.57-4.68,5.47-.9-1.09,1-10.26,1-10.26l6.58-6.08Z"></path><path fill="#ffb27d" d="M147.69,772.66c-.2,.41-7.08,10.44-7.08,10.44,0,0,2.49,1.55,3.19,0s3.89-10.44,3.89-10.44Z"></path></g><g><polygon fill="#9ec3f6" points="713.92 277.78 777.69 291.37 735.65 250.98 733.38 263.66 717.81 267.26 713.92 277.78"></polygon><polygon fill="#fff" points="777.69 291.37 724.86 252.84 672.79 248.36 777.69 291.37"></polygon><polygon fill="#fff" points="735.65 250.98 777.69 291.37 745.42 228.82 735.65 250.98"></polygon></g><g><polygon fill="#9ec3f6" points="1647.55 529.11 1595.33 539.34 1629.98 506.91 1631.75 517.31 1644.44 520.47 1647.55 529.11"></polygon><polygon fill="#fff" points="1595.33 539.34 1638.78 508.58 1681.37 505.64 1595.33 539.34"></polygon><polygon fill="#fff" points="1629.98 506.91 1595.33 539.34 1622.16 488.66 1629.98 506.91"></polygon></g><path fill="#699ff0" d="M339.73,449.68h317.33v114.43h-225.64v121.79h198.85v114.43h-198.85v221.51h-91.69V449.68Z"></path><path fill="#699ff0" d="M795.14,461.01h82.29l173.86,560.93h-93.31l-37.09-124.92h-171.55l-37.09,124.92h-90.99l173.86-560.93Zm93.89,327.8l-53.9-180.61-53.9,180.61h107.79Z"></path><path fill="#699ff0" d="M1382.42,973.1c-34.19,30.23-75.34,47.74-120.55,47.74-125.18,0-215.01-128.1-215.01-288.02s90.99-288.02,216.17-288.02,215.01,128.1,215.01,288.02c0,58.08-12.75,113.78-35.93,159.92l41.73,48.53-56.8,86.73-44.62-54.9Zm-66.07-80.36s40.49-28.6,57.38-81.95c7.34-23.19,11.01-48.53,11.01-77.97,0-95.48-51-175.04-122.86-175.04s-121.7,77.97-121.7,175.04,51,175.04,122.86,175.04c19.7,0,37.67-5.57,53.32-15.12Z"></path><g><path fill="#f4a269" d="M1266.78,724.48s-6.84,13.9-10.74,43.11c-3.42,25.59-6.41,35.03-11.35,40.28-4.93,5.25-32.43,20.74-32.43,20.74l2.06,6.61s40.3-7.53,44.82-16.78c4.53-9.25,21.78-63.87,20.44-76.46-1.34-12.58-12.81-17.5-12.81-17.5Z"></path><g><path fill="#ffb27d" d="M1154.89,1016.54c-.41,5.39-5.96,5.21-12.24,3.94-6.28-1.27-4.65,.99-13.48,.78-8.82-.21-11.77-4.34-12.16-6.09-.35-1.55,3.93-2.66,8.51-3.99,.58-.16,1.15-.34,1.73-.51,5.17-1.57,8.68-6.69,13.17-11.1,4.25-4.18,9.96-19.71,9.96-19.71l12.07-.23s-5.39,13.91-7.44,19.92c-1.2,3.54-.82,7.96-.41,11.36,.22,1.85,.44,3.74,.29,5.64Z"></path><path fill="#c65447" d="M1142.65,1020.48c-6.28-1.27-4.65,.99-13.48,.78-8.82-.21-11.77-4.34-12.16-6.09-.35-1.55,3.93-2.66,8.51-3.99l.05,.12s5.58,4.43,12.87,3.73c5.94-.56,12.06-3.7,16.15-4.13,.22,1.85,.44,3.74,.29,5.64-.41,5.39-5.96,5.21-12.24,3.94Z"></path></g><path fill="#ef7e29" d="M1285.62,837.54s-79.09,.53-93.85,13.32c-14.76,12.79-48.37,144.55-48.37,144.55,0,0,2.62,4.73,5.87,5.34,5.21,.98,8.17-1.81,8.17-1.81,0,0,45.04-61.5,47.43-78.29,2.4-16.8,1.81-31.78,7.27-32.18,5.46-.4,73.49,11.36,83.78-13.53,10.29-24.89,1.78-49.53,1.78-49.53l-12.09,12.14Z"></path><g><path fill="#ffb27d" d="M1196.9,1014.06c-.08,5.42-5.63,5.88-11.96,5.33-6.33-.55-4.57,1.52-13.38,2.33-8.81,.81-12-2.97-12.49-4.67-.44-1.51,3.76-3.11,8.24-4.95,.56-.23,1.13-.47,1.69-.71,5.05-2.16,8.24-7.66,12.44-12.58,3.98-4.65,8.73-20.79,8.73-20.79l12.01-1.62s-4.53,14.48-6.2,20.71c-.98,3.66-.34,8.02,.28,11.36,.33,1.82,.66,3.68,.63,5.58Z"></path><path fill="#c65447" d="M1184.95,1019.39c-6.33-.55-4.57,1.52-13.38,2.33-8.81,.81-12-2.97-12.49-4.67-.44-1.51,3.76-3.11,8.24-4.95l.06,.11s5.83,3.77,13.05,2.24c5.88-1.24,11.79-5.07,15.85-5.97,.33,1.82,.66,3.68,.63,5.58-.08,5.42-5.63,5.88-11.96,5.33Z"></path></g><path fill="#f99746" d="M1300.98,844.21s-69.66,4.53-84.05,18.1c-14.39,13.57-34.6,127.86-34.6,127.86,0,0,3.03,5.5,6.12,7.02,3.93,1.93,9.22-.25,9.22-.25,0,0,27.97-46.27,29.89-63.18,1.92-16.91,4.92-25.61,10.37-26.3,5.44-.69,58.91,13.64,83.34-18,15.16-19.64-20.28-45.25-20.28-45.25Z"></path><path fill="#b5453c" d="M1277.13,716.82c-1.35-3.26-2.97-9.11-4.13-19.7,.15,1.05,2.14,14.36,6.27,21.62,16.14,12.52,41.62,59.54,41.47,68.41,0,0,15.66-28.46,15.83-28.62,0,0,17.62-35.37-6.13-52.54-12.07-8.72-12.62-21.29-12.67-32.24-.04-10.96-5.97-57.58-28.61-43.17,0,0-3.84-1.93-5.49-1.44,0,0,1.38,.23,2.12,1.15-2.7,.03-6.54,.65-9.63,3.46-8.19,7.42-12.92,67.73,.97,83.07Z"></path><path fill="#ffb27d" d="M1303.91,708.47s-6.49-.85-12.97,0c-4.41,.58-8.77,2.45-11.26,3.88-6.14,3.52-5.5,18.45,7.39,15.68,12.88-2.76,17.75-15.14,16.85-19.56Z"></path><path fill="#ffb27d" d="M1280.22,719.35c-.08,.05-1.84,12.84,6.6,12.33,5.54-.34,17.48-9.53,16.43-16.04-.5-3.09-4.69-11.12-5.53-29.45l-1.01,.37-16.95,6.24s.75,7.39,1.1,14.38c.3,5.87,.31,11.46-.64,12.18Z"></path><path fill="#f4a269" d="M1279.76,692.8s.75,7.39,1.1,14.38c9.59-1.25,14.09-13.75,15.85-20.62l-16.95,6.24Z"></path><path fill="#b5453c" d="M1298.36,683.83s4.51-11.39,5.26-20.84c.54-6.75-3.14-31.25-21.06-26.03,0,0-5.22,1.19-9.94,6.23-3.75,4-9.04,12.39-1.65,33.38l2,7.14,25.39,.12Z"></path><path fill="#ffb27d" d="M1276.87,699.71s22.77-1.57,21.84-21.02c-.93-19.45,1.38-32.75-13.19-32.57-14.58,.18-17.04,7.85-17.88,14.45-.84,6.6,3.29,39.04,9.24,39.14Z"></path><path fill="#b5453c" d="M1275.13,646.6s7.33,22.25,17.05,24.74c9.72,2.5,13.69-1.4,13.69-1.4,0,0-7.72-7.32-9.92-21.14,0,0-16.66-13.5-20.83-2.21Z"></path><path fill="#b5453c" d="M1276.77,648.31s-4.4,5.52-5.3,10.58c-.89,5.06-.91,15.3-3.09,15.15,0,0-5.44-15.08-.6-24.33,5.14-9.81,8.98-1.39,8.98-1.39Z"></path><path fill="#2b478b" d="M1254.09,839.16c1.84,3.02,7.59,3.95,13.74,5.34,4.84,1.1,9.92,2.47,13.53,5.39,8.21,6.61,35.02,28.97,42.88,27.95,3.05-.39,2.48-8.38,.63-18.97-2.91-16.73-8.99-39.97-8.99-50.07,0-5.51-1.34-18.56-3.12-33.48-.15-1.2-.29-2.41-.44-3.64-3.53-29.01-8.42-63.21-8.42-63.21,0,0-5.45,16.33-16.08,16.33s-8.16-12.46-8.16-12.46c0,0-9.69,1.57-11.98,4.95-2.29,3.39-8.1,18.03-9.25,22.02,0,0-.23,5.08,8.93,7.5,0,0-2.23,13.79-2.5,22.98-.2,6.79,3.38,28.05,4.4,41.27,.36,4.68,.41,8.36-.14,10.02-.71,2.14-3,4.26-5.61,6.35-5.18,4.14-11.62,8.12-9.43,11.72Z"></path><path fill="#233862" d="M1263.52,827.44c-5.88,13.76,15.95,17.9,19.56,20.82,8.21,6.61,33.3,30.6,41.16,29.58,3.05-.39,2.48-8.38,.63-18.97-2.91-16.73-8.99-39.97-8.99-50.07,0-5.51-1.34-18.56-3.12-33.48l-9.46-12.47s-10.14,35.97-19.8,41.86c-5.06,3.09-10.35,5.12-14.24,6.36,.36,4.68,.41,8.36-.14,10.02-.71,2.14-3,4.26-5.61,6.35Z"></path><path fill="#ffb27d" d="M1306.81,719.24s8.09-6.74,15.91,6.05c7.82,12.79-5.56,104.23-17.15,108.93-12.87,5.22-50.05-.84-50.05-.84l.72-7.98s39.58-10.42,41.23-13.32c1.65-2.9,5.23-91.37,9.35-92.84Z"></path><path fill="#2b478b" d="M1303.91,708.47s16.61,2.06,21.43,9.56c4.82,7.5,6.23,27.82,6.23,27.82,0,0-14.63,16.21-32.25,9.92l4.58-47.3Z"></path><path fill="#ffb27d" d="M1259.47,824.93s-12.89-3.42-14.34-2.57c-1.45,.86-9.56,10.84-8.73,12.84,.83,2,4.16,3.42,7.9,1.71,3.74-1.71,11.85-2.57,13.3-5.14,1.45-2.57,1.87-6.85,1.87-6.85Z"></path><g><rect fill="#9e332e" transform="translate(2520.14 1692.5) rotate(180)" height="3.56" width="21.94" y="844.47" x="1249.1"></rect><path fill="#9e332e" d="M1253.76,847.54c-.21-1.18-20.17-44.19-20.17-44.19h-44.4l22.27,43.04,42.3,1.16Z"></path><path fill="#b5453c" d="M1251.89,848.03c-.21-1.18-20.23-44.68-20.23-44.68h-42.46l21.19,44.68h41.51Z"></path><path fill="#9e332e" d="M1214.46,825.83c.44,1.74,1.82,3.16,3.09,3.16s1.94-1.41,1.51-3.16c-.44-1.74-1.82-3.16-3.09-3.16s-1.94,1.41-1.51,3.16Z"></path></g></g><g><path fill="#ea9963" d="M1562.53,698.42s10.59,8.27,13.56,8.27c2.97,0,14.6-3.09,17.85-.81,3.24,2.28,9.12,11.43,10.22,14.43,1.98,5.38-7.98,3-12.68-1.58-.68-.66-1.53-.91-2.35-.67-2.44,.73-7.5,1.99-9.95,.75-3.29-1.67-20.61-3.53-20.61-3.53l3.97-16.86Z"></path><path fill="#ed7d2b" d="M1481.94,585.8s10.98,107.14,29.16,116.74c8.97,4.74,48.62,15.47,60.35,16.55,0,0,2.87-3.2,2.17-16.23,0,0-41.54-20.94-47.44-32.32-8.78-16.95,5.45-69.23-5.57-85.15-11.02-15.92-29.58-22.76-38.68,.41Z"></path><path fill="#233862" d="M1485.64,811.53c3.2,7.46,6.91,14.45,10.73,21.07,11.8,20.45,24.65,37.32,26.89,53.26,.44,3.18,1.15,6.6,2.07,10.2,.93,3.65,2.09,7.49,3.42,11.46,5.01,14.94,12.5,31.67,19.97,46.88,12.93,26.3,25.08,48.24,25.08,48.24l22.29-1.3c-.89-3.07-10.61-39.38-23.62-83.75-5.28-18.01-10.9-37.17-16.32-55.65-.72-2.47-1.44-4.92-2.16-7.36-1.66-5.65-3.29-11.22-4.88-16.64-12.21-41.66-21.94-74.84-21.94-74.84,0,0-48.81-25.38-53.88-8.94-4.18,13.56-.78,26.85,12.33,57.37Z"></path><path fill="#163560" d="M1574.51,997.08s1.14,25.25,4.7,25.62c.47,.05,18.05,.05,18.05,.05l22.44-.18s-.15-7.42-6.71-8.99c-6.56-1.57-17.54-7.9-21.51-19.8-4.18-12.52-16.97,3.3-16.97,3.3Z"></path><path fill="#163560" d="M1495.3,917.66s-16.66,10.83-15.58,15.5c.14,.62,6.67,23.03,6.67,23.03l8.45,28.54s4.97-2.94,3.59-11.89c-1.37-8.94-1.17-25.29,5.41-34.77,6.92-9.97-8.53-20.41-8.53-20.41Z"></path><path fill="#2b478b" d="M1501.24,942.86s-9.36-12.99-11.07-21.6c0,0,32.18-42.94,43.69-53.37,13.2-11.97,21.78-12.03,19.66-14.97-6.94-9.6-65.27-37.62-74.77-57.9-3.27-6.99-5.13-13.62-6.14-19.42-2.15-12.38-.45-20.92-.45-20.92l72.56-2.88s53.95,76.82,53.64,105.74c-.34,31.25-97.12,85.32-97.12,85.32Z"></path><path fill="#ffb27d" d="M1524.87,579.05c-14.68,5.21-39.01-13.46-39.01-13.46,0,0,9.45-8.72,12.95-27.87,.18-.96,.34-1.95,.48-2.97,1.54-.45,4.44-1.29,7.54-2.19l11.21,13.79s-.26,5.73-1.66,15.57c-.24,1.72-.52,3.56-.84,5.52,6.02,5.12,9.33,11.61,9.33,11.61Z"></path><path fill="#f99746" d="M1470.32,662.57c2.1,38.82-.66,97.86,1.72,108.09,2.06,8.82,25.51,3.58,34.87,.63,3.46-1.09,7.66-2.65,12-4.49,12.09-5.14,25.26-12.48,26.68-17.93,.05-.21,.1-.42,.13-.63,.13-.79,.1-1.53-.03-2.28-.47-2.78-2.29-5.78-2.5-12.66-.24-7.68-.2-16.72-.41-26.44-.01-1.09-.02-2.29-.11-3.38v-.4c0-.21-.01-.41-.01-.62-.2-10.84-.62-22.24-1.09-33.55-.3-7.1-.66-14.13-1.06-20.87-1.05-17.39-2.48-32.85-4.36-42.63-3.07-15.94-9.85-26.33-16.02-33.95l-4.46-5.25c-4.98,1.49-10.87,.5-16.19-2.96-5.76-3.76-7.75-6.45-8.76-5.43-13.31,14.1-22.88,57.29-20.4,104.75Z"></path><path fill="#ed7d2b" d="M1518.91,766.81c12.09-5.14,25.26-12.48,26.68-17.93,.05-.21,.1-.42,.13-.63,0-.76-.01-1.52-.03-2.28-.47-2.78-2.29-5.78-2.5-12.66-.24-7.68-.2-16.72-.41-26.44-.01-1.09-.02-2.29-.11-3.38v-.4c0-.21-.01-.41-.01-.62l-48.88-85.49s-32.86,93.93,25.13,149.83Z"></path><path fill="#ea9963" d="M1518.04,546.35s-.26,5.73-1.66,15.57c-10.95-4.86-15.91-18.43-17.57-24.19,.18-.96,.34-1.95,.48-2.97,1.54-.45,4.44-1.29,7.54-2.19l11.21,13.79Z"></path><path fill="#ffb27d" d="M1519.51,555.02s-23.87-5.47-21.17-25.83c2.71-20.36,1.45-34.78,16.81-32.15,15.36,2.63,17.28,11.14,17.58,18.24,.3,7.1-6.94,40.63-13.22,39.74Z"></path><g><polygon fill="#4a75cb" points="1613.49 729.22 1615.59 730.16 1633.51 654.48 1631.4 653.54 1613.49 729.22"></polygon><polygon fill="#4a75cb" points="1554.86 723.38 1615.67 725.17 1615.59 730.16 1554.78 728.38 1554.86 723.38"></polygon></g><path fill="#ffb27d" d="M1556,732.37s19.54,7.07,26.87,6.33c7.33-.74,13.42-5.53,14.34-8.02,.92-2.5,2.86-6.93-2.13-6.11-4.99,.82-11.8,2.27-12.01,.96-.21-1.32,4.07-1.19,4.07-1.19,0,0,1.29-2.58-.33-2.67s-6.38-1.86-8.14-.65c-1.76,1.21-3.39,5.68-4.68,5.5-1.29-.19-16.35-9.32-16.35-9.32l-1.63,15.18Z"></path><path fill="#f99746" d="M1486.79,590.2s2.31,108.15,19.61,120.44c8.54,6.06,47.08,22.73,58.65,25.58,0,0,3.11-2.75,3.46-15.8,0,0-39.61-27.1-44.56-39.31-7.37-18.17,10.98-67.98,1.3-85.47-9.68-17.49-27.58-27.1-38.47-5.45Z"></path><path fill="#2b478b" d="M1498.81,537.72s-.27-6.99,2.87-10.99c0,0-1.09-7,.92-8.16,2.02-1.15,2.44,4.73,3.36,3.81,.92-.92,5.05-5.31,6.81-11.77,1.77-6.46,17.93,1.36,19.81,2.53,1.88,1.16,7.94-3.11,9.12-6.57,0,0-3.36-3.69-4.88-6.46-1.51-2.77-12.11-21.47-26.91-16.16-14.8,5.31-16.82,15.01-15.98,23.32,.84,8.31-1.19,27.67,4.87,30.46Z"></path></g><g id="d"><path fill="#ffb27d" d="M1041.96,611.71c-1.62,5.99-4.44,12.95-7.39,14.68-3.35,1.96-4.75,4.73-4.75,4.73l-2.7-2.15-3.23-2.58s.08-.49,.23-1.29c.16-.8,.4-1.91,.73-3.14,0,0,.99-1.75,.38-3.95-.61-2.19-.49-5.58,.55-7.65,1.04-2.07,2.04-7.16,2.66-7.01,1.51,.36-.74,7.36-.1,8.65,.58,1.17,1.32,.77,1.45,.68,0,0,.02-.01,.03-.02,4.24-2.56,9.38-16.35,11.65-14.49,.85,.7,1.18,10.98,.49,13.53Z"></path><g><path fill="#2b478b" d="M1027.31,620.06l5.31,5.12c.37,.36,.9,.24,1.16-.28l13.6-26.56c.26-.51,.17-1.23-.2-1.59l-5.31-5.12c-.38-.36-.9-.24-1.16,.28l-13.6,26.56c-.26,.51-.17,1.23,.2,1.59Z"></path><path fill="#233862" d="M1032.16,624.75l3.11,3c.29,.28,.68,.18,.88-.21l13.83-27.01c.2-.39,.13-.94-.15-1.21l-3.11-3c-.29-.28-.68-.18-.88,.21l-13.83,27.01c-.2,.39-.13,.94,.15,1.21Z"></path></g><path fill="#233862" d="M951.16,581.95s27.01,64.67,36.81,76.57l35.93-36.77s5.21,2.2,7.5,9.38c0,0-21.82,61.02-43.3,63.61-21.48,2.59-51.63-73.14-51.63-73.14l14.7-39.65Z"></path><g><path fill="#233862" d="M890.04,1021.83h-15.61c-1.96-1.46-3.72-4.82-4.27-9.82-.76-6.9-6.4-10.67-7.62-16.31-1.22-5.64,5.03-13.59,5.03-13.59l1.04-1.85,1.09-1.92,10.36,3.35s.26,3.39,.41,7.7c.11,3.11,.17,6.71,.05,9.86-.3,7.53,1.53,15.63,6.41,17.1,3.6,1.08,3.44,4.02,3.11,5.47Z"></path><path fill="#233862" d="M980.6,1021.83h-35.69c-1.72-2.88-1.08-13.49-.82-16.95,.05-.7,.09-1.1,.09-1.1,0,0,12.19-13.38,13.86-3.14,.05,.32,.11,.64,.18,.95,2.11,9.58,11.57,13.94,17.03,15.15,3.55,.79,4.86,3.33,5.35,5.09Z"></path><path fill="#f99746" d="M973.8,748.34s-1.85,31.7-4.03,69.8c-2.96,51.76-6.51,115.33-6.86,127.38-.61,20.91-3.05,54.37-3.05,54.37,0,0-5.78,7.95-17.36,4.6,0,0-10.32-47.76-13.26-98.28-.05-.83-.09-1.66-.14-2.5-2.74-51.44-7-159.75-7-159.75l51.7,4.39Z"></path><path fill="#ed7d2b" d="M973.8,748.34s-1.85,31.7-4.03,69.8l-40.54,88.06c-.05-.83-.09-1.66-.14-2.5-2.74-51.44-7-159.75-7-159.75l51.7,4.39Z"></path><path fill="#f99746" d="M965.35,752.1s-33.36,114.79-55.29,168.74c-21.93,53.95-28.79,69-28.79,69,0,0-12.57-6.9-13.71-11.61,0,0,8.39-104.15,23.07-129.53,8.3-14.35,18.05-57.4,18.51-72.45,.46-15.05,2.97-44.85,2.97-44.85l53.23,20.7Z"></path></g><path fill="#ffb27d" d="M957.05,584.76c-13.03,5.65-35.59-9.59-35.59-9.59,0,0,12.02-12.38,11.39-38.13l10.08,11.15,6.85,7.57s-.03,4.46-.78,12.29c-.2,2.06-.44,4.35-.75,6.86,5.6,4.22,8.81,9.85,8.81,9.85Z"></path><path fill="#ed975d" d="M949.78,555.76s-.03,4.46-.78,12.29c-7.59-1.79-16.19-18.62-16.19-18.62,3.86-1.53,7.24-1.81,10.12-1.24l6.85,7.57Z"></path><path fill="#ffb27d" d="M953.76,555.34s-21.53,4.91-23.55-13.54c-2.02-18.45-6.16-30.25,7.5-34.16,13.66-3.92,17.11,2.57,18.87,8.51,1.77,5.93,2.72,37.45-2.82,39.2Z"></path><path fill="#2b478b" d="M975.24,750.98c-.39,.45-.85,.72-1.37,.72-4.89-.09-19.17,3.64-31.24,1.94-10.18-1.34-19.19-5.48-28.87-11.44-1.29-.79-4.24-2.96-4.18-4.93,.04-2.16,.2-5.29,.4-9.24,.68-13.71,1.88-37.3,.72-64.51-.21-5.07-.32-10.09-.33-15.04-.1-36.88,5.23-69.32,15.93-80.3,.91-.9,6.53,2.87,11.68,6.36,4.77,3.23,9.53,3.58,14.03,2.33l4.5,5.46c5.48,6.99,11.49,16.49,14.1,30.91,2.22,12.28,3.52,34.41,4.24,57.35,.33,10.39,.59,20.88,.66,30.83v.36c.06,.99,.06,2.06,.06,3.05,.26,25.54,0,45.79-.33,46.15Z"></path><path fill="#233862" d="M909.98,728.03c.68-13.71,1.88-37.3,.72-64.51-.21-5.07-.32-10.09-.33-15.04,4.46-14.85,8.1-25.62,8.1-25.62h11.24s8.24,77.27-19.72,105.17Z"></path><g><path fill="#233862" d="M852.41,815.6l47.93,9.38c6.24,1.22,12.07-4.79,12.96-13.35l2.96-28.52c.89-8.56-3.49-16.57-9.73-17.79l-47.93-9.38c-6.24-1.22-12.07,4.79-12.96,13.35l-2.96,28.52c-.89,8.56,3.49,16.57,9.73,17.79Z"></path><path fill="#2b478b" d="M909.24,773.82h0c-1.35-4.63-4.25-8.29-7.94-9.53h0s0,0,0,0c-.36-.12-.73-.22-1.11-.29l-9.54-1.86,.64-6.16c.14-1.37-.11-2.74-.72-3.86-.61-1.11-1.5-1.84-2.5-2.03l-2.49-.49-10.02-1.96-1.81-.35c-2.07-.4-4,1.58-4.29,4.42l-.64,6.15-16.48-3.22c-6.26-1.22-12.11,4.81-13.01,13.4l-2.99,28.85c-.89,8.6,3.5,16.63,9.76,17.86l47.85,9.36c.84,.17,1.68,.2,2.5,.11h0c1.31-.14,2.57-.59,3.73-1.29,3.52-2.13,6.19-6.64,6.77-12.22l3-28.85c.29-2.81,.02-5.56-.7-8.03Zm-37.44-21.65c.09-.86,.58-1.51,1.18-1.64,.14-.03,.28-.04,.43,0l2.13,.41,7.89,1.55,4.3,.84c.77,.15,1.31,1.14,1.2,2.2l-.64,6.15-17.12-3.35,.64-6.15Z"></path></g><path fill="#ffb27d" d="M888.86,730.69s-2.52,4.6-2.62,6.44c-.68,12.47,3.47,14.19-7.27,21.12,0,0-4.59,2.4-4.66-2.49-.08-4.89,3.18-4.97,2.59-11.81-.69-7.89-.62-7.97,3.16-12.09l2.5-5.67,6.31,4.5Z"></path><path fill="#2b478b" d="M882.45,734.21c4.05,1.08,8.43,.64,8.43,.64,0,0,12.02-50.96,13.56-55.61,1.55-4.65,35.69-59.75,35.69-59.75l-14.22-48.87s-36.93,84.69-40.68,96.59c-6.2,19.66-8.35,63.75-8.35,63.75,0,0,2.38,2.4,5.56,3.25Z"></path><path fill="#2b478b" d="M930.19,540.02s2.21-.51,1.85-4.69c-.36-4.18-.35-9.64,2.12-8.62,2.47,1.02,2.6,3.74,3.61,2.15,1.02-1.59,1.03-8.28,8.4-8.74,7.36-.47,10.35,3.05,13.78,.99,3.42-2.07,3.6-9.18,3.6-9.18,0,0-.97,2.54-2.44,3.35,0,0,5.71-10.72-.9-18.08-6.61-7.35-13.36-2.54-17.18-2.22-8.43,.7-13.88,1.4-16.63,9-2.75,7.61-1.62,28.73,3.79,36.05Z"></path><path fill="#ffb27d" d="M884.89,736.17s2.42,3.47,2.58,4.91c.49,4.63,1.62,6.63,1.05,7.14-1.17,1.05-2.73-2.38-3.47-5.46-.74-3.08-.16-6.59-.16-6.59Z"></path></g><rect fill="#2e3552" ry="1.73" rx="1.73" height="6.72" width="1741.36" y="1021.28" x="53.64"></rect><g><path fill="#233862" d="M479,422.25c7.17,18.27,16.65,27.43,16.65,27.43h39.47s-61.6-41.37-56.13-27.43Z"></path><g><path fill="#ffb27d" d="M506.49,562.55c.99,1.65,1.09,3.46,.54,5.37,0,0,0,.02-.01,.03-1.01,3.53-4.19,7.39-7.88,11.23-.47,.49-.89,.94-1.26,1.36-.1,.11-.19,.22-.28,.33-.07,.08-.15,.17-.22,.25-3.45,4.13-2.2,5.15-8.41,13.56-7.08,9.58-11.83,9.58-13.16,8.63-1.13-.81,1.3-5.94,3.98-11.71,.13-.28,.26-.56,.39-.84,.36-.77,.71-1.55,1.07-2.32,3.15-6.94,2.44-10.29,1.94-20.82-.41-8.56-8.73-48.05-8.73-48.05l13.26-2.63s3.36,31.32,7.64,36.29c2.29,2.65,4.91,2.78,7.12,4.76,.16,.14,.31,.28,.46,.42,1.26,1.21,2.53,2.46,3.53,4.12Z"></path><path fill="#233862" d="M506.49,562.55c.99,1.65,1.09,3.46,.54,5.37,0,0,0,.02-.01,.03-1.22,3.52-4.33,7.37-7.89,11.2-.47,.5-.88,.96-1.24,1.4-.1,.11-.19,.22-.28,.33-.07,.08-.15,.17-.22,.25-3.45,4.13-2.2,5.15-8.41,13.56-7.08,9.58-11.83,9.58-13.16,8.63-1.13-.81,1.3-5.94,3.98-11.71,1.35-.62,7.65-3.86,12.52-11.96,4.29-7.11,7.24-16.34,10.17-21.64,.16,.14,.31,.28,.46,.42,1.26,1.21,2.53,2.46,3.53,4.12Z"></path><path fill="#ffb27d" d="M400.29,547.25c-.93,5.56-6.71,4.41-13.16,1.99-6.44-2.42-4.95,.23-14.16-1.52-9.21-1.75-11.91-6.58-12.15-8.48-.22-1.68,4.36-2.1,9.26-2.69,.62-.07,1.24-.15,1.86-.24,5.54-.75,9.69-5.49,14.79-9.32,4.83-3.63,12.23-18.88,12.23-18.88l12.64,1.85s-6.92,13.61-9.61,19.54c-1.58,3.49-1.59,8.18-1.48,11.8,.06,1.97,.11,3.98-.22,5.94Z"></path><path fill="#233862" d="M387.13,549.24c-6.44-2.42-4.95,.23-14.16-1.52-9.21-1.75-11.91-6.58-12.15-8.48-.22-1.68,4.36-2.1,9.26-2.69l.04,.13s5.43,5.6,13.11,6.14c6.26,.44,12.94-1.77,17.27-1.52,.06,1.97,.11,3.98-.22,5.94-.93,5.56-6.71,4.41-13.16,1.99Z"></path><path fill="#233862" d="M451.03,437.9l10.97,44.17,14.32,57.68s4.18,.71,8.23-.72c3.73-1.33,8.05-5.01,8.05-5.01,0,0-3.07-61.47-10.38-96.96-1.87-9.11-4.03-16.5-6.48-20.71-12.01-20.6-24.7,21.56-24.7,21.56Z"></path><path fill="#2b478b" d="M464.44,368.9c7.82-3.14,29.86,2.09,51.96,8.9l4.86-10.36,48.1-3.35s14.88,48.81,5.6,79.21c-1.36,4.47-3.77,6.45-8.09,6.39h-.86s-28.57,.35-37.85,0c-23.87-.89-50.08-25.06-53.51-26.14-5.61-1.76-8.17,13.65-14.14,29.7-5.96,16.05-54.46,70.05-54.46,70.05,0,0-7.29-.17-10.26-1.83-3.2-1.79-4.34-4-4.34-4,0,0,55.36-141.47,73-148.56Z"></path><path fill="#233862" d="M523.34,276.71c16.83,13.56,50.97,41.64,51.16,41.47,0,0,12.61,7.07,19.97,.75,12.27-10.54,19.32-39.86-2.21-66.13-10.74-13.1-18.48-16.48-19.27-36.79-.43-11.02-10.65-47.71-28.9-45.03-1.53,.22-3.06,.37-4.59,.24-2.12-.17-5.64,.12-9.29,2.93-10.46,8.03-32.38,96.61-6.86,102.56Z"></path><path fill="#ffb27d" d="M537.88,266.25c-.08,.06,8.33,4.36,14.07,1.12,5.4-3.04,9.68-14.94,9.6-14.95-2.42-.24-5.03-3.26-6.71-22.46l-1.04,.47-17.55,7.94s1.11,7.7,1.78,15.02c.56,6.15,.82,12.02-.15,12.85Z"></path><path fill="#ed975d" d="M536.25,238.37s1.11,7.7,1.78,15.02c10.03-2.09,14.22-15.6,15.77-22.96l-17.55,7.94Z"></path><path fill="#ffb27d" d="M533.52,245.87s23.87-3.49,22.06-23.87c-1.81-20.37,.05-34.54-15.27-33.18-15.32,1.37-17.58,9.64-18.18,16.64-.6,7,5.14,40.78,11.39,40.4Z"></path><path fill="#233862" d="M523.21,194.38s14.87,18.58,25.19,20.42c10.33,1.84,14.34-2.58,14.34-2.58,0,0-5.97-7.19-9.42-18.55-1.02-3.35-3.26-5.71-5.89-6.12-7.38-1.15-21.39-2.08-24.23,6.83Z"></path><path fill="#233862" d="M532.76,193.12s-5.23,6.57-6.93,11.52c-1.64,4.78-2.34,16.34-1.2,20.98,0,0-7.51-21.48-2.82-31.6,4.98-10.73,10.94-.9,10.94-.9Z"></path><path fill="#fff" d="M516.9,313.59c-.59,66.12-.84,52.29,4.3,58.75,1.24,1.56,4.79,2.59,9.47,3.19,14.73,1.9,40.75-.47,41.81-4.18,3.66-12.83,1.34-16.95,4.57-36.68,.34-2.1,.75-4.37,1.23-6.84,2.64-13.54,5.04-18.09-2.93-40.29-7.23-20.11-14.82-36.5-15.55-35.95-20.43,15.63-21.78,1.8-21.78,1.8,0,0-20.84,27.95-21.13,60.2Z"></path><path fill="#2b478b" d="M462,482.07l14.32,57.68s4.18,.71,8.23-.72c3.73-1.33,8.05-5.01,8.05-5.01,0,0-3.07-61.47-10.38-96.96l-20.22,45.02Z"></path><path fill="#fff" d="M538.03,253.39s-20.78,4.04-23.45,16.18c-2.67,12.14-18.39,83.49-18.39,83.49,0,0,10.47,2.99,15.46-3.5,4.99-6.49,18.13-61.25,18.13-61.25l8.26-34.92Z"></path><path fill="#ebf3ff" d="M530.68,375.54c14.73,1.9,40.75-.47,41.81-4.18,3.66-12.83,1.34-16.95,4.57-36.68l-6.57-27.79s.57,30.69-6.17,38.51c-6.74,7.82-27.27,14.55-30.6,21.17-1.61,3.17-2.69,6.38-3.04,8.97Z"></path><path fill="#ffb27d" d="M547.85,363.28s-14.47-5-16.86-3.31-8.26,7.93-9.02,10.15c-.76,2.22,5.27-1.51,7.21-2.15,1.26-.41,4.53,1.28,6.15,2.09,6.81,3.4,11.05,1.94,11.05,1.94l1.46-8.73Z"></path><path fill="#fff" d="M559.82,251.58s19.52,2.39,26.03,15.6c9.17,18.6,26.53,97.07,15.49,107.03-12.43,11.22-55.59,.98-55.59,.98,0,0-1.26-9.31,.84-13.71,2.09-4.4,34.84-10.41,36.38-12.42,1.55-2.01-18.01-40.98-17.88-47.18,.12-6.2-5.27-50.31-5.27-50.31Z"></path><path fill="#ffb27d" d="M530.17,365.51s-3.16,5.29-4.17,5.9c-1.01,.61-1.66,.42-1.66,.42l2.16-5,3.67-1.32Z"></path><path fill="#ffb27d" d="M530.99,359.97l-8.99,5.58s.36,.86,1.45,.83c1.09-.03,3.88-1.31,3.88-1.31l3.66-5.11Z"></path></g><g><g><polygon fill="#f99746" points="525.84 379.68 455.66 377.06 435.98 304.2 506.05 306.82 525.84 379.68"></polygon><polygon fill="#ed7d2b" points="454.89 374.22 547.56 377.68 547.5 380.49 455.66 377.06 454.89 374.22"></polygon></g><path fill="#fff" d="M474.09,341.69c-.48-2.55,.63-4.57,2.47-4.5,1.85,.07,3.73,2.2,4.21,4.75,.48,2.55-.63,4.57-2.47,4.5-1.85-.07-3.73-2.2-4.21-4.75Z"></path></g></g></g></g></g></svg>