<svg viewBox="0 0 238.41 132.38" xmlns:xlink="http://www.w3.org/1999/xlink" xmlns="http://www.w3.org/2000/svg"><defs><style>.cls-1{fill:url(#未命名的渐变_217);}.cls-2{fill:url(#未命名的渐变_19);}.cls-3{fill:url(#未命名的渐变_19-2);}.cls-4{fill:url(#未命名的渐变_255);}.cls-5{fill:url(#未命名的渐变_16);}.cls-6{isolation:isolate;}.cls-7{fill:url(#未命名的渐变_242);}.cls-8{fill:url(#未命名的渐变_248);}.cls-9{fill:url(#未命名的渐变_242-2);}.cls-10{fill:url(#未命名的渐变_248-2);}.cls-11{fill:url(#未命名的渐变_234);}.cls-12{fill:url(#未命名的渐变_234-2);}.cls-13{fill:url(#未命名的渐变_234-3);}.cls-14{fill:url(#未命名的渐变_234-4);}.cls-15{fill:url(#未命名的渐变_234-5);}.cls-16{fill:url(#未命名的渐变_234-6);}.cls-17{fill:url(#未命名的渐变_234-7);}.cls-18{fill:url(#未命名的渐变_234-8);}.cls-19{fill:url(#未命名的渐变_234-9);}.cls-20{fill:url(#未命名的渐变_234-10);}.cls-21{fill:url(#未命名的渐变_234-11);}.cls-22{fill:url(#未命名的渐变_234-12);}.cls-23{fill:url(#未命名的渐变_234-13);}.cls-24{fill:url(#未命名的渐变_234-14);}.cls-25{fill:url(#未命名的渐变_234-15);}.cls-26{fill:url(#未命名的渐变_164);}.cls-27{fill:url(#未命名的渐变_164-2);}.cls-28{fill:url(#未命名的渐变_164-3);}.cls-29{fill:#feb99b;}.cls-30{fill:#343434;}.cls-31{fill:#ffd5c3;}.cls-32{fill:#5c5c5c;}.cls-33{fill:#3e3e3e;}.cls-34{fill:#fed4c2;}.cls-35{fill:#301b20;}.cls-36{fill:url(#未命名的渐变_18);}.cls-37{fill:url(#未命名的渐变_18-2);}.cls-38{fill:#007adc;}</style><linearGradient gradientUnits="userSpaceOnUse" y2="63.98" x2="119.2" y1="132.38" x1="119.2" id="未命名的渐变_217"><stop stop-color="#fff" offset="0"></stop><stop stop-color="#fdfeff" offset="0.38"></stop><stop stop-color="#f6fafe" offset="0.53"></stop><stop stop-color="#e9f4fc" offset="0.65"></stop><stop stop-color="#d8eaf9" offset="0.75"></stop><stop stop-color="#c1def6" offset="0.84"></stop><stop stop-color="#a4cff1" offset="0.91"></stop><stop stop-color="#83beec" offset="0.98"></stop><stop stop-color="#7ab9eb" offset="1"></stop></linearGradient><linearGradient gradientUnits="userSpaceOnUse" y2="74.77" x2="24.2" y1="83.88" x1="24.2" id="未命名的渐变_19"><stop stop-color="#fff" offset="0"></stop><stop stop-color="#7ab9eb" offset="1"></stop></linearGradient><linearGradient xlink:href="#未命名的渐变_19" y2="52.45" x2="210.66" y1="66.19" x1="210.66" id="未命名的渐变_19-2"></linearGradient><linearGradient gradientUnits="userSpaceOnUse" y2="95.31" x2="170.77" y1="105.69" x1="170.77" id="未命名的渐变_255"><stop stop-opacity="0.3" stop-color="#5caae8" offset="0"></stop><stop stop-opacity="0" stop-color="#fff" offset="1"></stop></linearGradient><linearGradient gradientUnits="userSpaceOnUse" y2="67.9" x2="55.18" y1="84.99" x1="62.09" id="未命名的渐变_16"><stop stop-opacity="0.5" stop-color="#5caae8" offset="0"></stop><stop stop-opacity="0.31" stop-color="#99caf1" offset="0.29"></stop><stop stop-opacity="0.14" stop-color="#d0e7f8" offset="0.6"></stop><stop stop-opacity="0.04" stop-color="#f2f8fd" offset="0.85"></stop><stop stop-opacity="0" stop-color="#fff" offset="1"></stop></linearGradient><linearGradient gradientUnits="userSpaceOnUse" y2="86.52" x2="114.11" y1="14.96" x1="114.11" id="未命名的渐变_242"><stop stop-color="#7ab9eb" offset="0"></stop><stop stop-color="#8bc2ee" offset="0.1"></stop><stop stop-color="#9fcdf1" offset="0.25"></stop><stop stop-color="#add4f3" offset="0.43"></stop><stop stop-color="#b5d9f5" offset="0.64"></stop><stop stop-color="#b8daf5" offset="1"></stop></linearGradient><linearGradient gradientUnits="userSpaceOnUse" y2="86.52" x2="65.63" y1="24.89" x1="65.63" id="未命名的渐变_248"><stop stop-color="#5caae8" offset="0"></stop><stop stop-color="#6cb2ea" offset="0.09"></stop><stop stop-color="#80bced" offset="0.25"></stop><stop stop-color="#8ec3ef" offset="0.43"></stop><stop stop-color="#96c8f1" offset="0.64"></stop><stop stop-color="#99c9f1" offset="1"></stop></linearGradient><linearGradient xlink:href="#未命名的渐变_242" y2="28.25" x2="114.23" y1="2.71" x1="114.23" id="未命名的渐变_242-2"></linearGradient><linearGradient xlink:href="#未命名的渐变_248" y2="28.25" x2="63.83" y1="12.5" x1="63.83" id="未命名的渐变_248-2"></linearGradient><linearGradient gradientUnits="userSpaceOnUse" y2="7.71" x2="161.96" y1="7.71" x1="61.14" id="未命名的渐变_234"><stop stop-color="#b8daf5" offset="0"></stop><stop stop-color="#beddf6" offset="0.04"></stop><stop stop-color="#d2e7f9" offset="0.2"></stop><stop stop-color="#e0eefb" offset="0.39"></stop><stop stop-color="#e8f3fd" offset="0.62"></stop><stop stop-color="#ebf4fd" offset="1"></stop></linearGradient><linearGradient xlink:href="#未命名的渐变_234" y2="37.78" x2="94.88" y1="35.52" x1="94.56" id="未命名的渐变_234-2"></linearGradient><linearGradient xlink:href="#未命名的渐变_234" y2="40.56" x2="78.94" y1="37.24" x1="78.47" id="未命名的渐变_234-3"></linearGradient><linearGradient xlink:href="#未命名的渐变_234" y2="47.6" x2="94.86" y1="45.33" x1="94.54" id="未命名的渐变_234-4"></linearGradient><linearGradient xlink:href="#未命名的渐变_234" y2="50.39" x2="78.92" y1="47.06" x1="78.45" id="未命名的渐变_234-5"></linearGradient><linearGradient xlink:href="#未命名的渐变_234" y2="57.43" x2="94.85" y1="55.16" x1="94.53" id="未命名的渐变_234-6"></linearGradient><linearGradient xlink:href="#未命名的渐变_234" y2="60.21" x2="78.9" y1="56.89" x1="78.44" id="未命名的渐变_234-7"></linearGradient><linearGradient xlink:href="#未命名的渐变_234" y2="67.25" x2="94.83" y1="64.98" x1="94.51" id="未命名的渐变_234-8"></linearGradient><linearGradient xlink:href="#未命名的渐变_234" y2="70.04" x2="78.88" y1="66.71" x1="78.42" id="未命名的渐变_234-9"></linearGradient><linearGradient xlink:href="#未命名的渐变_234" y2="31.1" x2="142.4" y1="28.84" x1="142.08" id="未命名的渐变_234-10"></linearGradient><linearGradient xlink:href="#未命名的渐变_234" y2="33.88" x2="126.46" y1="30.56" x1="125.99" id="未命名的渐变_234-11"></linearGradient><linearGradient xlink:href="#未命名的渐变_234" y2="40.92" x2="142.38" y1="38.65" x1="142.06" id="未命名的渐变_234-12"></linearGradient><linearGradient xlink:href="#未命名的渐变_234" y2="43.71" x2="126.44" y1="40.38" x1="125.97" id="未命名的渐变_234-13"></linearGradient><linearGradient xlink:href="#未命名的渐变_234" y2="51.56" x2="115.74" y1="47.61" x1="115.19" id="未命名的渐变_234-14"></linearGradient><linearGradient xlink:href="#未命名的渐变_234" y2="42.94" x2="115.54" y1="38.99" x1="114.98" id="未命名的渐变_234-15"></linearGradient><linearGradient gradientUnits="userSpaceOnUse" y2="23.18" x2="75.71" y1="19.28" x1="75.17" id="未命名的渐变_164"><stop stop-color="#5caae8" offset="0"></stop><stop stop-color="#5eabe8" offset="0"></stop><stop stop-color="#83beee" offset="0.1"></stop><stop stop-color="#a3cff2" offset="0.2"></stop><stop stop-color="#bedcf6" offset="0.31"></stop><stop stop-color="#d2e7f9" offset="0.43"></stop><stop stop-color="#e0eefb" offset="0.56"></stop><stop stop-color="#e8f3fd" offset="0.73"></stop><stop stop-color="#ebf4fd" offset="1"></stop></linearGradient><linearGradient xlink:href="#未命名的渐变_164" y2="22.24" x2="82.42" y1="18.34" x1="81.87" id="未命名的渐变_164-2"></linearGradient><linearGradient xlink:href="#未命名的渐变_164" y2="21.3" x2="89.12" y1="17.4" x1="88.57" id="未命名的渐变_164-3"></linearGradient><linearGradient gradientUnits="userSpaceOnUse" gradientTransform="matrix(-1, 0, 0, 1, 466.15, 0)" y2="32.83" x2="313.75" y1="41.14" x1="299.35" id="未命名的渐变_18"><stop stop-color="#007adc" offset="0"></stop><stop stop-color="#0ab0ed" offset="1"></stop></linearGradient><linearGradient xlink:href="#未命名的渐变_18" y2="35.57" x2="306.91" y1="48.32" x1="284.81" id="未命名的渐变_18-2"></linearGradient></defs><title>请您从左侧添加需要的内容</title><g id="图层_2"><g id="图层_1-2"><ellipse ry="34.2" rx="119.2" cy="98.18" cx="119.2" class="cls-1"></ellipse><circle r="4.56" cy="79.32" cx="24.2" class="cls-2"></circle><circle r="6.87" cy="59.32" cx="210.66" class="cls-3"></circle><ellipse ry="5.19" rx="14.09" cy="100.5" cx="170.77" class="cls-4"></ellipse><path d="M64.08,67.54c-5.88,1-11.45,2.21-16.66,3.5L64.08,84.19Z" class="cls-5"></path><g class="cls-6"><path d="M160,15l-.21,55.75a3.09,3.09,0,0,1-2.65,3L68.22,86.52l0-58.8Z" class="cls-7"></path><path d="M68.22,86.52l-3.58-2a3.09,3.09,0,0,1-1.57-2.69l0-56.92,5.16,2.83Z" class="cls-8"></path></g><g class="cls-6"><polygon points="161.96 2.71 161.9 14.99 66.51 28.25 66.51 15.42 161.96 2.71" class="cls-9"></polygon><polygon points="66.51 28.25 61.15 25.31 61.14 12.5 66.51 15.42 66.51 28.25" class="cls-10"></polygon><path d="M66.51,15.42,61.14,12.5,155,0a4.78,4.78,0,0,1,2.85.5L162,2.71Z" class="cls-11"></path></g><polygon points="106.12 33.89 106.11 36.2 83.33 39.4 83.33 37.1 106.12 33.89" class="cls-12"></polygon><path d="M80.08,37a.17.17,0,0,1,.19.18v3a.25.25,0,0,1-.19.25l-2.75.39a.18.18,0,0,1-.19-.19v-3a.24.24,0,0,1,.19-.24Zm-.13,1.38a.32.32,0,0,0,0-.42.23.23,0,0,0-.19-.06.31.31,0,0,0-.19.11l-1.07,1.31-.61-.58a.23.23,0,0,0-.19-.06.31.31,0,0,0-.19.11.32.32,0,0,0,0,.42l.8.75.19.06.19-.11,1.27-1.54" class="cls-13"></path><polygon points="106.1 43.71 106.1 46.02 83.31 49.23 83.31 46.91 106.1 43.71" class="cls-14"></polygon><path d="M80.06,46.83a.17.17,0,0,1,.19.18v3a.25.25,0,0,1-.19.25l-2.75.39a.18.18,0,0,1-.19-.19v-3a.24.24,0,0,1,.19-.24Zm-.13,1.38a.32.32,0,0,0,0-.42.23.23,0,0,0-.19-.06.31.31,0,0,0-.19.11l-1.07,1.3-.61-.57a.23.23,0,0,0-.19-.06.31.31,0,0,0-.19.11.32.32,0,0,0,0,.42l.8.75.19.06.19-.11,1.27-1.54" class="cls-15"></path><polygon points="106.08 53.53 106.08 55.85 83.29 59.05 83.29 56.74 106.08 53.53" class="cls-16"></polygon><path d="M80,56.66a.17.17,0,0,1,.19.18v3a.25.25,0,0,1-.19.25l-2.75.39a.18.18,0,0,1-.19-.19v-3A.24.24,0,0,1,77.3,57Z" class="cls-17"></path><polygon points="106.06 63.36 106.06 65.67 83.27 68.88 83.28 66.56 106.06 63.36" class="cls-18"></polygon><path d="M80,66.49a.17.17,0,0,1,.19.18v3a.25.25,0,0,1-.19.25l-2.75.39a.18.18,0,0,1-.19-.19v-3a.24.24,0,0,1,.19-.24Z" class="cls-19"></path><polygon points="153.64 27.21 153.63 29.52 130.84 32.72 130.85 30.42 153.64 27.21" class="cls-20"></polygon><path d="M127.6,30.33a.17.17,0,0,1,.19.18v3a.25.25,0,0,1-.19.25l-2.75.39a.18.18,0,0,1-.2-.19V31a.25.25,0,0,1,.2-.24Zm-.13,1.38a.32.32,0,0,0,0-.42.23.23,0,0,0-.19-.06.31.31,0,0,0-.19.11L126,32.66l-.61-.58a.25.25,0,0,0-.2-.06.3.3,0,0,0-.19.11.32.32,0,0,0,0,.42l.8.75.19.06.19-.11,1.27-1.54" class="cls-21"></path><polygon points="153.62 37.03 153.62 39.35 130.83 42.55 130.83 40.23 153.62 37.03" class="cls-22"></polygon><path d="M127.58,40.16a.17.17,0,0,1,.19.18v3a.25.25,0,0,1-.19.25l-2.75.39a.18.18,0,0,1-.2-.19v-3a.25.25,0,0,1,.2-.24Zm-.13,1.38a.32.32,0,0,0,0-.42.23.23,0,0,0-.19-.06.31.31,0,0,0-.19.11L126,42.48l-.61-.57a.25.25,0,0,0-.2-.06A.3.3,0,0,0,125,42a.32.32,0,0,0,0,.42l.8.75.19.06.19-.11,1.27-1.54" class="cls-23"></path><path d="M116.11,47.49a.31.31,0,0,1,.26.08.43.43,0,0,1,0,.56l-1.24,1.51,1.23,1.16a.44.44,0,0,1-.27.71.31.31,0,0,1-.26-.08L114.35,50a.41.41,0,0,1,0-.56l1.5-1.83A.42.42,0,0,1,116.11,47.49Z" class="cls-24"></path><path d="M114.63,39a.32.32,0,0,1,.26.08l1.49,1.4a.44.44,0,0,1,0,.57l-1.5,1.82a.43.43,0,0,1-.26.15.31.31,0,0,1-.26-.08.41.41,0,0,1,0-.56l1.23-1.51-1.22-1.16a.41.41,0,0,1,0-.56A.42.42,0,0,1,114.63,39Z" class="cls-25"></path><path d="M75.45,19.24A1.63,1.63,0,0,1,77.29,21a2.28,2.28,0,0,1-1.84,2.24A1.63,1.63,0,0,1,73.6,21.5,2.3,2.3,0,0,1,75.45,19.24Z" class="cls-26"></path><path d="M82.15,18.3A1.63,1.63,0,0,1,84,20a2.28,2.28,0,0,1-1.84,2.24,1.63,1.63,0,0,1-1.85-1.73A2.3,2.3,0,0,1,82.15,18.3Z" class="cls-27"></path><path d="M88.85,17.36a1.63,1.63,0,0,1,1.84,1.74,2.29,2.29,0,0,1-1.84,2.24A1.63,1.63,0,0,1,87,19.61,2.3,2.3,0,0,1,88.85,17.36Z" class="cls-28"></path><rect transform="translate(373.58 98.57) rotate(153.53)" height="3.4" width="2.82" y="91.51" x="173.79" class="cls-29"></rect><path d="M176.12,91.62,173.27,93s-7.12-10.59-10.54-17.84a8.36,8.36,0,0,1-.77-4.32l1.17-17.93h4.2S176.2,90.57,176.12,91.62Z" class="cls-30"></path><path d="M176.56,92.22c.26-.16.75.13,1.21,1.16s.91,1.49.1,2-5.52,2.77-6.84,3.43c-.45.22-.57-.29-.61-.41-.17-.53-.17-1.46,1.2-2.32,1-.72,1.5-2.24,2-2.49s.9.12,1.64-.31A15.6,15.6,0,0,0,176.56,92.22Z"></path><rect transform="translate(344.03 194.67) rotate(-180)" height="3.4" width="2.82" y="95.63" x="170.6" class="cls-31"></rect><path d="M176.64,54.6s-1.23,12.57-2.3,15.68c0,0,2.21,8.82-.78,26h-3.19s-4.9-36.81-3.87-41.72Z" class="cls-32"></path><path d="M173.68,97.06c.3,0,.61.45.56,1.58s.15,1.74-.79,1.82-6.17,0-7.65,0c-.5,0-.38-.52-.36-.64.09-.55.49-1.38,2.11-1.54,1.19-.21,2.34-1.34,2.87-1.35s.75.5,1.61.45A15.6,15.6,0,0,0,173.68,97.06Z" class="cls-33"></path><rect transform="translate(338.5 51.05) rotate(-180)" height="6.53" width="3.54" y="22.26" x="167.48" class="cls-29"></rect><path d="M165,18.37s-.69,5.86.87,6.39c1.3.44,4.56-.83,5.2-1.91.77-1.3-.13-4.08-.13-4.08l-3.22-2.12-2.59.82Z" class="cls-31"></path><path d="M150.5,31c.54,1.22,1.06,1.37,1.27,1.38a.09.09,0,0,0,.09-.1,1,1,0,0,1,0-.46.19.19,0,0,1,.33-.07l1.28,1.45-2.53,2.36a12.27,12.27,0,0,1-1.64-2.86,1.72,1.72,0,0,1-.11-1,1,1,0,0,1,1-.86A.3.3,0,0,1,150.5,31Z" class="cls-34"></path><path d="M171,23.63s-.51.07-.58-1.06a.16.16,0,0,1,.1-.16,1.17,1.17,0,0,0,.68-1.66c-.4-1.17-1.33-.27-1.61.3a.06.06,0,0,1-.12,0c-.14-.91-.68-3.5-2.52-3.62-2.24-.14-1.88,1.83-1.88,1.83s-.31-.12-.28-1.58c0,0-.4.34-.2,1.24,0,0-.26-.06-.29-.69a2.43,2.43,0,0,1,.81-1.87,5.38,5.38,0,0,1,4.46-1.13,2.22,2.22,0,0,1,1.28.61,1.86,1.86,0,0,1,.42.62,2.16,2.16,0,0,1,1.95,2c.08,1.79-.44,3.08-1.2,3.6A2.77,2.77,0,0,0,171,23.63Z" class="cls-35"></path><path d="M162.69,29.86l-2.92,9.64a.58.58,0,0,1-1,.2l-5.29-6.51-2.62,2.32,7.8,9.75a1.3,1.3,0,0,0,1.76.25l6.49-4.56Z" class="cls-36"></path><path d="M167.48,26.53s.06,1.86,1,1.94S171,25.52,171,25.52s5.25,2.08,6.44,4.33h0l5.59,11.23a1.3,1.3,0,0,1-.25,1.5l-5.1,5.07V54.6H162.53V30.3S163,26.9,167.48,26.53Z" class="cls-37"></path><path d="M174.62,35.6l3,4.9a.74.74,0,0,1-.08.88l-5.81,6.49h0l5-6.9Z" class="cls-38"></path><path d="M168.71,52.18c1.22-.56,1.36-1.08,1.36-1.29a.09.09,0,0,0-.11-.08,1,1,0,0,1-.46,0,.19.19,0,0,1-.07-.33l1.44-1.3,2.39,2.49a12.27,12.27,0,0,1-2.84,1.67,1.72,1.72,0,0,1-1,.12,1,1,0,0,1-.88-1A.3.3,0,0,1,168.71,52.18Z" class="cls-34"></path><polygon points="177.71 47.66 177.71 49.23 174.39 50.96 177.71 47.66" class="cls-38"></polygon></g></g></svg>