<svg xmlns:xlink="http://www.w3.org/1999/xlink" xmlns="http://www.w3.org/2000/svg" version="1.1" viewBox="0 0 1024 1024" height="1024px" width="1024px">
    <title>图片加载失败</title>
    <defs>
        <linearGradient id="linearGradient-1" y2="-2.47145299e-14%" x2="50%" y1="100%" x1="50%">
            <stop offset="0%" stop-opacity="0.1" stop-color="#FFFFFF"></stop>
            <stop offset="13%" stop-opacity="0.19" stop-color="#FBFDFF"></stop>
            <stop offset="41%" stop-opacity="0.43" stop-color="#F1F7FF"></stop>
            <stop offset="81%" stop-opacity="0.82" stop-color="#E1EEFF"></stop>
            <stop offset="100%" stop-color="#D9E9FF"></stop>
        </linearGradient>
        <linearGradient id="linearGradient-2" y2="100%" x2="50%" y1="50%" x1="50%">
            <stop offset="0%" stop-color="#E4F0FF"></stop>
            <stop offset="100%" stop-opacity="0" stop-color="#FFFFFF"></stop>
        </linearGradient>
        <linearGradient id="linearGradient-3" y2="0.0703648757%" x2="50%" y1="100.221895%" x1="50%">
            <stop offset="0%" stop-opacity="0.1" stop-color="#FFFFFF"></stop>
            <stop offset="100%" stop-color="#D9E9FF"></stop>
        </linearGradient>
        <linearGradient id="linearGradient-4" y2="0.00693856876%" x2="50.0935971%" y1="100%" x1="50.0935971%">
            <stop offset="0%" stop-opacity="0.1" stop-color="#FFFFFF"></stop>
            <stop offset="14%" stop-opacity="0.27" stop-color="#F8FBFF"></stop>
            <stop offset="37%" stop-opacity="0.52" stop-color="#EDF5FF"></stop>
            <stop offset="58%" stop-opacity="0.73" stop-color="#E4F0FF"></stop>
            <stop offset="76%" stop-opacity="0.88" stop-color="#DEECFF"></stop>
            <stop offset="91%" stop-opacity="0.97" stop-color="#DAEAFF"></stop>
            <stop offset="100%" stop-color="#D9E9FF"></stop>
        </linearGradient>
        <linearGradient id="linearGradient-5" y2="-0.0811277354%" x2="49.9839796%" y1="99.9311993%" x1="49.9839796%">
            <stop offset="0%" stop-opacity="0.1" stop-color="#FFFFFF"></stop>
            <stop offset="9%" stop-opacity="0.13" stop-color="#FEFEFF"></stop>
            <stop offset="23%" stop-opacity="0.21" stop-color="#FBFCFF"></stop>
            <stop offset="40%" stop-opacity="0.33" stop-color="#F5F9FF"></stop>
            <stop offset="59%" stop-opacity="0.51" stop-color="#EEF5FF"></stop>
            <stop offset="79%" stop-opacity="0.74" stop-color="#E4EFFF"></stop>
            <stop offset="100%" stop-color="#D9E9FF"></stop>
        </linearGradient>
        <linearGradient id="linearGradient-6" y2="67.1799155%" x2="53.8616696%" y1="37.5956292%" x1="38.9906625%">
            <stop offset="0%" stop-color="#8FC5FE"></stop>
            <stop offset="100%" stop-color="#0478ED"></stop>
        </linearGradient>
        <linearGradient id="linearGradient-7" y2="67.1799155%" x2="53.8616696%" y1="27.8037249%" x1="46.024543%">
            <stop offset="0%" stop-color="#7FBDFD"></stop>
            <stop offset="100%" stop-color="#3798FC"></stop>
        </linearGradient>
        <linearGradient id="linearGradient-8" y2="27.3784603%" x2="67.4475856%" y1="41.3446503%" x1="32.074496%">
            <stop offset="0%" stop-color="#ECECEC"></stop>
            <stop offset="100%" stop-color="#0478ED"></stop>
        </linearGradient>
        <linearGradient id="linearGradient-9" y2="34.0473042%" x2="77.0727135%" y1="34.0473042%" x1="0%">
            <stop offset="0%" stop-color="#BBDBFE"></stop>
            <stop offset="100%" stop-color="#3798FC"></stop>
        </linearGradient>
        <linearGradient id="linearGradient-10" y2="91.4439886%" x2="50%" y1="0%" x1="50%">
            <stop offset="0%" stop-color="#B6D2FB"></stop>
            <stop offset="100%" stop-color="#C8E0FF"></stop>
        </linearGradient>
        <linearGradient id="linearGradient-11" y2="100%" x2="50%" y1="0%" x1="50%">
            <stop offset="0%" stop-color="#BDD7FC"></stop>
            <stop offset="100%" stop-color="#C7DFFE"></stop>
        </linearGradient>
        <linearGradient id="linearGradient-12" y2="42.8406116%" x2="70.9231618%" y1="52.6116465%" x1="2.7458096%">
            <stop offset="0%" stop-color="#143E81"></stop>
            <stop offset="100%" stop-color="#143E81"></stop>
        </linearGradient>
        <linearGradient id="linearGradient-13" y2="50.0081053%" x2="69.0277915%" y1="53.7049958%" x1="14.6627398%">
            <stop offset="0%" stop-color="#3E65A3"></stop>
            <stop offset="100%" stop-color="#143E81"></stop>
        </linearGradient>
        <linearGradient id="linearGradient-14" y2="33.1540016%" x2="26.4788126%" y1="54.0976605%" x1="36.9834497%">
            <stop offset="0%" stop-opacity="0" stop-color="#FFFFFF"></stop>
            <stop offset="100%" stop-color="#C1DDFD"></stop>
        </linearGradient>
    </defs>
    <g fill-rule="evenodd" fill="none" stroke-width="1" stroke="none" id="图片加载失败">
        <rect height="1024" width="1024" y="0" x="0" fill="#FFFFFF"></rect>
        <rect height="1024" width="1024" y="0" x="0" opacity="0" fill-rule="nonzero" fill="#D8D8D8" id="矩形"></rect>
        <ellipse ry="161" rx="511.5" cy="740" cx="511.5" fill-rule="nonzero" fill="url(#linearGradient-1)" id="椭圆形"></ellipse>
        <ellipse ry="26" rx="39.5" cy="715" cx="706.5" fill="url(#linearGradient-2)" id="椭圆形"></ellipse>
        <polygon points="199.689759 592 204 640 177 636.835786" fill-rule="nonzero" fill="#E4EFFF" id="路径"></polygon>
        <polygon points="200 592 230 629.885815 204.547188 640" fill-rule="nonzero" fill="#F3F8FF" id="路径"></polygon>
        <polygon points="99.4733067 605 105 666 71 661.931463" fill-rule="nonzero" fill="#E4EFFF" id="路径"></polygon>
        <polygon points="99 605 138 653.233212 105 666" fill-rule="nonzero" fill="#F3F8FF" id="路径"></polygon>
        <polygon points="147.629482 562 157 665 94 658.583983" fill-rule="nonzero" fill="#E4EFFF" id="路径"></polygon>
        <polygon points="147 562 214 642.944939 156.526873 665" fill-rule="nonzero" fill="#F3F8FF" id="路径"></polygon>
        <path fill-rule="nonzero" fill="url(#linearGradient-3)" id="路径" d="M167.226695,341.222807 C163.480576,321.746389 146.08963,307.737138 125.988877,308.003741 C115.19993,307.943587 104.784755,311.897648 96.822034,319.076764 C92.2984185,317.145972 87.4052017,316.20168 82.4772246,316.308508 C67.025185,316.043956 53.4620894,326.403184 49.8575214,341.222807 C37.9307462,343.823137 29.3304483,354.09619 29,366.137107 C29.4585953,380.789727 41.8172108,392.334144 56.6790255,391.992614 L160.320975,391.992614 C175.182789,392.334144 187.541405,380.789727 188,366.137107 C187.688822,354.117261 179.125664,343.847106 167.226695,341.222807 L167.226695,341.222807 Z"></path>
        <path fill-rule="nonzero" fill="url(#linearGradient-4)" id="路径" d="M767.894611,204.336433 C762.536654,196.115984 753.472954,191.013642 743.619099,190.670714 C737.903428,181.978635 728.08888,176.816394 717.637588,177.004996 C709.252264,176.915815 701.185414,180.190583 695.263843,186.087699 C692.550344,185.230902 689.721014,184.790673 686.873688,184.782234 C673.701145,184.782234 662.793945,193.837161 661.703226,205.280812 C651.661814,207.65777 644.431924,216.36957 644,226.612664 C644,238.945142 655.382644,249 669.170462,249 L765.82504,249 C779.808631,249 790.995504,238.945142 790.995504,226.612664 C791.247208,214.891255 780.899351,205.197484 767.894611,204.336433 Z"></path>
        <path fill-rule="nonzero" fill="url(#linearGradient-5)" id="路径" d="M948.379644,171.742851 C938.847302,152.167323 918.946836,139.710452 897.098611,139.643039 C884.929877,139.669114 873.093282,143.597853 863.342582,150.847162 C851.739988,128.313014 826.541826,116.167009 801.594253,121.083265 C776.646683,125.999521 757.994084,146.78691 755.885893,172.022954 C729.0491,180.455135 712.396536,207.114063 716.665047,234.811219 C720.93356,262.508375 744.847818,282.9685 772.988945,283 L931.867321,283 C960.171215,283.053292 984.230271,262.424683 988.379199,234.545632 C992.528127,206.666579 975.510913,179.976968 948.407776,171.854893 L948.379644,171.742851 Z"></path>
        <g fill-rule="nonzero" transform="translate(335.000000, 350.000000)" id="编组-9">
            <polygon points="259.099967 19 351 46.2756787 292.722634 324 178 280.979763 221.203476 225.429043 200.222597 110.648623" fill="url(#linearGradient-6)" id="路径-87"></polygon>
            <polygon points="251.099967 16 343 43.2756787 284.722634 321 170 277.979763 213.203475 222.429043 192.222597 107.648623" fill="url(#linearGradient-7)" id="路径-87备份"></polygon>
            <ellipse ry="32.5" rx="28.5" cy="102.5" cx="269.5" fill="#FFFFFF" id="椭圆形"></ellipse>
            <polygon points="8 3 194 3 155.174019 100.896592 194 211.598394 165.31859 286 8 286" fill="url(#linearGradient-8)" id="路径-15"></polygon>
            <polygon points="0 0 186 0 147.174019 97.8965917 186 208.598394 157.31859 283 0 283" fill="url(#linearGradient-9)" id="路径-15备份"></polygon>
            <polygon points="0 242.513646 111.330545 105 192 211.342735 163.037051 286 0 286" fill="url(#linearGradient-10)" id="路径-65"></polygon>
            <polygon points="288 294.61089 223.426116 173 202.568662 183.590461 210.193727 225.337694 167 279.249213 281.696747 321" fill="url(#linearGradient-11)" id="路径-88"></polygon>
        </g>
        <polygon points="904 605 899.151453 669 863 658.522625" fill-rule="nonzero" fill="#E4EFFF" id="路径"></polygon>
        <polygon points="903.81884 605 934 661.390417 899 669" fill-rule="nonzero" fill="#F3F8FF" id="路径"></polygon>
        <g fill-rule="nonzero" transform="translate(670.000000, 579.000000)" id="编组">
            <path fill="#FECCA9" id="路径" d="M16.0474968,112.410609 C16.0474968,112.410609 17.1206675,113.906348 14,119.322957 C18.7445442,121.007479 25,119.018001 25,119.018001 L24.6611038,110 L16.0474968,112.410609 Z"></path>
            <path fill="#003A8C" id="路径" d="M29,125.607417 L0.11985968,127 C0.11985968,127 -1.78676166,118.827366 9.60862637,118.616368 C11.914308,118.574169 13.6879092,116.014067 15.5797506,116 C20.1172138,119.530691 27.6106791,118.546036 27.6106791,118.546036 L29,125.607417 Z"></path>
            <polygon points="29 127.529412 16.6236834 129 16.0604671 127.10049 0.461311845 128.297904 0 127.10049 28.2634865 124" fill="#001529" id="路径"></polygon>
            <path fill="#FECCA9" id="路径" d="M47.0237087,12.3089146 C47.0237087,12.3089146 44.0719125,18.0170965 48.1930192,25.5241347 C49.1626915,26.9263929 50.9594371,29.348475 54.2534705,26.6997652 C54.5671881,26.5722872 54.8523858,26.997214 55.0092446,27.4079764 C55.1661032,27.8187388 57.4619448,35 57.4619448,35 L68,33.2011436 C68,33.2011436 59.8718654,15.8499704 59.3299897,12.2664219 C59.0305321,10.4250729 56.4922725,7.54973565 52.5565442,8.05964769 C48.6208159,8.5695597 47.0237087,12.3089146 47.0237087,12.3089146 Z"></path>
            <path fill="#003A8C" id="路径" d="M47.9253802,5.04229951 C47.9253802,5.04229951 46.5270602,3.22036425 43.8842355,5.21310595 C41.2414107,7.20584763 43.0871931,9.55443605 43.296941,10.1807263 C43.5066891,10.8070166 43.1990586,11.3906052 42.2901507,11.191331 C41.3672595,10.9920568 39.8151243,11.0205246 39.1019812,13.1840727 C38.388838,15.3476208 41.5350579,20.1871363 44.8211098,19.0626607 C48.1071617,17.938185 49.4914985,15.8600401 50.4982888,14.3939516 C51.5050791,12.9278631 53.5885758,11.0062907 54.1898534,12.4154438 C54.7911309,13.8388307 55.2385934,16.956048 55.839871,16.3724594 C56.399199,15.8315724 55.4763078,12.714355 57.3500564,12.3727422 C59.2238053,12.0311293 59.5594021,14.8067338 58.5945613,16.5005642 C58.1750652,17.2264916 58.1890486,17.0983867 58.4826958,17.7104431 C58.7763428,18.3224995 58.8043092,18.7637494 59.6153349,19.4042735 C60.4403435,20.0447976 60.7899236,20.4148783 61.1534868,19.2049994 C61.51705,17.9951205 62.2022268,15.6892337 60.8598396,11.305202 C60.4123773,10.0953231 60.7899236,9.93875053 61.3073021,9.11318612 C61.8246803,8.28762169 62.5518067,7.00657346 61.3352683,5.56895268 C60.1187301,4.13133189 59.2517717,4.48717862 58.0911662,4.75762213 C56.9305606,5.02806565 56.9025942,4.57258183 56.7627622,3.87512224 C56.6229303,3.16342879 55.2945263,0.587098461 52.9872983,1.05681614 C50.6800705,1.52653383 49.9109943,3.03532397 49.5194649,4.27367058 C49.1279353,5.5120172 48.3588593,5.34121078 47.9253802,5.04229951 Z"></path>
            <path fill="url(#linearGradient-12)" id="路径" d="M58,79.866516 C57.0001663,79.3708015 18.0923549,62.5873249 10.522186,69.7964302 C2.95201714,77.0196984 14.8357539,114 14.8357539,114 L25.3625738,113.26351 L23.9913733,87.9112541 L44.1594459,100.105831 L58,79.866516 Z"></path>
            <path fill="url(#linearGradient-13)" id="路径" d="M51.8989166,83.4577548 C51.8989166,83.4577548 11.4529482,109.500953 16.423245,124.113361 C16.423245,124.113361 17.5483265,130.735733 30.2090539,128.561867 C42.8697814,126.388002 63.3063886,118.729084 63.3063886,118.729084 L63.975741,108.521993 C63.975741,108.521993 80.6525821,108.953887 82.7460883,92.9738154 C85.2810821,73.5817825 68.3906177,73.7113507 51.8989166,83.4577548 Z"></path>
            <path fill="#003A8C" id="路径" d="M70.9846582,108 L71,133.113934 C71,133.113934 69.2357042,134.558231 67.3947001,134.908788 C65.4156205,135.28739 63.3751742,134.488119 63.743375,132.496953 C64.1115758,130.477742 66.5815898,128.738977 63.4211995,125.177314 C61.9177125,123.480616 60.2147838,121.910119 60,120.311577 C64.0041841,116.174999 63.2064156,109.03765 63.2064156,109.03765 L70.9846582,108 Z"></path>
            <path fill="#001529" id="路径" d="M72.692946,106 L74,118.65232 L71.719917,119.137816 C71.719917,119.137816 72.4896265,129.244959 72.373444,130.524903 C72.2572613,131.790135 69.8464729,134.541279 69.2946057,134.850231 C68.7427385,135.159183 67,134.894367 67,134.894367 C67,134.894367 70.6016597,130.966263 70.5,129.833439 C70.3983401,128.700615 68.4813278,106.58848 68.4813278,106.58848 L72.692946,106 Z"></path>
            <path fill="#F2B991" id="路径" d="M55.6334641,37.6903883 C55.6334641,37.6903883 40.9054118,49.7958798 35.1842409,55.2426209 C35.4148171,51.5773876 38.9455145,36.2155336 38.181731,32.5064928 C38.1673199,29.3377451 38.224964,27.5416348 36.3515327,26.3588304 C34.4781015,25.1760261 31.9849968,24.0078244 30.6880058,23.2192881 C29.46307,22.4745593 27.7913928,23.4529285 29.9242222,25.5556917 C31.3941452,27.015944 28.4975323,25.4826791 26.9843763,24.4166949 C25.4712201,23.3507109 23.741899,21.5692029 22.5601961,22.0948937 C21.1190951,22.7374048 22.5601961,27.7606728 25.7162075,29.5421805 C28.8722186,31.3236882 31.4373784,31.761764 31.4373784,34.9597165 C31.4373784,38.1576692 21.8972897,67.2897025 28.4398882,69.8159388 C34.9824867,72.3421753 60,48.0289745 60,48.0289745 L55.6334641,37.6903883 Z"></path>
            <path fill="#53A4FC" id="路径" d="M82.1590296,45.5529546 C82.1590296,45.5529546 77.3590036,23.0384209 64.3057985,27.6134895 C57.2132228,30.1102936 51.1522945,35.6811975 49.2179556,51.3259118 C48.5445191,59.1627015 50.0633334,70.9395343 49.6191517,77.1165986 C49.1606418,83.2936632 47.3982442,85.963656 53.0866332,87.7388402 C56.8120266,88.8934317 70.79658,97.451841 75.4819784,97.8415156 C80.9697694,98.3033523 85.956065,98.1734607 85.9990505,91.4912626 C86.0420357,83.7554997 84.6235205,57.5751381 82.1590296,45.5529546 Z"></path>
            <path fill="#003A8C" id="路径" d="M42.5074228,26.416977 C41.7088376,21.4087863 38.5285074,19.5837677 38.5285074,19.5837677 L38.5285074,17.0230827 L38.5285074,15.2122115 L38.5285074,15 L38.3603843,15.0282949 C38.3463739,15.0282949 38.3323637,15 38.3043431,15 L33.3727296,15 C33.2466372,15 33.1625757,15.099032 33.1625757,15.2122115 L33.1625757,16.2591214 L30.2064096,16.2591214 C29.6600091,16.2591214 29.2256909,16.6976918 29.2256909,17.2494416 L29.2256909,17.4333582 C29.2256909,17.985108 28.7913726,18.4236783 28.2449723,18.4236783 L17.3870163,18.4236783 C16.6164517,18.4236783 16,19.0461653 16,19.824274 L16,26.0067014 C16,26.7282205 16.5323901,27.3224124 17.2469137,27.3931498 L21.4499935,27.8317201 L38.2202816,31.6232315 C38.2202816,31.6232315 38.556528,25.5256888 38.3603843,22.0737155 C40.1677085,23.1630678 40.3778624,27.0253166 40.3778624,27.0253166 L41.3866017,33.4623976 L42.9977822,34 C42.983772,34 43.1098644,33.1935964 42.5074228,26.416977 Z"></path>
            <path fill="#FECCA9" id="路径" d="M54.1111759,41.6256344 C54.1111759,41.6256344 39.5709765,51.6060099 33.8950088,57.0339335 C34.1237632,53.3715442 36.7973299,37.204503 36.0538782,33.4983402 C36.039581,30.3320515 36.0967696,28.5373348 34.2381403,27.3554483 C32.3795113,26.1735617 29.9061047,25.0062662 28.6193614,24.218342 C27.4041038,23.4741911 25.7456346,24.4518009 27.8616126,26.5529327 C29.3199217,27.9974608 26.4461949,26.4799768 24.9449944,25.4148197 C23.4437937,24.3496626 21.7281361,22.5695372 20.55577,23.0948201 C19.1260552,23.7368326 20.55577,28.7562028 23.6868454,30.5363282 C26.8179208,32.3164536 29.3628131,32.7541895 29.3628131,35.9496605 C29.3628131,39.1451316 19.8981012,68.2545603 26.3890062,70.7788366 C32.8799113,73.3031129 58,53.3861353 58,53.3861353 L54.1111759,41.6256344 Z"></path>
            <path fill="#4096F4" id="路径" d="M49,45.5784428 L56.9856569,59 C56.9856569,59 73.1843202,49.0956223 66.2927836,39.9790928 C59.4012471,30.8625633 49,45.5784428 49,45.5784428 Z"></path>
            <path fill="#143E81" id="路径" d="M63,109 C63,109 39.7433129,114.130545 33,120 C42.347724,118.03422 63,109 63,109 Z"></path>
        </g>
        <polygon points="634.025743 685.238191 827 821.82004 487.637624 931 335 633 502.552965 635.106637" opacity="0.385356358" fill-rule="nonzero" fill="url(#linearGradient-14)" id="路径"></polygon>
    </g>
</svg>