<svg viewBox="0 0 1620 1028" xmlns="http://www.w3.org/2000/svg"><g id="a"></g><g id="b"><g id="c"><g><path fill="#ebf3fa" d="M113.41,1023.79c.07,.07,1413.42-.23,1413.42-.23,46.53-129.14,46.45-192.23,51.75-266.25,29.23-409.12-207.6-472.02-276.98-489.08C1089.16,215.99,1185.85-42.46,632.27,6.03c-50.74,4.44-170.37,40.33-211.59,63.57-28.92,16.29-137.86,89.19-169.83,212.5-10.1,38.92-12.52,82.86-2.34,131.63,36.03,172.57-57.9,162.65-126.53,244.89-91.61,109.76-82.03,289.25-8.56,365.17Z"></path><g><path fill="#b0d4ff" d="M955.31,1023.68h.19c1.14,0,2.06-1.22,2.03-2.71l-3.08-173.88-9.08-1.38,7.75,175.27c.07,1.51,1.03,2.7,2.19,2.7Z"></path><path fill="#95c0f4" d="M1008.24,1023.68h.19c1.14,0,2.06-1.22,2.03-2.71l-3.08-173.88-9.08-1.38,7.74,175.27c.07,1.51,1.03,2.7,2.19,2.7Z"></path><path fill="#b0d4ff" d="M862.19,1023.68h-.19c-1.14,0-2.06-1.22-2.03-2.71l3.08-173.88,9.08-1.38-7.74,175.27c-.07,1.51-1.03,2.7-2.19,2.7Z"></path><path fill="#b0d4ff" d="M1014.26,836.31v-119.15c0-20.97-13.06-37.96-29.18-37.96h-65.98c-16.11,0-29.18,17-29.18,37.96v123.7l124.33-4.55Z"></path><path fill="#95c0f4" transform="translate(1892.36 1691.42) rotate(180)" d="M892.75,836.31h121.51v18.81h-136.15v-4.17c0-8.08,6.56-14.64,14.64-14.64Z"></path><rect fill="#cae5ff" transform="translate(1822.06 1691.42) rotate(180)" ry="7.32" rx="7.32" height="18.81" width="109.33" y="836.31" x="856.36"></rect></g><g><rect fill="#95c0f4" height="427.2" width="380.35" y="209.19" x="704.57"></rect><g><rect fill="#dfedfb" height="411.57" width="365.71" y="216.31" x="711.81"></rect><g><polygon fill="#fff" points="839.63 395.38 759.49 395.38 759.49 265.18 773.08 249.24 839.63 249.24 839.63 395.38"></polygon><polygon fill="#b0d4ff" points="759.49 265.18 772.64 265.18 773.08 249.24 759.49 265.18"></polygon><rect fill="#b0d4ff" height="1.59" width="25.66" y="261.91" x="786.73"></rect><rect fill="#b0d4ff" height="1.59" width="37.74" y="266.68" x="780.69"></rect><rect fill="#b0d4ff" height="2.04" width="62.66" y="297.32" x="768.98"></rect><rect fill="#b0d4ff" height="2.04" width="62.66" y="303.52" x="768.98"></rect><rect fill="#b0d4ff" height="2.04" width="62.66" y="309.73" x="768.98"></rect><rect fill="#b0d4ff" height="2.04" width="62.66" y="315.94" x="768.98"></rect><rect fill="#b0d4ff" height="2.04" width="62.66" y="382.37" x="768.98"></rect></g><g><polygon fill="#fff" points="932.16 576.02 852.02 576.02 852.02 445.82 865.61 429.88 932.16 429.88 932.16 576.02"></polygon><polygon fill="#b0d4ff" points="852.02 445.82 865.17 445.82 865.61 429.88 852.02 445.82"></polygon><rect fill="#b0d4ff" height="1.59" width="25.66" y="442.56" x="879.26"></rect><rect fill="#b0d4ff" height="1.59" width="37.74" y="447.33" x="873.22"></rect><rect fill="#b0d4ff" height="2.04" width="62.66" y="477.96" x="861.51"></rect><rect fill="#b0d4ff" height="2.04" width="62.66" y="484.17" x="861.51"></rect><rect fill="#b0d4ff" height="2.04" width="62.66" y="490.37" x="861.51"></rect><rect fill="#b0d4ff" height="2.04" width="62.66" y="496.58" x="861.51"></rect><rect fill="#b0d4ff" height="2.04" width="62.66" y="515.68" x="861.51"></rect><rect fill="#b0d4ff" height="2.04" width="62.66" y="521.89" x="861.51"></rect><rect fill="#b0d4ff" height="2.04" width="62.66" y="529.09" x="861.51"></rect></g><g><rect fill="#b0d4ff" height="50.76" width="44.25" y="249.24" x="933.13"></rect><path fill="#ffa412" d="M953.32,255.28c0-1.39,.87-2.52,1.94-2.52s1.94,1.13,1.94,2.52-.87,2.52-1.94,2.52-1.94-1.13-1.94-2.52Z"></path></g><g><polygon fill="#fff" points="931.83 319.96 975.97 315.95 978.69 366.59 934.54 370.6 931.83 319.96"></polygon><path fill="#b0d4ff" d="M952.46,327.3c-.08-1.39,.73-2.59,1.8-2.69,1.07-.1,1.99,.95,2.07,2.34s-.73,2.59-1.8,2.69-1.99-.95-2.07-2.34Z"></path></g><g><polygon fill="#fff" points="784.78 506.96 828.92 502.95 831.64 553.59 787.5 557.6 784.78 506.96"></polygon><path fill="#b0d4ff" d="M805.41,514.3c-.07-1.39,.73-2.59,1.8-2.69,1.07-.1,1.99,.95,2.07,2.34,.07,1.39-.73,2.59-1.8,2.69-1.07,.1-1.99-.95-2.07-2.34Z"></path></g><g><polygon fill="#fff" points="729.13 539.97 773.38 539.38 773.78 590.14 729.53 590.73 729.13 539.97"></polygon><path fill="#b0d4ff" d="M749.39,548.89c-.01-1.39,.85-2.53,1.92-2.55,1.07-.01,1.95,1.1,1.96,2.49,.01,1.39-.85,2.53-1.92,2.55-1.07,.01-1.95-1.1-1.96-2.5Z"></path></g><g><polygon fill="#eef6ff" points="999.41 346.61 1042.97 356.74 1036.1 406.71 992.54 396.58 999.41 346.61"></polygon><path fill="#78acea" d="M1018.6,358.06c.16-1.19,1.04-1.98,1.95-1.77s1.53,1.35,1.36,2.54-1.04,1.98-1.95,1.77c-.92-.21-1.53-1.35-1.36-2.54Z"></path></g><g><polygon fill="#eef6ff" points="863.04 321.14 907.03 314.94 911.23 365.41 867.24 371.6 863.04 321.14"></polygon><path fill="#78acea" d="M883.93,325.11c-.1-1.2,.57-2.28,1.49-2.41,.93-.13,1.76,.74,1.86,1.94,.1,1.2-.57,2.28-1.49,2.41-.93,.13-1.76-.74-1.86-1.94Z"></path></g><g><polygon fill="#bae8e3" points="748.89 446.94 792.17 434.93 800.31 484.57 757.03 496.58 748.89 446.94"></polygon><path fill="#ffa412" d="M770.72,449.48c-.78-.66-1-2.02-.5-3.03,.51-1.02,1.55-1.31,2.33-.65,.78,.66,1,2.02,.5,3.03-.51,1.02-1.55,1.31-2.33,.65Z"></path></g><g><g><polygon fill="#fff" points="908.19 300 866.08 300 866.08 263.18 877.74 249.24 908.19 249.24 908.19 300"></polygon><polygon fill="#b0d4ff" points="865.85 263.18 877.36 263.18 877.74 249.24 865.85 263.18"></polygon></g><path fill="#b0d4ff" d="M887.29,253.94c0-.99,.62-1.8,1.38-1.8s1.38,.81,1.38,1.8-.62,1.8-1.38,1.8-1.38-.81-1.38-1.8Z"></path></g><g><g><polygon fill="#fff" points="1031.25 601.4 989.14 601.4 989.14 564.58 1000.8 550.64 1031.25 550.64 1031.25 601.4"></polygon><polygon fill="#b0d4ff" points="988.91 564.58 1000.42 564.58 1000.8 550.64 988.91 564.58"></polygon></g><path fill="#b0d4ff" d="M1010.35,555.34c0-.99,.62-1.8,1.38-1.8s1.38,.81,1.38,1.8-.62,1.8-1.38,1.8-1.38-.81-1.38-1.8Z"></path></g><g><g><polygon fill="#fff" points="1050.47 528.33 1008.35 528.33 1008.35 491.51 1020.01 477.57 1050.47 477.57 1050.47 528.33"></polygon><polygon fill="#b0d4ff" points="1008.12 491.51 1019.63 491.51 1020.01 477.57 1008.12 491.51"></polygon></g><path fill="#b0d4ff" d="M1029.56,482.27c0-.99,.62-1.8,1.38-1.8s1.38,.81,1.38,1.8-.62,1.8-1.38,1.8-1.38-.81-1.38-1.8Z"></path></g><g><g><polygon fill="#bae8e3" points="994.89 528.33 952.77 528.33 952.77 491.51 964.43 477.57 994.89 477.57 994.89 528.33"></polygon><polygon fill="#a1d6ce" points="952.54 491.51 964.05 491.51 964.43 477.57 952.54 491.51"></polygon></g><path fill="#f99746" d="M973.98,482.27c0-.99,.62-1.8,1.38-1.8s1.38,.81,1.38,1.8-.62,1.8-1.38,1.8-1.38-.81-1.38-1.8Z"></path></g><g><g><polygon fill="#bae8e3" points="1062.35 287.29 1020.23 287.29 1020.23 250.47 1031.9 236.53 1062.35 236.53 1062.35 287.29"></polygon><polygon fill="#a1d6ce" points="1020.01 250.47 1031.51 250.47 1031.9 236.53 1020.01 250.47"></polygon></g><path fill="#f99746" d="M1041.45,241.23c0-1,.62-1.8,1.38-1.8s1.38,.81,1.38,1.8-.62,1.8-1.38,1.8-1.38-.81-1.38-1.8Z"></path></g></g></g><g><rect fill="#c0d8fb" ry="11.93" rx="11.93" height="118.01" width="93.49" y="80.85" x="559.06"></rect><path fill="#dfebfd" d="M574,85.96h63.6c6.01,0,10.9,4.88,10.9,10.9v85.99c0,6.01-4.88,10.9-10.9,10.9h-63.6c-6.01,0-10.9-4.88-10.9-10.9V96.86c0-6.01,4.88-10.9,10.9-10.9Z"></path><g><g><path fill="#b7d3f3" d="M603.86,96.73c0-1.39,.87-2.52,1.94-2.52s1.94,1.13,1.94,2.52-.87,2.52-1.94,2.52-1.94-1.13-1.94-2.52Z"></path><path fill="#b7d3f3" d="M619.49,100.3c.52-1.22,1.7-1.65,2.63-.98,.93,.68,1.27,2.21,.75,3.43-.52,1.22-1.7,1.65-2.63,.98-.93-.68-1.27-2.21-.75-3.43Z"></path><path fill="#b7d3f3" d="M632.88,114.13c.9-.75,2.1-.42,2.68,.75,.58,1.17,.32,2.73-.58,3.48-.9,.75-2.1,.42-2.68-.75-.58-1.17-.32-2.73,.58-3.48Z"></path><path fill="#b7d3f3" d="M639.51,135.55c1.07,0,1.94,1.13,1.94,2.52s-.87,2.52-1.94,2.52-1.94-1.13-1.94-2.52,.87-2.52,1.94-2.52Z"></path><path fill="#b7d3f3" d="M636.12,160.41c.76,.98,.76,2.58,0,3.56-.76,.98-1.98,.98-2.74,0-.76-.98-.76-2.58,0-3.56,.76-.98,1.98-.98,2.74,0Z"></path><path fill="#b7d3f3" d="M623.96,176.28c.76,.98,.76,2.58,0,3.56-.76,.98-1.98,.98-2.74,0-.76-.98-.76-2.58,0-3.56,.76-.98,1.98-.98,2.74,0Z"></path><path fill="#b7d3f3" d="M603.86,184.45c0-1.39,.87-2.52,1.94-2.52s1.94,1.13,1.94,2.52-.87,2.52-1.94,2.52-1.94-1.13-1.94-2.52Z"></path></g><g><path fill="#b7d3f3" d="M592.05,100.3c-.52-1.22-1.7-1.65-2.63-.98-.93,.68-1.27,2.21-.75,3.43,.52,1.22,1.7,1.65,2.63,.98,.93-.68,1.27-2.21,.75-3.43Z"></path><path fill="#b7d3f3" d="M578.66,114.13c-.9-.75-2.1-.42-2.68,.75-.58,1.17-.32,2.73,.58,3.48,.9,.75,2.1,.42,2.68-.75,.58-1.17,.32-2.73-.58-3.48Z"></path><path fill="#b7d3f3" d="M572.03,135.55c-1.07,0-1.94,1.13-1.94,2.52s.87,2.52,1.94,2.52,1.94-1.13,1.94-2.52-.87-2.52-1.94-2.52Z"></path><path fill="#b7d3f3" d="M575.42,160.41c-.76,.98-.76,2.58,0,3.56,.76,.98,1.98,.98,2.74,0s.76-2.58,0-3.56c-.76-.98-1.98-.98-2.74,0Z"></path><path fill="#b7d3f3" d="M587.58,176.28c-.76,.98-.76,2.58,0,3.56,.76,.98,1.98,.98,2.74,0,.76-.98,.76-2.58,0-3.56-.76-.98-1.98-.98-2.74,0Z"></path></g></g><g><path fill="#b7d3f3" d="M605.28,138.07c0-1.39,.87-2.52,1.94-2.52s1.94,1.13,1.94,2.52-.87,2.52-1.94,2.52-1.94-1.13-1.94-2.52Z"></path><rect fill="#b7d3f3" height="31.48" width=".53" y="106.6" x="606.95"></rect><polygon fill="#b7d3f3" points="607.46 138.84 606.48 137.22 619.31 124.12 620.29 125.74 607.46 138.84"></polygon></g></g><g><g><path fill="#ffb27d" d="M1139.05,1017.46c-.38,6.77-7.72,6.84-16.05,5.58-8.33-1.26-6.12,1.49-17.78,1.7-11.66,.21-15.68-4.8-16.25-6.97-.5-1.92,5.11-3.54,11.12-5.45,.76-.24,1.51-.48,2.27-.73,6.78-2.24,11.26-8.84,17.06-14.6,5.49-5.46,12.57-25.21,12.57-25.21l15.93-.94s-6.71,17.71-9.23,25.34c-1.48,4.49-.85,10.01-.21,14.24,.34,2.3,.69,4.66,.55,7.04Z"></path><path fill="#233862" d="M1123,1023.04c-8.33-1.26-6.12,1.49-17.78,1.7-11.66,.21-15.68-4.8-16.25-6.97-.5-1.92,5.11-3.54,11.12-5.45l.07,.14s7.51,5.24,17.11,3.99c7.83-1.02,15.82-5.27,21.22-6.03,.34,2.3,.69,4.66,.55,7.04-.38,6.77-7.72,6.84-16.05,5.58Z"></path></g><g><path fill="#ffb27d" d="M1249.09,1018.86c-.38,6.77-7.72,6.85-16.05,5.61-8.33-1.25-6.11,1.49-17.78,1.72-11.66,.23-15.69-4.78-16.25-6.95-.5-1.92,5.11-3.55,11.12-5.46,.76-.24,1.51-.49,2.27-.74,6.77-2.25,11.26-8.85,17.05-14.62,5.49-5.47,0-37.82,0-37.82l17.53-2.22s-.84,27.24-.83,39.63c0,4.89,1.73,9.59,2.38,13.82,.35,2.3,.69,4.66,.56,7.04Z"></path><path fill="#233862" d="M1233.04,1024.47c-8.33-1.25-6.11,1.49-17.78,1.72-11.66,.23-15.69-4.78-16.25-6.95-.5-1.92,5.11-3.55,11.12-5.46l.07,.14s7.51,5.24,17.12,3.97c7.83-1.03,15.81-5.29,21.21-6.06,.35,2.3,.69,4.66,.56,7.04-.38,6.77-7.72,6.85-16.05,5.61Z"></path></g><path fill="#a9453d" d="M1197.95,459.65c-3.02-16.14,1.36-23.66,5.3-27.67,1.87-5.94,4.01-10.23,6.19-11.84,3.98-2.95,8.76-3.27,12.09-3.01-.86-1.15-2.55-1.58-2.55-1.58,2.07-.4,6.69,2.27,6.69,2.27,28.8-14.44,33.32,40.73,32.72,53.55-.6,12.82-.52,27.91,14.46,38.01,28.59,19.27-9.5,91.88-9.5,91.88,.73-10.36-36-65.01-55.16-81.38-4.67-8.94-6.32-24.72-6.45-25.96,.81,12.52,2.45,19.54,3.92,23.49-8.73-10.46-10.03-35.57-7.72-57.76Z"></path><path fill="#ffb27d" d="M1209.32,520.69c-.1,.06,9.25,6.37,16.28,3.87,6.61-2.35,10.94-13.5,10.84-13.53-2.8-.72-3.61-5.73-3.55-27.25l-1.27,.32-21.29,5.49s.48,8.72,.5,16.93c.01,6.9-.31,13.44-1.52,14.17Z"></path><path fill="#ed975d" d="M1210.34,489.59s.48,8.72,.5,16.93c11.91-.44,18.21-14.58,20.79-22.42l-21.29,5.49Z"></path><path fill="#2a4e96" d="M1123.72,982.75c-1.04,4.26,1.3,8.65,4.73,8.85l8.32,.51,8.8,.35c2.2,.09,4.3-1.16,5.7-3.38,7.02-11.21,28.65-48.59,41.76-102.89,.37-1.52,.76-3.06,1.17-4.62,8.66-32.86,26.62-74.11,36.08-111.45,1.51-5.95,2.86-11.54,4.07-16.84,.39-1.7,.77-3.36,1.13-5,6.97-31.53,8.99-52.23,10.85-74.35l-68.33,.71s-14.39,145.49-54.29,308.11Z"></path><path fill="#fff" d="M1187.57,623.54c.17,42.31-4.77,60.46-4.77,60.46,0,0,29.26,19.34,64.03,5.1,.41-.17,28.79-8.6,28.79-8.6-.58-1.71-5.76-30.23-6.32-31.8-7.34-20.51-12.92-29.51-13.79-35.82-1.62-11.77-1.65-23.96-.85-35.45,2.12-30.42,8.43-55.67,8.43-55.67-9.47-2.8-18.35-7.73-28.21-12.54-2.27,3.68-9.2,7.52-15.22,7.34-6.93-.2-9.17-4.06-8.81-8.27-7.38,5.34-13.27,10.39-13.27,10.39-6.27,14.18-19,27.95-19.92,49.7-.23,5.35,9.9,53.95,9.9,55.14Z"></path><path fill="#5f9aa8" d="M1246.34,628.26c2.99,5.5,8.71,38.93,22.96,43.14-7.34-23.83-12.92-34.28-13.79-41.6-1.62-13.68-1.65-27.83-.85-41.17-4.77-10.88-8.33-18.33-8.33-18.33-.37-1.76-7.58-30.75-9.89-4.84-2.3,25.92,6.55,56.66,9.89,62.81Z"></path><path fill="#ffb27d" d="M1206.36,497.37s28.19,.61,28.21-22.24c.02-22.85,3.67-38.15-14.33-39.51-18-1.35-21.5,7.36-22.93,14.98-1.43,7.62,1.72,46.02,9.05,46.76Z"></path><path fill="#a9453d" d="M1207.41,435.06s7.72,26.8,19.56,30.77c11.84,3.96,16.98-.17,16.98-.17,0,0-9.09-9.39-10.97-25.78,0,0-19.75-17.57-25.57-4.82Z"></path><path fill="#a9453d" d="M1209.32,437.24s-5.76,5.98-7.17,11.8c-1.41,5.82-2.04,17.79-4.72,17.39,0,0-5.81-18.22,.72-28.52,6.93-10.93,11.17-.66,11.17-.66Z"></path><polygon fill="#ffb27d" points="1162.01 652.91 1148.7 705.72 1156.29 709.69 1178.3 663.02 1162.01 652.91"></polygon><path fill="#f99746" d="M1197.91,515.6s-15.7,8.11-20.24,20.74c-4.54,12.64-11.42,97.4-14.16,106.11-2.74,8.71-4.8,15.6-4.8,15.6,0,0,7.92,8.68,15.88,9.32,7.96,.64,23.33-151.76,23.33-151.76Z"></path><path fill="#f99746" d="M1210.86,508.32s-16.31,52.42-16.79,63.03c-.48,10.61-1.92,173.49-1.92,173.49,0,0,.96,7.49-10.07,4.37-11.03-3.12-13.91-6.24-13.91-6.24,0,0,10.55-100.47,7.67-135.42-2.88-34.95,22.06-91.95,22.06-91.95l12.95-7.28Z"></path><path fill="#1e3d70" d="M1136.77,992.11l9.56,.38c1.71,.07,3.34-.89,4.43-2.6,6.42-10.12,28.82-48,42.27-103.69,.37-1.52,.76-3.06,1.17-4.62,8.66-32.86,26.62-74.11,36.08-111.45,1.51-5.95,2.86-11.54,4.07-16.84,.39-1.7,.77-3.36,1.13-5l-10.06-9.94s-30.21,63.65-39.57,123.56c-8.13,52.03-40.66,114.65-49.09,130.22Z"></path><path fill="#2a4e96" d="M1224.37,867.47c-.16,27.56,.84,88.99,3.42,119.01,.24,2.75,2.02,4.82,4.15,4.82h7.13c3.01,0,5.25-.03,6.75-.06,1.29-.02,2.4-1.23,2.65-2.88,7.09-46.95,12.17-85.95,15.88-119.65,3.11-28.21,5.87-52.39,8-73.21,2.14-20.95,3.63-38.49,4.16-53.31,.08-2.33,.14-4.61,.18-6.81,.03-2.22,.04-4.37,.03-6.46l-59.04-7.49c.74,51.04,6.81,129.1,6.72,146.03Z"></path><path fill="#1e3d70" d="M1239.06,991.3c2.7,0,4.79-.02,6.27-.05,1.57-.03,2.91-1.49,3.22-3.5,7.04-46.68,12.09-85.49,15.79-119.04,3.11-28.21,5.87-52.39,8-73.21,2.14-20.95,3.63-38.49,4.16-53.31l-21.66,16.58s13.83,6.35,8.55,54.4c-5.28,48.05-16.97,171.32-24.31,178.13Z"></path><path fill="#f99746" d="M1236.28,741.72s4.16,19.55,18.55,17.06c14.39-2.5,34.85-13.73,34.85-13.73,0,0-6.15-25.28-13.79-58.49-9.26-40.21-20.72-92.04-26.12-124.74-1.52-9.16-2.55-16.81-2.94-22.29l-11.94-30.14s-17.8,51.98-18.76,65.08c-.96,13.11,20.14,167.25,20.14,167.25Z"></path><path fill="#ffb27d" d="M1250.64,572.52l-15.76-63.13s19.9,7.69,29.89,14.25c0,0,6.24,10.47,10.11,34.63,0,0,4.08,58.01-5.03,79.23,0,0-28.78,7.49-74.82-13.11v-13.73s50.36,3.43,60.67,4.99l-5.06-43.14Z"></path><path fill="#ed7d2b" d="M1236.91,601.93c.64,21.22,4.48,62.41,38.69,84.45,.09,.06,.18,.12,.27,.17-9.26-40.21-20.72-92.04-26.12-124.74-6.28,12.22-13.2,28.43-12.85,40.11Z"></path><path fill="#f99746" d="M1234.89,509.39s29.21,2.68,36.24,23.06c7.03,20.39,9.27,88.2,.32,108.17,0,0-12.33,4.57-34.13-.74-.27-.06-.54-.13-.81-.2,0,0-6.95-22.15-.72-26.52,0,0,18.39,1.25,16.47-6.66-1.92-7.9-17.38-97.12-17.38-97.12Z"></path><g><path fill="#a9453d" d="M1161.66,619.15l.86,3.6,47.93-19.4s.64-.95,.32-2.21c-.35-1.39-1.18-1.39-1.18-1.39l-47.93,19.4Z"></path><polygon fill="#a9453d" points="1158.19 622.55 1161.66 619.15 1162.52 622.75 1158.19 622.55"></polygon></g><path fill="#ffb27d" d="M1150.59,704.28s-12.16,8.74-13.76,15.4c-1.6,6.66-.5,20.61,1.43,20.4,1.93-.21,4.81-14.99,6.41-16.03,1.6-1.04,3.84-4.16,3.84-1.87s-1.6,6.45-.8,7.08c.8,.62,3.36-5.83,5.12-7.08,1.76-1.25,2.5-11.54,4.21-14.31,1.71-2.76-6.45-3.6-6.45-3.6Z"></path><path fill="#ffb27d" d="M1195.03,610.67s-10.87-8.71-15.43-7.37c-4.56,1.34-16.19,12.29-10.59,14.67,5.59,2.37,10.12-.12,12.27,1.61,2.15,1.72,3.74,4.87,13.76,4.83,10.02-.04,0-13.73,0-13.73Z"></path></g><g><path fill="#163560" d="M339.97,517.06c-1.82-4.57,39.76-21.04,40.42,24.09,0,0,77.9-2.49,40.71-58.99-12.88-19.56-11.55-35.73-11.17-50.78,.39-15.06-8.02-58.81-36.86-54.4,0,0-7.55-4-16.98,2.36-21.43,14.47-69.44,154.36-16.13,137.72Z"></path><path fill="#ffb27d" d="M467.33,567.53s5.07-10.04,9.16-10.24c4.09-.2,11.66-2.95,11.05-.99-.61,1.97-5.3,2.17-5.75,3.35-.45,1.18,6.96,2.95,9.08,3.15,2.12,.2,7.11,0,6.96,1.38-.15,1.38-9,7.09-15.25,6.3-6.25-.79-13.97,2.36-13.97,2.36l-1.29-5.32Z"></path><path fill="#b0d0ff" d="M394,570.78s2.76,7.1,7.76,15.26c6.03,9.82,15.32,21.16,26.98,23.4,5.57,1.07,11.02-.49,16.03-3.39,.01,0,.02,0,.02,0,14.17-8.18,24.82-27,24.82-27,2.5-8.86-1.59-14.87-1.59-14.87,0,0-28.61,8.37-31.33,6.6-2.72-1.77-18.62-61.35-22.4-68.83-3.79-7.49-16.68-11.37-16.68-11.37l-3.6,80.21Z"></path><path fill="#98baf4" d="M401.75,586.04c6.03,9.82,15.32,21.16,26.98,23.4,5.57,1.07,11.02-.49,16.03-3.39-.55,.09-14.7,2.37-20.34-10.76-5.75-13.39-11.97-34.66-20.52-27.57-3.69,3.06-3.52,10.66-2.15,18.32Z"></path><path fill="#233862" d="M287.27,972.58s-8.73,10.37-7.03,17.73c1.7,7.36,9.58,12.27,10.65,21.28,1.06,9,5.32,13.91,9.16,13.91h18.27s2.82-6.33-3.99-8.24c-6.81-1.91-9.38-12.49-8.96-22.31,.43-9.82-.64-22.91-.64-22.91l-14.48-4.36-2.98,4.91Z"></path><path fill="#233862" d="M361.15,976.98s-3.14,43.91,.69,46.37l49.05-.13s0-7.37-7.88-9c-7.88-1.64-21.72-7.64-24.06-21-2.34-13.37-17.8-16.23-17.8-16.23Z"></path><path fill="#ffb27d" d="M326.2,661.95c10.09-29.45,16.27-37.9,15.09-47.04-.88-6.8,2.67-126.85,2.67-126.85,1.2-.48,3.6-.92,4.91-1.29,4.14-1.2,7.57-4.98,8.99-10.18,1.72-6.26,3.08-15.5,3.05-27.09l1.29,.33,21.74,5.6s-.49,8.9-.51,17.29c0,.07,0,.14,0,.21-.03,7.28,3.65,13.71,9.02,15.73,2.75,1.03,5.13,1.91,5.13,1.91,0,0,7.98,29.65,9.51,60.11,1.52,30.46-14.52,43.7,.12,104.57,14.94,62.17-86.6,22.97-81.02,6.69Z"></path><path fill="#e8945b" d="M383.95,455.43s-.49,8.9-.51,17.29c-12.16-.45-18.59-14.88-21.23-22.89l21.74,5.6Z"></path><path fill="#ffb27d" d="M388.01,463.37s-28.78,.62-28.8-22.71c-.02-23.33-3.75-38.96,14.63-40.34,18.38-1.38,21.95,7.52,23.42,15.3s-1.76,46.99-9.24,47.75Z"></path><path fill="#163560" d="M386.94,399.76s-7.88,27.37-19.97,31.41c-12.09,4.05-17.34-.17-17.34-.17,0,0,9.28-9.59,11.2-26.33,0,0,20.17-17.94,26.11-4.92Z"></path><path fill="#163560" d="M384.99,401.98s5.84,2.84,8.25,8.39c2.35,5.42,4.36,12.6,3.89,21.42,0,0,5.94-18.6-.74-29.12-7.08-11.16-11.4-.68-11.4-.68Z"></path><path fill="#ebf3fa" d="M381.75,448.9s1.99,3.4,5.96,3.15c3.2-.2,4.43-3.81,4.43-3.81,0,0-5.88-1.84-10.39,.65Z"></path><path fill="#b0d0ff" d="M323.42,541.16s-.73,13.41,0,29.5c.49,10.66,8.78,24.95,9.95,28.48,2.95,8.86,6.28,10.3,6.28,10.3l25.75,8.21,9.05,2.88,28.55-11.1s13.01-47.23,7.78-73.82c-5.22-26.59-13.2-45.05-13.2-45.05,0,0-23.3,29.68-53.64-2.52l-20.54,53.1Z"></path><path fill="#f2ccaa" d="M330.96,575.01c.49,10.66,1.24,20.6,2.42,24.13,2.95,8.86,6.28,10.3,6.28,10.3l25.75,8.21,11.18-4.28s-37.34-7.36-33.2-49.16l-12.43,10.79Z"></path><path fill="#ed7d2b" d="M401.2,616.61s14.14,57.27,15.05,76.77-27.03,276.98-28.15,285.97c-1.06,8.47-9.14,13.87-9.14,13.87,0,0-3.72,2.85-9.02,.9-7.36-2.7-9.69-5.94-9.69-5.94,0,0-11.01-183.64-4.19-249.23,6.81-65.6,6.89-122.33,6.89-122.33h38.26Z"></path><path fill="#f99746" d="M341.29,614.9s-21.57,37.66-23.58,63.11c-2.01,25.46-3.15,114.87-7.44,139.68-4.28,24.82-20.02,72.57-20.02,149.97,0,0,1.64,4.44,6.69,6.8,1.62,.76,3.78,1.49,5.88,2.12,4.17,1.24,8.44-1.41,10.34-6.39,10.64-27.88,44.54-117.79,46.28-136.45,1.23-13.21,11.93-100.62,35.28-151.92,5.6-12.31-3.44-61.29-3.44-61.29l-49.98-5.63Z"></path><path fill="#fff" d="M382.39,449.53s.5,2.75,5.75,2.33c0,0,4.41-.36,4.28-3.38,0,0-4.28-2.15-10.03,1.05Z"></path><path fill="#233862" d="M403.46,607.77s-5.68,5.84-16.95,6.14c-13.47,.35-46.85-4.47-46.85-4.47,0,0-1.48,5.39-1.42,11.08,0,0,40.77,13.38,64.38,1.95,0,0,3.05-7.46,.84-14.71Z"></path><path fill="#fff" d="M383.59,619.96c0-4.99,2.76-9.05,6.15-9.05s6.15,4.06,6.15,9.05-2.76,9.05-6.15,9.05-6.15-4.06-6.15-9.05Zm2.04,0c0,3.53,1.84,6.4,4.11,6.4s4.11-2.87,4.11-6.4-1.84-6.4-4.11-6.4-4.11,2.87-4.11,6.4Z"></path><polygon fill="#b5453c" points="295.77 618.13 337.54 665.45 387.32 591.06 345.55 543.75 295.77 618.13"></polygon><path fill="#ffb27d" d="M349.08,618.3s15.3,2.33,15.25,7.05c-.05,4.73-3.81,14.44-5.7,14.87-1.89,.43-12.45-13.13-12.45-13.13l2.9-8.79Z"></path><path fill="#b0d0ff" d="M343.96,488.05s-20.43,1.86-28.26,26.63c-7.83,24.77-22.69,66.36-22.69,73.36s8.3,28.56,52.88,40.97c0,0,4.61-6.31,4.33-11.3,0,0-27.83-31.1-27.75-34.73,.14-6.87,4.56-15.95,28.99-47.75,6.64-8.65-7.5-47.18-7.5-47.18Z"></path></g><g><g><path fill="#b0d4ff" d="M569.68,1024.14h-.19c-1.14,0-2.06-1.22-2.03-2.71l3.08-173.88,9.08-1.38-7.75,175.27c-.07,1.51-1.03,2.69-2.19,2.69Z"></path><path fill="#95c0f4" d="M516.76,1024.14h-.19c-1.14,0-2.06-1.22-2.03-2.71l3.08-173.88,9.08-1.38-7.75,175.27c-.07,1.51-1.03,2.69-2.19,2.69Z"></path><path fill="#b0d4ff" d="M662.8,1024.14h.19c1.14,0,2.06-1.22,2.03-2.71l-3.08-173.88-9.08-1.38,7.75,175.27c.07,1.51,1.03,2.69,2.19,2.69Z"></path><path fill="#b0d4ff" d="M510.74,836.77v-119.15c0-20.97,13.06-37.96,29.18-37.96h65.98c16.11,0,29.18,17,29.18,37.96v123.7l-124.33-4.55Z"></path><path fill="#95c0f4" d="M510.74,836.77h136.15v18.81h-121.51c-8.08,0-14.64-6.56-14.64-14.64v-4.17h0Z"></path><rect fill="#b0d4ff" ry="7.32" rx="7.32" height="18.81" width="109.33" y="836.77" x="559.3"></rect></g><g><path fill="#233862" d="M658.41,807.08c-9.45,21.4-21.34,29.67-21.34,29.67h-49.46s78.01-45.99,70.8-29.67Z"></path><g><path fill="#ffb27d" d="M620.43,972.69c-1.29,1.92-1.45,4.07-.82,6.36,0,0,0,.02,.01,.03,1.18,4.24,5.08,8.98,9.6,13.71,.58,.61,1.09,1.16,1.54,1.67,.12,.13,.24,.27,.35,.4,.09,.1,.18,.21,.27,.31,4.22,5.06,2.63,6.22,10.22,16.5,8.65,11.71,14.6,11.92,16.29,10.85,1.43-.91-1.48-7.12-4.7-14.1-.16-.34-.31-.68-.47-1.02-.43-.93-.86-1.87-1.28-2.8-3.78-8.4-2.81-12.34-1.91-24.84,.73-10.16,12.14-56.74,12.14-56.74l-16.57-3.71s-4.99,37.1-10.49,42.81c-2.94,3.04-6.23,3.08-9.06,5.34-.2,.16-.4,.32-.59,.48-1.61,1.38-3.24,2.81-4.53,4.74Z"></path><path fill="#233862" d="M620.43,972.69c-1.29,1.92-1.45,4.07-.82,6.36,0,0,0,.02,.01,.03,1.44,4.24,5.24,8.95,9.62,13.66,.57,.62,1.08,1.19,1.53,1.72,.12,.13,.24,.27,.35,.4,.09,.1,.18,.21,.27,.31,4.22,5.06,2.63,6.22,10.22,16.5,8.65,11.71,14.6,11.92,16.29,10.85,1.43-.91-1.48-7.12-4.7-14.1-1.68-.8-9.5-4.94-15.41-14.78-5.21-8.65-8.68-19.75-12.22-26.19-.2,.16-.4,.32-.59,.48-1.61,1.38-3.24,2.81-4.53,4.74Z"></path><path fill="#ffb27d" d="M754.05,959.22c1.02,6.66,8.31,5.55,16.46,2.96,8.15-2.59,6.21,.49,17.8-1.18,11.59-1.67,15.11-7.29,15.46-9.54,.32-1.99-5.41-2.69-11.56-3.61-.77-.11-1.55-.24-2.33-.36-6.94-1.13-12.02-6.96-18.32-11.74-5.97-4.53-14.88-22.99-14.88-22.99l-15.9,1.64s8.34,16.49,11.57,23.66c1.9,4.22,1.8,9.79,1.56,14.1-.12,2.34-.24,4.73,.12,7.08Z"></path><path fill="#233862" d="M770.51,962.18c8.15-2.59,6.21,.49,17.8-1.18,11.59-1.67,15.11-7.29,15.46-9.54,.32-1.99-5.41-2.69-11.56-3.61l-.06,.15s-6.95,6.41-16.6,6.72c-7.87,.25-16.2-2.68-21.63-2.57-.12,2.34-.24,4.73,.12,7.08,1.02,6.66,8.31,5.55,16.46,2.96Z"></path><path fill="#233862" d="M693.12,826.94l-14.86,52.04-19.4,67.95s-5.27,.66-10.31-1.23c-4.64-1.75-9.97-6.31-9.97-6.31,0,0,5.39-72.96,15.44-114.84,2.58-10.75,5.46-19.45,8.65-24.34,15.58-23.96,30.46,26.73,30.46,26.73Z"></path><path fill="#2b478b" d="M678.01,744.3c-9.74-4.09-37.51,1.16-65.41,8.27l-5.84-12.54-60.26-6.12s-19.88,57.38-9,93.93c1.6,5.37,4.78,8.82,10.2,8.93h.88s35.87-.03,47.51-.03c29.97,0,63.42-26.8,67.75-27.93,7.08-1.84,9.92,16.59,17,35.95,7.08,19.36,66.59,85.72,66.59,85.72,0,0,9.14,.12,12.92-1.73,4.06-1.98,5.55-4.56,5.55-4.56,0,0-65.93-170.68-87.89-179.9Z"></path><path fill="#233862" d="M604.39,511.72c-7.72-5.27-19.47-5.99-21.37-6.32-22.83-3.99-36.58,39.18-37.39,52.26-1.49,24.11-11.29,27.79-25.09,42.89-27.67,30.28-19.55,65.46-4.43,78.54,9.08,7.84,25.08,0,25.08,0,.23,.21,43.76-31.66,65.22-47.04,32.17-5.95,17.65-106.89-2.02-120.33Z"></path><path fill="#ffb27d" d="M588.42,618.97c.09,.08-10.56,4.81-17.68,.71-6.7-3.85-11.78-18.2-11.68-18.21,3.05-.18,6.39-3.65,8.97-26.4l1.3,.61,21.82,10.22s-1.58,9.11-2.6,17.79c-.86,7.28-1.32,14.26-.13,15.29Z"></path><path fill="#ed975d" d="M591.15,585.89s-1.58,9.11-2.6,17.79c-12.54-2.94-17.45-19.19-19.22-28l21.82,10.22Z"></path><path fill="#ffb27d" d="M594.4,594.93s-29.86-5.22-27.08-29.36c2.78-24.14,.8-41.08,19.98-38.77,19.18,2.31,21.82,12.24,22.39,20.6,.58,8.35-7.46,48.27-15.3,47.53Z"></path><path fill="#233862" d="M608.61,534.16s-19.11,21.43-32.12,23.16c-13,1.73-17.92-3.7-17.92-3.7,0,0,7.66-8.28,12.28-21.64,1.36-3.94,4.23-6.64,7.54-7.01,9.28-1.04,26.88-1.52,30.23,9.19Z"></path><path fill="#233862" d="M596.67,532.24s6.39,8.04,8.41,14.01c1.94,5.76,2.53,19.53,.98,25,0,0,9.96-25.21,4.32-37.45-5.98-12.99-13.71-1.56-13.71-1.56Z"></path><path fill="#fff" d="M613.56,676.2c-.9,78.64-.25,62.21-6.86,69.67-1.59,1.8-6.07,2.87-11.97,3.37-18.53,1.6-51.11-2.37-52.35-6.83-4.28-15.42-1.26-20.21-4.82-43.82-.37-2.51-.83-5.23-1.37-8.19-2.97-16.22-5.87-21.73,4.68-47.78,9.57-23.6,19.51-42.75,20.4-42.06,25.24,19.5,27.28,3.11,27.28,3.11,0,0,25.46,34.16,25.01,72.52Z"></path><path fill="#2b478b" d="M678.25,878.98l-19.4,67.95s-5.27,.66-10.31-1.23c-4.64-1.75-9.97-6.31-9.97-6.31,0,0,5.39-72.96,15.44-114.84l24.24,54.43Z"></path><path fill="#fff" d="M588.55,603.68s25.97,5.73,29.02,20.28c3.05,14.55,21,100.09,21,100.09,0,0-13.2,3.09-19.3-4.85-6.1-7.94-21.23-73.64-21.23-73.64l-9.49-41.89Z"></path><path fill="#ebf3ff" d="M594.73,749.24c-18.53,1.6-51.11-2.37-52.35-6.83-4.28-15.42-1.26-20.21-4.82-43.82l8.94-32.75s-1.48,36.47,6.79,46.06c8.26,9.59,33.85,18.52,37.86,26.53,1.94,3.85,3.21,7.7,3.58,10.8Z"></path><path fill="#ffb27d" d="M573.5,733.9s18.28-5.3,21.24-3.19c2.95,2.11,10.16,9.8,11.06,12.48,.9,2.68-6.57-2.03-9-2.88-1.57-.55-5.72,1.32-7.77,2.21-8.63,3.74-13.92,1.82-13.92,1.82l-1.62-10.44Z"></path><path fill="#fff" d="M561.25,600.55s-24.55,1.97-33.05,17.39c-11.96,21.71-35.7,114.24-22.1,126.58,15.32,13.9,69.72,3.64,69.72,3.64,0,0,1.81-11.01-.71-16.33-2.52-5.33-43.45-13.93-45.34-16.39-1.89-2.46,23.61-47.93,23.61-55.3s7.86-59.59,7.86-59.59Z"></path><path fill="#ffb27d" d="M595.62,737.34s3.83,6.43,5.09,7.2c1.26,.77,2.07,.58,2.07,.58l-2.58-6.05-4.57-1.73Z"></path><path fill="#ffb27d" d="M594.73,730.72l11.14,7.04s-.47,1.01-1.85,.93c-1.37-.08-4.83-1.73-4.83-1.73l-4.46-6.24Z"></path></g><g><g><polygon fill="#f99746" points="600.71 754.39 688.82 754.39 715.32 668.63 627.35 668.63 600.71 754.39"></polygon><polygon fill="#ed7d2b" points="689.85 751.05 573.5 751.05 573.5 754.39 688.82 754.39 689.85 751.05"></polygon></g><path fill="#fff" d="M666.58,711.51c.66-3.01-.68-5.46-2.99-5.46s-4.73,2.44-5.4,5.46c-.66,3.01,.68,5.46,2.99,5.46s4.73-2.44,5.4-5.46Z"></path></g></g></g><g><path fill="#78acea" d="M1060.9,1027.32h.26c1.51,0,2.72-1.71,2.69-3.79l-4.08-243.45-12.01-1.93,10.24,245.4c.09,2.12,1.36,3.77,2.9,3.77Z"></path><path fill="#78acea" d="M573.94,1027.32h-.26c-1.51,0-2.72-1.71-2.69-3.79l4.08-243.45,12.01-1.93-10.24,245.4c-.09,2.12-1.36,3.77-2.9,3.77Z"></path><rect fill="#78acea" ry="11.43" rx="11.43" height="29.38" width="529.12" y="755.17" x="553.87"></rect></g><path fill="#dfedfb" d="M449.5,337.92c-1.94-62.51,38.33-90.28,79.5-90.28s85.98,13.88,89.86,97c2.5,53.47-19.41,86.38-82.5,86.38-21.28,0-37.81-4.37-50.48-12.15l-31.54,36.46,15.5-50.4c-13.73-16.61-19.51-40.03-20.35-67.01Z"></path><g><path fill="#233862" d="M1385.33,1027.05s1.16-11.74,3.84-18.72c2.68-6.98,19.76-2.54,19.76-2.54,0,0,3.41,3.81,4.15,21.58l-27.75-.32Z"></path><path fill="#233862" d="M1327.15,1026.89c4.01-3.19,1.73-26.96,1.73-26.96,0,0-18.7-19.46-21.27-4.56-2.57,14.9-17.76,21.59-26.41,23.41-5.97,1.26-7.82,5.56-8.39,8.1h54.33Z"></path><path fill="#213f7a" d="M1365.88,854.01c-.76,5.46-1.24,9.93-1.37,13.14-1.74,44.11-28.54,144.96-33.33,147.31-7.42,3.64-19.1-4.1-25.21-6.63-2.53-1.05-4.24-4.38-3.68-7.75,13.27-79.38,18.15-193.68,19.92-261.36,.9-34.09,5.39-57.63,5.39-57.63,0,0,65.36-22.69,65.75,6.01,.34,25.4-21.65,125.01-27.48,166.9Z"></path><path fill="#233862" d="M1365.88,854.01l-43.66-115.28c.9-34.09,5.39-57.63,5.39-57.63,0,0,65.36-22.69,65.75,6.01,.34,25.4-21.65,125.01-27.48,166.9Z"></path><path fill="#213f7a" d="M1351.34,687.2l34.55,325.82s15.17,4.76,26.97,.95c0,0,10.12-173.29,9.27-215.18-.84-41.89,7.26-112.1-1.85-119.84-9.11-7.74-68.95,8.25-68.95,8.25Z"></path><path fill="#b0d0ff" d="M1427.02,681.77c.17,2.94-1.28,5.62-3.46,6.44-4.82,1.82-10.38,3.09-21.09,5.98-10.07,2.72-23.61,5.13-40.25,5.26-26.47,.22-36.49-11.65-36.49-11.65-1.14,.03,.6-7.18,2.17-41.45,.53-11.61,1.05-26.32,1.42-44.92,.33-16.73,.56-36.61,.58-60.19,.03-28.37,33.78-58.89,34.4-58.89h0c0,4.1,4.95,11.64,12.57,12.29,9.04,.77,20.14-5.09,20.14-11.86,0-.07,16.35,34.03,22.16,70.37,2.93,18.29,1.75,17.8,7.85,128.63Z"></path><path fill="#b0d0ff" d="M1364.3,482.36s-31.38-.35-38.93,13.44c-7.55,13.78-24.11,87.92-15.47,112.59,8.64,24.67,24.81-10.21,33.79-25.32,8.97-15.11,20.62-100.71,20.62-100.71Z"></path><path fill="#ffb27d" d="M1363.98,476.13l.02,4.22s-.88,13.2,11.61,15.13c12.49,1.93,21.76-2.47,21.43-12.65-1.13-7.89-2.17-15.99-2.25-22.51-.03-2.43,.1-5,.44-7.9l-24.21-.63-7.13,1.52,.09,22.83Z"></path><path fill="#e2915a" d="M1363.88,453.3l.09,22.83c2.57,1.56,5.47,2.51,8.73,2.51,11.13,0,18.32-10.62,22.08-18.32-.03-2.43,.1-5,.44-7.9l-24.21-.63-7.13,1.52Z"></path><path fill="#ffb27d" d="M1397.08,447.34c-2.81,19.67-22.31,19.02-30.74,17.79-2.37-.34-3.86-.74-3.86-.74-2.67-.93-4.17-6.41-4.86-13.59-1.38-14.21,.36-35.07,2.21-40.4,2.78-8.03,8.01-16.71,27.65-10.45,19.65,6.27,13.22,22.19,9.61,47.39Z"></path><path fill="#98baf4" d="M1332.21,537.61s-12.14,34.88-11.78,45.33c0,0,6.01-.27,11.78,1.97,9.49,3.68,0-47.3,0-47.3Z"></path><path fill="#233862" d="M1353.79,391.67s8.65-.87,18.84-6.63c8.28-4.68,18.72,.47,22.11,2.8-.09-.71-.31-1.68-.83-2.65,0,0,1.52,1.4,1.75,3.37,.16,.15,.23,.25,.19,.29,0,0,1.73-.41,2.83,.24,0,0-.78-.14-1.05,.5-.03,.07-.07,.13-.12,.18,12.91,8.12,14.1,34.67,9.95,40.81-5,7.39-12.55,24.11-12.55,24.11,0,0-.63-4.01,.28-10.52,.91-6.5-3.41-6.5-8.86-9.46-5.45-2.96-.91-11.23-5.68-16.26-4.77-5.03-22.27-2.07-22.04-5.91-6.49-3.08-4.81-20-4.81-20.86Z"></path><path fill="#98baf4" d="M1401.03,602.94c-5.12,26.77-60.53,40.6-73.13,43.42,.53-11.61,1.05-26.32,1.42-44.92l71.72,1.5Z"></path><path fill="#ffb27d" d="M1388.87,611.64c.53,0,12.32-2.29,14.43-3.66,2.11-1.37,11.77-19.23,5.45-23.81-6.32-4.58-23.3,13.74-23.3,13.74l3.43,13.74Z"></path><path fill="#b0d0ff" d="M1317.16,616.95s45.6,3.22,76.2-5.31c0,0,.77-11.5-8.85-16.61,0,0-47.69-13.15-59.15-9.49-11.46,3.66-8.2,31.41-8.2,31.41Z"></path><path fill="#b0d0ff" d="M1421.88,570.39c-9.46,14.85-21.83,26.97-35.47,29.81h0c-.11-.23-4.13-8.16-3.38-19.82,.35-5.39,1.72-11.59,4.97-18.19,1-2.03,1.89-4.4,2.68-7.03,7.45-24.72,6.34-72.37,6.34-72.37,0,0,31.63,4.31,41.48,22.63,6.04,11.22-1.66,41.51-16.62,64.98Z"></path><path fill="#e2915a" d="M1366.33,465.13c-2.37-.34-3.86-.74-3.86-.74-2.67-.93-4.17-6.41-4.86-13.59,5.02,1.61,7.31,6.65,8.27,8.8,.43,.97,.52,3.13,.45,5.53Z"></path><path fill="#ffb27d" d="M1353.59,476.25s-10.92-23.45-2.43-24.47c8.49-1.02,11.91,6.46,13.13,9.21,1.23,2.75-.32,15.14-.32,15.14l-10.38,.12Z"></path><path fill="#b0d0ff" d="M1395.22,579.59c-.33,2.97-1.02,5.71-1.86,8.14-2.67,7.71-6.95,12.46-6.95,12.46h0c-28.37-16.66-34.11-73.87-35.07-105.3-.39-12.63,0-21.11,0-21.11,12.8-5.51,16.39,4.07,16.39,4.07,0,0,15.11,46.75,22.95,77.3,3,11.69,4.93,21.01,4.55,24.43Z"></path><path fill="#98baf4" d="M1421.88,570.39c-9.46,14.85-21.83,26.97-35.47,29.81h0c-28.37-16.66-34.11-73.87-35.07-105.3,0,0,13.42,63.34,31.69,85.48,3.3,4.01,6.76,6.66,10.33,7.35,0,0,23.04-8.47,27.87-16.45,.34-.57,.56-.86,.65-.89Z"></path></g><g><g><polygon fill="#2b478b" points="905.21 755.17 817.1 755.17 790.6 669.41 878.57 669.41 905.21 755.17"></polygon><polygon fill="#2b478b" points="816.07 751.83 932.42 751.83 932.42 755.17 817.1 755.17 816.07 751.83"></polygon></g><path fill="#fff" d="M839.35,712.29c-.66-3.01,.67-5.46,2.99-5.46s4.73,2.44,5.4,5.46c.66,3.01-.68,5.46-2.99,5.46s-4.73-2.44-5.4-5.46Z"></path></g><path fill="#2e3552" d="M1620,1025.14v.73c0,1.17-.83,2.13-1.84,2.13H1.84c-1.01,0-1.84-.96-1.84-2.13v-.73c0-1.17,.83-2.13,1.84-2.13H1618.16c1.01,0,1.84,.96,1.84,2.13Z"></path></g></g></g></svg>