<svg viewBox="0 0 1620 1028" xmlns="http://www.w3.org/2000/svg"><g id="a"></g><g id="b"><g id="c"><g><path fill="#e8f2fa" d="M181.46,1027.97s-161.52-109.74-45.08-343.24c76.99-154.39,161.73-136.88,147.85-440.28C272.34-15.17,703.98-37.6,840.41,37.72c136.42,75.31,123.65,133.14,405.39,104.07,196.07-20.23,295.23,258.89,221.96,386.39-103.96,180.91,216.26,310.5,93.27,499.8H181.46Z"></path><path fill="#f6fbff" d="M1089.2,266.27s15.66-26.92,53.11-23.93c0,0,54.37-44.86,112.34-5.98,0,0,61.63-9.63,107.27,8.34,30.43,11.98,40.48,24.56,40.48,24.56l-313.19-2.99Z"></path><g><g opacity=".5"><path fill="#bfdcff" d="M688.8,410.31s-13.87-65.17-51.78-101.53c-5.04-4.83-13.49-.76-12.74,6.11,.01,.11,.03,.23,.04,.35,1.49,11.71,44.42,57.97,64.47,95.07Z"></path></g><g opacity=".5"><path fill="#bfdcff" d="M694.66,428.81s-41.61-79.38-103.42-110.77c-3.77-1.91-8.53-.7-10.62,2.93-1.36,2.36-1.75,5.9,.48,11.18,5.95,14.08,75.61,57.23,113.56,96.67Z"></path></g></g><g><g opacity=".5"><path fill="#bfdcff" d="M1195.89,705.5s26.19-61.42,70.43-90.09c5.88-3.81,13.4,1.76,11.33,8.36-.03,.11-.07,.22-.11,.33-3.72,11.22-54.81,48.68-81.65,81.39Z"></path></g><g opacity=".5"><path fill="#bfdcff" d="M1186.57,722.58s56.17-70.23,122.92-89.59c4.07-1.18,8.51,.9,9.87,4.84,.88,2.57,.58,6.12-2.63,10.88-8.56,12.72-85.28,42.17-130.16,73.86Z"></path></g></g><path fill="#dceafa" d="M1437.8,724.78c-15.46-43.15-90.19-23.92-90.19-23.92,0,0-45.66,80.76-60.49,83.67-14.83,2.91,25.29-76.52,25.29-76.52-29.2-.66-100.48,39.53-100.48,39.53,0,0,11.42,89.55-3.68,88.79-15.1-.75-5.99-79.8-5.99-79.8-27.44,10.28-51.22,44.27-51.22,44.27-28.81,54.64,44.23,88.1,44.23,88.1,0,0,3.28,31.12-13.68,68.31h0s-3.94,6.93-7.6,18.48l7.65-.55c.47-2.06,1.02-4.05,1.64-5.97,0-.01,0-.02,.01-.03,0-.03,.02-.06,.03-.08,.44-1.2,1.07-2.9,1.85-4.98h0s0-.01,0-.02c2-4.65,3.33-8.08,4.15-10.55,0,0,0-.02,0-.02,5.95-14.59,14.66-33.67,21.1-38,0,0-.93-1.11-1.9-3.32,.6,1.06,1.24,2.16,1.9,3.32,15.16,26.57,80.98,26.43,116.91,16.46,35.93-9.97,19.27-18.91-1.6-33.87-20.87-14.96-61.7-7.67-74.34-13.21-12.64-5.54,4.65-13.25,29.1-13.17,24.46,.08,38.41,23.05,77.97,23.88,39.56,.83,64.05-73.79,64.05-73.79-26.5,10.21-76.24-.95-78.8-9.99-2.56-9.04,69.53-13.32,80.55-16.88,11.02-3.56,29.01-26.99,13.54-70.14Z"></path><path fill="#dceafa" d="M400.75,371.68c14.88-41.53,86.81-23.02,86.81-23.02,0,0,43.95,77.73,58.22,80.53,14.27,2.81-24.34-73.65-24.34-73.65,28.11-.63,96.71,38.05,96.71,38.05,0,0-11,86.19,3.54,85.46,14.54-.73,5.77-76.8,5.77-76.8,26.41,9.89,49.3,42.61,49.3,42.61,27.73,52.59-42.57,84.8-42.57,84.8,0,0-3.15,29.95,13.17,65.74h0s3.79,6.67,7.32,17.78l-7.36-.53c-.46-1.98-.98-3.9-1.58-5.75,0-.01,0-.02-.01-.03,0-.03-.02-.05-.03-.08-.42-1.15-1.03-2.79-1.78-4.79h0s0-.01,0-.02c-1.93-4.48-3.21-7.78-3.99-10.15,0,0,0-.01,0-.02-5.72-14.04-14.11-32.4-20.3-36.58,0,0,.9-1.07,1.82-3.2-.58,1.02-1.19,2.08-1.82,3.2-14.59,25.57-77.94,25.44-112.52,15.84-34.58-9.6-18.55-18.2,1.54-32.6,20.09-14.4,59.39-7.38,71.55-12.72,12.17-5.33-4.47-12.75-28.01-12.67-23.54,.08-36.97,22.18-75.04,22.99-38.08,.8-61.65-71.02-61.65-71.02,25.51,9.83,73.38-.92,75.85-9.61,2.46-8.7-66.92-12.82-77.53-16.25-10.6-3.43-27.92-25.98-13.03-67.51Z"></path><rect fill="#c8dffd" height="752.18" width="456.28" y="273.64" x="772.38"></rect><g><rect fill="#0b3563" height="1.73" width="38.17" y="366.01" x="1228.66"></rect><rect fill="#0b3563" height="1.73" width="38.17" y="549.1" x="1228.66"></rect><rect fill="#ff7b35" ry="25.66" rx="25.66" height="262.48" width="58.9" y="334.58" x="1264.86"></rect><g><path fill="#fff" d="M1284.92,364.48h3.98v9.24h10.81v-9.24h3.98v22.22h-3.98v-9.36h-10.81v9.36h-3.98v-22.22Z"></path><path fill="#fff" d="M1282.46,419.19c0-6.25,4.92-11.49,11.88-11.49s11.81,5.17,11.81,11.49-4.92,11.49-11.88,11.49-11.81-5.17-11.81-11.49Zm19.52,0c0-4.32-3.2-7.9-7.7-7.9s-7.64,3.52-7.64,7.9,3.2,7.9,7.7,7.9,7.64-3.52,7.64-7.9Z"></path><path fill="#fff" d="M1292.3,455.29h-7.18v-3.62h18.38v3.62h-7.19v18.6h-4.01v-18.6Z"></path><path fill="#fff" d="M1286.38,495.26h16.8v3.49h-12.82v5.78h11.36v3.49h-11.36v5.97h12.98v3.49h-16.96v-22.22Z"></path><path fill="#fff" d="M1287.2,538.86h3.98v18.66h11.91v3.56h-15.89v-22.22Z"></path></g></g><g><g><g><rect fill="#a8ccff" height="124.12" width="87.39" y="341.8" x="1094.29"></rect><path fill="#d5e9ff" d="M1134.53,341.8s.94,41.38-40.24,73.48v-73.48h40.24Z"></path><path fill="#d5e9ff" d="M1143.16,341.8s-.89,41.38,38.52,73.48v-73.48h-38.52Z"></path></g><rect fill="#fff" height="124.12" width="2.19" y="341.8" x="1137.98"></rect><rect fill="#fff" height="1.73" width="87.39" y="378.54" x="1094.29"></rect><rect fill="#fff" height="1.73" width="87.39" y="423.53" x="1094.29"></rect><path fill="#fff" d="M1183.67,467.87h-91.37v-128.02h91.37v128.02Zm-87.39-3.9h83.4v-120.22h-83.4v120.22Z"></path></g><g><g><rect fill="#a8ccff" height="124.12" width="87.39" y="341.8" x="956.82"></rect><path fill="#d5e9ff" d="M997.06,341.8s.94,41.38-40.24,73.48v-73.48h40.24Z"></path><path fill="#d5e9ff" d="M1005.7,341.8s-.89,41.38,38.52,73.48v-73.48h-38.52Z"></path></g><rect fill="#fff" height="124.12" width="2.19" y="341.8" x="1000.52"></rect><rect fill="#fff" height="1.73" width="87.39" y="378.54" x="956.82"></rect><rect fill="#fff" height="1.73" width="87.39" y="423.53" x="956.82"></rect><path fill="#fff" d="M1046.2,467.87h-91.37v-128.02h91.37v128.02Zm-87.39-3.9h83.4v-120.22h-83.4v120.22Z"></path></g><g><g><rect fill="#a8ccff" height="124.12" width="87.39" y="341.8" x="819.36"></rect><path fill="#d5e9ff" d="M859.6,341.8s.93,41.38-40.24,73.48v-73.48h40.24Z"></path><path fill="#d5e9ff" d="M868.23,341.8s-.89,41.38,38.52,73.48v-73.48h-38.52Z"></path></g><rect fill="#fff" height="124.12" width="2.19" y="341.8" x="863.05"></rect><rect fill="#fff" height="1.73" width="87.39" y="378.54" x="819.36"></rect><rect fill="#fff" height="1.73" width="87.39" y="423.53" x="819.36"></rect><path fill="#fff" d="M908.74,467.87h-91.37v-128.02h91.37v128.02Zm-87.39-3.9h83.4v-120.22h-83.4v120.22Z"></path></g></g><g><g><g><rect fill="#a8ccff" height="124.12" width="87.39" y="528.18" x="1094.29"></rect><path fill="#d5e9ff" d="M1134.53,528.18s.94,41.38-40.24,73.48v-73.48h40.24Z"></path><path fill="#d5e9ff" d="M1143.16,528.18s-.89,41.38,38.52,73.48v-73.48h-38.52Z"></path></g><rect fill="#fff" height="124.12" width="2.19" y="528.18" x="1137.98"></rect><rect fill="#fff" height="1.73" width="87.39" y="564.92" x="1094.29"></rect><rect fill="#fff" height="1.73" width="87.39" y="609.91" x="1094.29"></rect><path fill="#fff" d="M1183.67,654.25h-91.37v-128.03h91.37v128.03Zm-87.39-3.91h83.4v-120.22h-83.4v120.22Z"></path></g><g><g><rect fill="#a8ccff" height="124.12" width="87.39" y="528.18" x="956.82"></rect><path fill="#d5e9ff" d="M997.06,528.18s.94,41.38-40.24,73.48v-73.48h40.24Z"></path><path fill="#d5e9ff" d="M1005.7,528.18s-.89,41.38,38.52,73.48v-73.48h-38.52Z"></path></g><rect fill="#fff" height="124.12" width="2.19" y="528.18" x="1000.52"></rect><rect fill="#fff" height="1.73" width="87.39" y="564.92" x="956.82"></rect><rect fill="#fff" height="1.73" width="87.39" y="609.91" x="956.82"></rect><path fill="#fff" d="M1046.2,654.25h-91.37v-128.03h91.37v128.03Zm-87.39-3.91h83.4v-120.22h-83.4v120.22Z"></path></g><g><g><rect fill="#a8ccff" height="124.12" width="87.39" y="528.18" x="819.36"></rect><path fill="#d5e9ff" d="M859.6,528.18s.93,41.38-40.24,73.48v-73.48h40.24Z"></path><path fill="#d5e9ff" d="M868.23,528.18s-.89,41.38,38.52,73.48v-73.48h-38.52Z"></path></g><rect fill="#fff" height="124.12" width="2.19" y="528.18" x="863.05"></rect><rect fill="#fff" height="1.73" width="87.39" y="564.92" x="819.36"></rect><rect fill="#fff" height="1.73" width="87.39" y="609.91" x="819.36"></rect><path fill="#fff" d="M908.74,654.25h-91.37v-128.03h91.37v128.03Zm-87.39-3.91h83.4v-120.22h-83.4v120.22Z"></path></g></g><g><g><g><rect fill="#a8ccff" height="124.12" width="87.39" y="714.56" x="956.82"></rect><path fill="#d5e9ff" d="M997.06,714.56s.94,41.38-40.24,73.48v-73.48h40.24Z"></path><path fill="#d5e9ff" d="M1005.7,714.56s-.89,41.38,38.52,73.48v-73.48h-38.52Z"></path></g><rect fill="#fff" height="124.12" width="2.19" y="714.56" x="1000.52"></rect><rect fill="#fff" height="1.73" width="87.39" y="751.3" x="956.82"></rect><rect fill="#fff" height="1.73" width="87.39" y="796.3" x="956.82"></rect><path fill="#fff" d="M1046.2,840.63h-91.37v-128.02h91.37v128.02Zm-87.39-3.91h83.4v-120.21h-83.4v120.21Z"></path></g><g><g><rect fill="#a8ccff" height="124.12" width="87.39" y="714.56" x="819.36"></rect><path fill="#d5e9ff" d="M859.6,714.56s.93,41.38-40.24,73.48v-73.48h40.24Z"></path><path fill="#d5e9ff" d="M868.23,714.56s-.89,41.38,38.52,73.48v-73.48h-38.52Z"></path></g><rect fill="#fff" height="124.12" width="2.19" y="714.56" x="863.05"></rect><rect fill="#fff" height="1.73" width="87.39" y="751.3" x="819.36"></rect><rect fill="#fff" height="1.73" width="87.39" y="796.3" x="819.36"></rect><path fill="#fff" d="M908.74,840.63h-91.37v-128.02h91.37v128.02Zm-87.39-3.91h83.4v-120.21h-83.4v120.21Z"></path></g></g><rect fill="#a8ccff" height="102.86" width="468.86" y="922.94" x="767.26"></rect><g><path fill="#6b98f6" d="M920.08,424.37l-.2,563.69c0,18.52-15.32,33.52-34.2,33.52l-300.5-.1c-18.89,0-34.19-15.02-34.18-33.54l.2-563.69c0-18.51,15.32-33.52,34.21-33.51l300.5,.1c18.88,0,34.18,15.02,34.17,33.53Z"></path><path fill="#0b3563" d="M885.68,1025.79l-300.5-.1c-21.22,0-38.48-16.94-38.47-37.75l.2-563.69c0-20.81,17.28-37.73,38.5-37.72l300.5,.1c21.22,0,38.48,16.94,38.47,37.75l-.2,563.69c0,20.81-17.28,37.73-38.5,37.72ZM585.4,394.94c-16.49,0-29.9,13.14-29.91,29.31l-.2,563.69c0,16.17,13.4,29.32,29.89,29.33l300.5,.1c16.49,0,29.9-13.14,29.91-29.31l.2-563.69c0-16.17-13.4-29.32-29.89-29.33l-300.5-.1Z"></path><path fill="#e9f1ff" d="M887.53,750.55v208.61c0,13.84-11.44,25.05-25.54,25.05h-247.46c-14.1,0-25.54-11.21-25.54-25.05v-208.61c0-13.84,11.44-25.05,25.54-25.05h247.46c1.85,0,3.65,.2,5.38,.56,11.52,2.42,20.16,12.46,20.16,24.49Z"></path><g><rect fill="#e9f1ff" ry="27.01" rx="27.01" height="119.45" width="298.54" y="585.05" x="588.99"></rect><g><path fill="#25468f" d="M768.11,631.83h-72.04c-.89,0-1.61-.71-1.61-1.58h0c0-.87,.72-1.58,1.61-1.58h72.04c.89,0,1.61,.71,1.61,1.58h0c0,.87-.72,1.58-1.61,1.58Z"></path><path fill="#25468f" d="M816.3,643.26h-120.23c-.89,0-1.61-.71-1.61-1.58h0c0-.87,.72-1.58,1.61-1.58h120.23c.89,0,1.61,.71,1.61,1.58h0c0,.87-.72,1.58-1.61,1.58Z"></path></g><rect fill="#bfceff" height="67.55" width="68.89" y="613.81" x="609.67"></rect><g><polygon fill="#a6bcf6" points="622.44 663.67 637.49 637.07 648.55 651.86 654.07 645.94 665.78 663.67 622.44 663.67"></polygon><path fill="#a6bcf6" d="M644.66,633.25c0-2.11,1.74-3.82,3.89-3.82s3.89,1.71,3.89,3.82-1.74,3.82-3.89,3.82-3.89-1.71-3.89-3.82Z"></path></g><rect fill="#25468f" ry="2.51" rx="2.51" height="6.92" width="121.4" y="613.81" x="694.25"></rect><g><polygon fill="#ff7b35" points="711.9 662.45 721.82 663.85 714.65 670.72 716.35 680.41 707.47 675.84 698.6 680.43 700.29 670.73 693.1 663.88 703.02 662.45 707.45 653.63 711.9 662.45"></polygon><polygon fill="#ff7b35" points="746.26 662.45 756.19 663.85 749.01 670.72 750.72 680.41 741.84 675.84 732.97 680.43 734.66 670.73 727.47 663.88 737.39 662.45 741.82 653.63 746.26 662.45"></polygon><polygon fill="#ff7b35" points="780.63 662.45 790.55 663.85 783.38 670.72 785.09 680.41 776.21 675.84 767.34 680.43 769.02 670.73 761.84 663.88 771.76 662.45 776.18 653.63 780.63 662.45"></polygon><polygon fill="#ff7b35" points="815 662.45 824.92 663.85 817.75 670.72 819.45 680.41 810.57 675.84 801.7 680.43 803.39 670.73 796.2 663.88 806.12 662.45 810.55 653.63 815 662.45"></polygon><polygon fill="#ff7b35" points="849.36 662.45 859.29 663.85 852.11 670.72 853.82 680.41 844.94 675.84 836.07 680.43 837.75 670.73 830.57 663.88 840.49 662.45 844.92 653.63 849.36 662.45"></polygon></g></g><g><rect fill="#e9f1ff" ry="27.01" rx="27.01" height="119.45" width="298.54" y="446.65" x="588.99"></rect><g><path fill="#25468f" d="M768.11,493.42h-72.04c-.89,0-1.61-.71-1.61-1.58h0c0-.87,.72-1.58,1.61-1.58h72.04c.89,0,1.61,.71,1.61,1.58h0c0,.87-.72,1.58-1.61,1.58Z"></path><path fill="#25468f" d="M816.3,504.85h-120.23c-.89,0-1.61-.71-1.61-1.58h0c0-.87,.72-1.58,1.61-1.58h120.23c.89,0,1.61,.71,1.61,1.58h0c0,.87-.72,1.58-1.61,1.58Z"></path></g><rect fill="#bfceff" height="67.55" width="68.89" y="475.4" x="609.67"></rect><g><polygon fill="#a6bcf6" points="622.44 525.26 637.49 498.66 648.55 513.46 654.07 507.54 665.78 525.26 622.44 525.26"></polygon><path fill="#a6bcf6" d="M644.66,494.84c0-2.11,1.74-3.82,3.89-3.82s3.89,1.71,3.89,3.82-1.74,3.82-3.89,3.82-3.89-1.71-3.89-3.82Z"></path></g><rect fill="#25468f" ry="2.51" rx="2.51" height="6.92" width="121.4" y="475.4" x="694.25"></rect><g><polygon fill="#ff7b35" points="711.9 524.04 721.82 525.44 714.65 532.31 716.35 542 707.47 537.43 698.6 542.02 700.29 532.33 693.1 525.47 703.02 524.05 707.45 515.23 711.9 524.04"></polygon><polygon fill="#ff7b35" points="746.26 524.04 756.19 525.44 749.01 532.31 750.72 542 741.84 537.43 732.97 542.02 734.66 532.33 727.47 525.47 737.39 524.05 741.82 515.23 746.26 524.04"></polygon><polygon fill="#ff7b35" points="780.63 524.04 790.55 525.44 783.38 532.31 785.09 542 776.21 537.43 767.34 542.02 769.02 532.33 761.84 525.47 771.76 524.05 776.18 515.23 780.63 524.04"></polygon><polygon fill="#ff7b35" points="815 524.04 824.92 525.44 817.75 532.31 819.45 542 810.57 537.43 801.7 542.02 803.39 532.33 796.2 525.47 806.12 524.05 810.55 515.23 815 524.04"></polygon><polygon fill="#ff7b35" points="849.36 524.04 859.29 525.44 852.11 532.31 853.82 542 844.94 537.43 836.07 542.02 837.75 532.33 830.57 525.47 840.49 524.05 844.92 515.23 849.36 524.04"></polygon></g></g><g opacity=".3"><path fill="#6b98f6" d="M700.57,805.04c-1.96-.26-3.97-.39-6.01-.39-.33,0-.66,0-.99,.01-24.44,.51-44.08,20.1-44.08,44.18,0,2.34,.19,4.63,.54,6.87,3.31,20.84,21.47,36.85,43.54,37.32,.33,0,.66,.01,.99,.01,2.04,0,4.04-.13,6.01-.39,19.76-2.58,35.46-17.7,38.53-36.94,.35-2.24,.54-4.53,.54-6.87,0-22.41-17.01-40.93-39.06-43.8Zm0,72.99c-1.94,.38-3.95,.59-6.01,.59-.33,0-.66,0-.99-.01-13.92-.44-25.47-10.06-28.56-22.89-.53-2.21-.81-4.5-.81-6.87,0-16.11,13.06-29.24,29.37-29.75,.33,0,.66-.01,.99-.01,2.06,0,4.06,.2,6.01,.59,13.88,2.73,24.35,14.76,24.35,29.18,0,2.36-.28,4.66-.81,6.87-2.71,11.25-11.93,20.03-23.54,22.32Z"></path><path fill="#6b98f6" d="M664.21,848.84c0,2.36,.28,4.66,.81,6.87h-55.87v-6.87h55.06Z"></path><path fill="#6b98f6" d="M867.37,848.84v6.87h-143.26c.53-2.21,.81-4.5,.81-6.87h142.45Z"></path><path fill="#6b98f6" d="M700.57,734.94v84.73c-1.94-.38-3.95-.59-6.01-.59-.33,0-.66,0-.99,.01v-84.15h7Z"></path><path fill="#6b98f6" d="M700.57,878.03v91.59h-7v-91.02c.33,0,.66,.01,.99,.01,2.06,0,4.06-.2,6.01-.59Z"></path><polygon fill="#6b98f6" points="860.37 734.93 860.37 853.51 860.37 859.93 867.37 859.93 867.37 853.51 867.37 735.47 860.37 734.93"></polygon><rect fill="#6b98f6" height="234.68" width="7" y="734.93" x="781.38"></rect><rect fill="#6b98f6" height="52.72" width="34.62" y="743.63" x="709.75"></rect><rect fill="#6b98f6" height="37.88" width="33.74" y="783.31" x="609.15"></rect><rect fill="#6b98f6" height="33.09" width="67.9" y="743.63" x="609.15"></rect><rect fill="#6b98f6" height="32.77" width="24.21" y="743.63" x="750.21"></rect><rect fill="#6b98f6" height="54.76" width="24.21" y="783.31" x="750.21"></rect><rect fill="#6b98f6" height="32.42" width="24.21" y="862.21" x="750.21"></rect><rect fill="#6b98f6" height="94.44" width="19.54" y="743.63" x="803.93"></rect><rect fill="#6b98f6" height="94.44" width="24.21" y="743.63" x="829.81"></rect><rect fill="#6b98f6" height="103.96" width="67.15" y="865.66" x="800.22"></rect><rect fill="#6b98f6" height="39.32" width="66.83" y="930.3" x="707.6"></rect><rect fill="#6b98f6" height="20.84" width="66.83" y="902.05" x="707.6"></rect><rect fill="#6b98f6" height="67.57" width="60.03" y="902.05" x="609.15"></rect><rect fill="#6b98f6" height="36.41" width="25.27" y="859.38" x="609.15"></rect></g></g><g><g><rect fill="#0b3563" height="15.09" width="11.3" y="998.27" x="454.32"></rect><rect fill="#0b3563" height="15.09" width="11.3" y="998.27" x="518.24"></rect><path fill="#10477b" d="M451.93,1015.65c0-4.36,3.6-7.89,8.04-7.89s8.04,3.53,8.04,7.89-3.6,7.89-8.04,7.89-8.04-3.53-8.04-7.89Z"></path><path fill="#0b3563" d="M455.09,1015.65c0-2.64,2.18-4.79,4.88-4.79s4.88,2.14,4.88,4.79-2.18,4.79-4.88,4.79-4.88-2.14-4.88-4.79Z"></path><path fill="#10477b" d="M515.85,1015.65c0-4.36,3.6-7.89,8.04-7.89s8.04,3.53,8.04,7.89-3.6,7.89-8.04,7.89-8.04-3.53-8.04-7.89Z"></path><path fill="#0b3563" d="M519.01,1015.65c0-2.64,2.18-4.79,4.88-4.79s4.88,2.14,4.88,4.79-2.18,4.79-4.88,4.79-4.88-2.14-4.88-4.79Z"></path><path fill="#d44c10" d="M413.72,984.21h156.11c0,12.43-10.09,22.52-22.52,22.52h-111.07c-12.43,0-22.52-10.09-22.52-22.52h0Z"></path><path fill="#ff912b" d="M575.19,795.1v182.69c0,2.2-.25,4.35-.73,6.41h-21.85c-3.39,0-6.56,.97-9.22,2.64-1.65,1.03-3.1,2.33-4.3,3.84-2.28,2.85-3.63,6.45-3.63,10.35v5.69h-85.61v-5.69c0-5.87-3.06-11.05-7.71-14.06-1.31-.85-2.76-1.53-4.3-2-1.62-.5-3.35-.77-5.14-.77h-23.62c-.48-2.07-.73-4.21-.73-6.41v-182.69c0-15.99,13.2-28.94,29.48-28.94h107.86c16.29,0,29.48,12.95,29.48,28.94Z"></path><path fill="#0b3563" d="M523.19,766.06c-20.19-7.8-37.01-7.41-47.57-5.71-11.45,1.85-18.22,5.59-18.28,5.63l-1.39-2.38c.29-.16,7.18-3.99,19.08-5.93,10.93-1.78,28.34-2.22,49.19,5.84l-1.03,2.55Z"></path><path fill="#fc7600" d="M442.15,766.16v220.82c-1.31-.85-2.76-1.53-4.3-2v-218.82h4.3Z"></path><rect fill="#fc7600" height="240.57" width="4.3" y="766.16" x="472.26"></rect><rect fill="#fc7600" height="240.57" width="4.3" y="766.16" x="504.36"></rect><path fill="#fc7600" d="M543.39,766.16v220.69c-1.65,1.03-3.1,2.33-4.3,3.84v-224.52h4.3Z"></path></g><g><path fill="#ffae73" d="M315.18,671.57c0-.31,4.7-9.85,3.21-10.59-1.5-.73-4.18-.62-4.49,1.05-.31,1.67,1.28,9.54,1.28,9.54Z"></path><path fill="#ffae73" d="M316.96,677.27c0-.94-1.1-15.22-3.56-18.06-2.46-2.84-7.47-6.89-9.05-6.76-1.58,.12-7.75,8.16-5.89,14.32,1.85,6.16,9.68,14.5,9.68,14.5l8.82-4Z"></path><g><path fill="#fc9f38" d="M326.32,659.96l-14.3,4.2c-.47,.14-.97-.12-1.12-.59l-8.17-26.74c-.14-.47,.13-.96,.6-1.1l14.3-4.2c.47-.14,.97,.12,1.12,.59l8.17,26.74c.14,.47-.13,.96-.6,1.1Z"></path><path fill="#e65f00" d="M322.61,661.05l-12.97,3.81c-.84,.25-1.73-.22-1.98-1.05l-7.78-25.44c-.25-.83,.23-1.69,1.07-1.94l12.97-3.81c.84-.25,1.73,.22,1.98,1.05l7.78,25.44c.25,.83-.23,1.7-1.07,1.94Z"></path></g><path fill="#ffae73" d="M302.87,653.48s5.96-8.99,7.41-8.49c2.08,.71-5.4,12.12-5.4,12.12,0,0,5.54-8.52,6.41-7.88,1.97,1.46-1.17,6.81-4.28,10.92,0,0,5.57-5,5.75-4.1,.64,3.16-6.12,10.8-6.12,10.8l-3.77-8.45v-4.92Z"></path><path fill="#ffae73" d="M298.41,661.83c.29-1.1,1.74-22.56,2.36-20.52,.62,2.04,2.1,13.29,2.1,13.29l-4.47,7.23Z"></path><path fill="#6b98f6" d="M393.46,655.92s-.62,23.33-7.49,42.16c-5.42,14.87-14.73,26.93-30.71,22.48-1.63-.46-3.22-.94-4.75-1.47-.01,0-.02,0-.02,0-32.45-11.09-42.96-36.46-42.96-36.46,2.42-3.91,9.42-5.35,9.42-5.35,6.54,.35,35.26,12.3,37.09,12.67,6.64,1.31,12.01-34.49,16.33-46.89,4.32-12.4,21.99-17.95,21.99-17.95l1.1,30.82Z"></path><path fill="#4681e1" d="M386.59,681.27l-.62,16.81c-5.42,14.87-14.73,26.93-30.71,22.48-1.63-.46-3.22-.94-4.75-1.47,.51,.07,10.29,1.36,14.38-2.65,4.2-4.13,3.77-17.81,11.51-26.93,7.75-9.12,10.19-8.24,10.19-8.24Z"></path><path fill="#032444" d="M387.49,988.73s7.99,7.15,6.43,12.23c-1.56,5.08-8.77,8.46-9.74,14.67-.97,6.21-4.87,9.59-8.38,9.59h-16.72s-2.58-4.37,3.65-5.68c6.23-1.32,8.58-8.61,8.19-15.38-.39-6.77,.58-15.8,.58-15.8l13.25-3.01,2.73,3.39Z"></path><path fill="#032444" d="M299.49,1023.92h49.23c1.93,0,3.52-1.5,3.57-3.39,.08-2.83-.16-6.94-1.76-10.41-2.63-5.71-4.29-6.71,6.81-23.33-3.34,3.37-12.33,1.83-19.93,.83-.93,1.48-15.02,22.82-18.12,25.01-3.43,2.42-18.74,1.56-19.79,11.3Z"></path><path fill="#0b3563" d="M376.19,756.24s-35.69,66.04-45.39,102.4c-7.53,28.23,38.41,137.43,38.41,137.43,0,0,3.75-.24,9.88-2.61,6.01-2.32,8.3-8.54,8.3-8.54,0,0-2.72-78.09-12.02-115.86-2.09-8.48,10.11-35.83,30.7-50.81,20.59-14.98,29.17-63.18,16.91-66.44-12.26-3.26-46.8,4.42-46.8,4.42Z"></path><path fill="#0d458e" d="M406.74,737.49s-37.52,134.87-48.9,165.16c-11.38,30.29-29.43,94.57-29.43,94.57,0,0,11.41,5.25,26.03,2.77,0,0,54.86-78.81,57.25-113.65,1.1-16.1,56.29-79.93,50.14-121.55l-55.08-27.29Z"></path><path fill="#6b98f6" d="M461.73,779.57s-7.98,3.95-22.1,5.11h-.01c-16.16,1.33-40.37-1-69.84-17.1,0,0-8.22-6.64,1.88-34.9,7.65-21.39,11.37-66.49,20.7-107.59,0,0,30.28-9.31,54.57-1.26,18.56,6.16,16.71,34.08,20.14,63.17,.32,2.72,.68,5.44,1.12,8.16,5.07,31.84-6.45,84.42-6.45,84.42Z"></path><path fill="#1e3865" d="M381.69,564.25s20.66-32.98,36.67-16.01c0,0,10.46,2.62,16.45,18.59,6.11,16.3-3.41,30.69-9.77,28.36-4.08-1.49-5.99,5.4-5.99,5.4l-37.37-36.35Z"></path><path fill="#1e3865" d="M415.18,545.64s1.42-13.66,21.77-12.33c0,0-9.62,.17-11.69,4.11,0,0,7-4.42,12.1-2.27,5.1,2.15,7.27,11.52,6.99,14.5-.28,2.98-4.2,12.3-7.63,12.78-3.43,.48-7.93-1.89-7.93-1.89l-13.62-14.89Z"></path><path fill="#ffae73" d="M425.44,623c-1.91-4.99-4.76-10.24-7.04-26.19l-1.22,.42-20.54,7.09s1.44,6.46,2.36,12.6c.38,2.51,.64,7,.82,10.91,.18,4,4.19,4.38,8.28,4.2,10.86-.49,16.85-4.46,17.35-9.03Z"></path><path fill="#f48f4e" d="M396.63,604.32s1.44,6.46,2.36,12.6c11.78-2,16.48-13.47,18.18-19.7l-20.54,7.09Z"></path><path fill="#1e3865" d="M419.02,594.66s4.79-10.48,5.07-18.91c.2-6.02-6.04-27.32-27.86-21.04,0,0-6.38,1.54-11.87,6.43-4.37,3.89-10.33,11.79,.26,29.66l2.97,6.12,31.43-2.25Z"></path><path fill="#ffae73" d="M393.53,610.7s28.06-3.5,25.57-20.61c-2.49-17.1-.55-29.07-18.57-27.56-18.02,1.51-20.54,8.53-21.13,14.43-.58,5.91,6.77,34.2,14.13,33.73Z"></path><path fill="#1e3865" d="M387.72,563.92s10.61,18.98,22.81,20.28c12.2,1.3,16.85-2.51,16.85-2.51,0,0-10.06-5.75-13.73-17.76,0,0-21.55-10.38-25.93-.02Z"></path><path fill="#1e3865" d="M389.86,565.28s-5.07,5.29-5.82,9.84c-.76,4.55-.07,13.6-2.77,13.68,0,0-7.78-12.82-2.42-21.45,5.68-9.15,11.02-2.07,11.02-2.07Z"></path><path fill="#1e3865" d="M388.89,566.11s8.55,20.24,24.38,24.87c0,0-16.74-10.81-20.04-24.5-3.3-13.69-4.34-.37-4.34-.37Z"></path><path fill="#4681e1" d="M461.73,779.57s-7.98,3.95-22.1,5.11h-.01s-11.6-14.26,1.34-30.24c12.94-15.98-1.01-45.46,8.95-61.49,6.93-11.16,13.68-8.56,17.15-5.95,.32,2.72,.68,5.44,1.12,8.16,5.07,31.84-6.45,84.42-6.45,84.42Z"></path><path fill="#ffae73" d="M512.64,755.88s1.72,3.93,4.12,4.19c3.92,.43,11.4,3.65,12.57,4.34,3.18,1.85,2.96,10.13-.22,10.91-3.18,.78-4.77-6.17-14.71-8.03-3.37-.63-8.28,1.65-10.27-6.27l8.5-5.14Z"></path><path fill="#6b98f6" d="M446.93,623.83c28.89,10.42,29.96,60.61,42.84,82.72,13.28,22.8,26.22,52.8,26.22,52.8,0,0-.23,.9-5.19,2.29-3.49,.98-7.13,.56-7.13,.56,0,0-27.3-24.22-34.71-33.77-7.42-9.55-24.9-53.87-24.9-53.87,0,0-8.6-54.88,2.87-50.74Z"></path><path fill="#ffae73" d="M504.86,762.98s.7,3.37,4.96,6.1c4.26,2.73,7.68,5.46,8.09,3.77,.41-1.69-2.37-3.51-3.03-6.63-.66-3.12-10.02-3.24-10.02-3.24Z"></path></g></g><g><polygon fill="#ff7b35" points="1245.8 299.94 757.57 299.94 783.6 186.5 1219.77 186.5 1245.8 299.94"></polygon><g><rect fill="#b8d0fc" height="43.91" width="44.78" y="220.17" x="846.31"></rect><g><path fill="#0b3563" d="M844.23,218.14v47.97h48.93v-47.97h-48.93Zm44.78,43.91h-40.62v-39.85h40.62v39.85Z"></path><rect fill="#0b3563" transform="translate(1110.82 -626.57) rotate(90)" height="4.06" width="43.91" y="240.1" x="846.74"></rect></g><rect fill="#0b3563" height="9.21" width="64.82" y="209.92" x="835.34"></rect></g><g><rect fill="#b8d0fc" height="43.91" width="44.78" y="220.17" x="979.57"></rect><g><path fill="#0b3563" d="M977.5,218.14v47.97h48.93v-47.97h-48.93Zm44.77,43.91h-40.63v-39.85h40.63v39.85Z"></path><rect fill="#0b3563" transform="translate(1244.08 -759.83) rotate(90)" height="4.06" width="43.91" y="240.1" x="980"></rect></g><rect fill="#0b3563" height="9.21" width="64.82" y="209.92" x="968.11"></rect></g><g><rect fill="#b8d0fc" height="43.91" width="44.78" y="220.17" x="1112.34"></rect><g><path fill="#0b3563" d="M1110.27,218.14v47.97h48.93v-47.97h-48.93Zm44.78,43.91h-40.63v-39.85h40.63v39.85Z"></path><rect fill="#0b3563" transform="translate(1376.85 -892.6) rotate(90)" height="4.06" width="43.91" y="240.1" x="1112.77"></rect></g><rect fill="#0b3563" height="9.21" width="64.82" y="209.92" x="1100.88"></rect></g></g><path fill="#9bd399" d="M203.76,1025h63.77c3.42-2.84-2.36-9.3-8.41-9.73-2.62-.2-5.94,.34-9.73,1.13-.88-11.43-5.89-62.81-24.78-60.75-21.24,2.31,0,22.63,6,34.66,4.45,8.91,9.14,21.68,11.28,27.71-1.72,.37-3.51,.73-5.33,1.05-2.81-8.47-13.29-36.98-26.61-35.32-15.64,1.95-9.35,13.37,1.73,20.16,8.13,4.99,18.12,12.08,22.86,15.51-4.02,.64-8.22,1.08-12.47,.98-10.92-.25-16.26,2.9-18.32,4.6Z"></path><path fill="#9bd399" d="M1516.57,1023.98h-48.05c-2.57-2.14,1.78-7.01,6.33-7.33,1.98-.15,4.48,.26,7.33,.85,.66-8.61,4.44-47.33,18.67-45.77,16,1.74,0,17.05-4.52,26.11-3.35,6.71-6.89,16.34-8.5,20.88,1.3,.28,2.64,.55,4.02,.79,2.12-6.39,10.01-27.86,20.05-26.61,11.78,1.47,7.05,10.08-1.3,15.19-6.13,3.76-13.65,9.1-17.23,11.68,3.03,.48,6.19,.81,9.4,.74,8.23-.19,12.25,2.19,13.81,3.47Z"></path><g id="d"><path fill="#ffae73" d="M1007,616.7c2.26,5.95,6.17,12.85,10.27,14.57,4.65,1.95,6.59,4.7,6.59,4.7l3.76-2.14,4.49-2.56s-.11-.49-.33-1.28c-.22-.79-.55-1.9-1.01-3.12,0,0-1.38-1.73-.53-3.92,.84-2.18,.67-5.54-.77-7.6-1.44-2.05-2.83-7.1-3.69-6.95-2.1,.35,1.03,7.3,.13,8.59-.81,1.17-1.83,.77-2.02,.68-.01,0-.02-.01-.04-.02-5.89-2.54-13.03-16.22-16.19-14.38-1.18,.69-1.64,10.9-.68,13.43Z"></path><g><path fill="#25468f" d="M1027.37,624.99l-7.37,5.08c-.52,.36-1.25,.23-1.61-.28l-18.89-26.36c-.37-.51-.24-1.22,.28-1.58l7.38-5.08c.52-.36,1.25-.23,1.61,.28l18.89,26.36c.37,.51,.24,1.22-.28,1.58Z"></path><path fill="#1e3865" d="M1020.62,629.64l-4.32,2.98c-.4,.27-.95,.18-1.23-.21l-19.21-26.8c-.28-.39-.18-.93,.21-1.2l4.32-2.98c.4-.27,.95-.18,1.23,.21l19.21,26.8c.28,.39,.18,.93-.21,1.2Z"></path></g><path fill="#1e3865" d="M1133.17,587.16s-37.53,64.18-51.14,75.99l-49.92-36.49s-7.24,2.18-10.42,9.31c0,0,38.37,60.63,60.16,63.13,29.76,3.42,71.74-72.59,71.74-72.59l-20.42-39.35Z"></path><g><path fill="#254c82" d="M1203.29,1024.78h21.68c2.73-1.45,5.16-4.78,5.93-9.74,1.06-6.85,8.89-10.58,10.58-16.19,1.69-5.6-6.99-13.48-6.99-13.48l-1.45-1.83-1.51-1.9-14.39,3.32s-.36,3.36-.57,7.64c-.16,3.09-.24,6.66-.06,9.79,.42,7.47-2.13,15.52-8.9,16.97-5,1.07-4.78,3.98-4.32,5.43Z"></path><path fill="#254c82" d="M1092.26,1023.7h49.59c2.38-2.85,1.51-13.38,1.15-16.82-.07-.69-.13-1.1-.13-1.1,0,0-16.93-13.28-19.26-3.11-.07,.32-.16,.63-.25,.94-2.93,9.51-16.07,13.83-23.66,15.04-4.93,.78-6.76,3.3-7.43,5.05Z"></path><path fill="#ff912b" d="M1101.7,752.29s2.57,31.46,5.59,69.27c4.11,51.36,9.05,114.46,9.54,126.41,.84,20.75,4.23,53.95,4.23,53.95,0,0,8.04,7.89,24.12,4.56,0,0,14.33-47.39,18.43-97.54,.06-.82,.13-1.65,.19-2.48,3.81-51.05,9.73-158.54,9.73-158.54l-71.84,4.36Z"></path><path fill="#fc7600" d="M1101.7,752.29s2.57,31.46,5.59,69.27l56.32,87.39c.06-.82,.13-1.65,.19-2.48,3.81-51.05,9.73-158.54,9.73-158.54l-71.84,4.36Z"></path><path fill="#ff912b" d="M1114.26,747.16s38.87,116.24,65.65,171.34c26.78,55.1,35.25,70.53,35.25,70.53,0,0,17.49-5.9,19.31-10.47,0,0-9.28-96.69-27.83-122.95-10.48-14.84-17.52-65.35-17.29-80.3,.23-14.95-1.5-44.66-1.5-44.66l-73.6,16.52Z"></path></g><path fill="#ffae73" d="M1124.98,589.95c18.11,5.6,49.44-9.52,49.44-9.52,0,0-16.7-12.29-15.82-37.84l-14,11.07-9.51,7.52s.04,4.43,1.08,12.2c0,.02,0,.04,0,.06,.52,3.88-1.08,7.76-4.26,10.12-4.47,3.31-6.93,6.4-6.93,6.4Z"></path><path fill="#f9924f" d="M1135.09,561.18s.04,4.43,1.08,12.2c10.54-1.77,22.49-18.48,22.49-18.48-5.37-1.52-10.06-1.79-14.06-1.23l-9.51,7.52Z"></path><path fill="#ffae73" d="M1129.55,560.76s29.91,4.87,32.72-13.44c2.81-18.31,8.56-30.02-10.42-33.9-18.98-3.89-23.77,2.55-26.22,8.44-2.45,5.89-3.79,37.16,3.92,38.9Z"></path><path fill="#25468f" d="M1099.7,754.91c.54,.44,1.18,.71,1.9,.71,6.8-.09,26.63,3.61,43.41,1.92,14.15-1.33,26.67-5.44,40.11-11.35,1.79-.78,5.9-2.94,5.8-4.89-.06-2.14-.28-5.25-.55-9.16-.95-13.61-2.61-37.02-.99-64.02,.29-5.03,.44-10.02,.46-14.93,.14-36.6-7.26-68.79-22.13-79.69-1.27-.89-9.07,2.84-16.23,6.31-6.62,3.2-11.71,3.52-17.96,2.28l-7.79,5.46c-7.62,6.94-15.96,16.36-19.59,30.68-3.09,12.18-4.9,34.15-5.9,56.91-.45,10.32-.82,20.72-.91,30.59v.35c-.09,.98-.09,2.05-.09,3.03-.36,25.34,0,45.44,.45,45.8Z"></path><path fill="#1e3865" d="M1190.39,732.14c-.95-13.61-2.61-37.02-.99-64.02,.29-5.03,.44-10.02,.46-14.93-6.2-14.74-11.26-25.42-11.26-25.42h-15.61s-11.45,76.68,27.41,104.37Z"></path><path fill="#25468f" d="M1162.3,545.55s-3.07-.5-2.57-4.65c.5-4.15,.49-9.57-2.95-8.56-3.44,1.01-3.61,3.71-5.02,2.13-1.41-1.58-1.44-8.22-11.67-8.68-10.23-.46-14.38,3.03-19.14,.98-4.76-2.05-5.01-9.11-5.01-9.11,0,0,1.35,2.52,3.4,3.32,0,0-7.94-10.64,1.25-17.94,9.19-7.3,18.56-2.52,23.87-2.2,11.71,.7,19.28,1.38,23.11,8.93,3.83,7.55,2.25,28.51-5.27,35.77Z"></path><g><path fill="#0d458e" d="M1390.11,1010.92c-.93,5.7,3.42,12.29,9.72,14.71,6.3,2.43,12.16-.23,13.09-5.93,.93-5.7-3.42-12.29-9.72-14.71-6.3-2.42-12.16,.23-13.09,5.93Z"></path><path fill="#0d458e" d="M1310.15,1011.08c-.93,5.7,3.42,12.29,9.72,14.71,6.3,2.43,12.16-.23,13.09-5.93,.93-5.7-3.42-12.29-9.72-14.71-6.3-2.42-12.16,.23-13.09,5.93Z"></path><path fill="#6b98f6" d="M1412.8,1009.48l-14.35,5.76c-1.45,.58-3.07,.87-4.78,.86l-90.18-.74-14.11-16.36,123.41,10.48Z"></path><path fill="#0d458e" d="M1320.47,820l-34.51-49.54-.05-.09c-.22-.44-5.72-11.05-34.92-13.93h-.13l-24.06-3.2c-3.12-.55-12.09-1.55-16.08,.48-1.77,.9-2.44,2.35-2.04,4.43,.79,4.12,23.72,36.25,38.93,56.84l-4.52,1.11c-3.91-5.29-38.23-51.85-39.36-57.78-.59-3.1,.65-5.45,3.68-6.99,6.53-3.31,19.11-1.26,20.44-1.03l23.73,3.14c31.45,3.12,38.38,14.79,39.07,16.13l34.39,49.37-4.57,1.05Z"></path><path fill="#6b98f6" d="M1261.29,810.18l-45.98,9.86s-12.64,5.82-3.3,30.77c8.22,21.95,51.29,145.13,51.29,145.13,0,0,8.97,25.63,61.45,18.08l-63.46-203.84Z"></path><path fill="#79afff" d="M1243.26,844.12l49.17,137.94c1.99,5.58,5.3,10.7,9.45,15,7.68,7.96,18.25,13.11,28.59,13.16l45.09,.19h1.12l28.24,.13c2.84,.01,5.48-.36,7.9-1.05,.57-.16,1.12-.34,1.66-.54,8.91-3.28,14.32-11.28,14.53-21.12,.09-4.19-.76-8.7-2.69-13.32l-54.99-131.97c-5.87-14.07-20.09-24.85-34.54-26.18l-8.15-.75-1.94-.18h0l-1.63-.15-27.25-2.5-3.34-.31-26.29-2.41c-4.13-.38-7.91,.03-11.26,1.09-.22,.07-.44,.14-.65,.22l-1.35,.51c-11.41,4.76-16.84,17.63-11.63,32.24Z"></path><g opacity=".5"><path fill="#6b98f6" d="M1301.87,997.07c7.68,7.96,18.25,13.11,28.59,13.16l45.09,.19h1.12l28.24,.13c2.84,.01,5.48-.36,7.9-1.05,.57-.16,1.12-.34,1.66-.54,8.91-3.28,17.05-15.19,13.9-27.8,0,0-95.55-1.06-114.64,2.08-9.85,1.62-11.03,8.84-11.85,13.84Z"></path></g><g><path fill="#6b98f6" d="M1325.04,815.28c.23,.12,24.46,12.88,30.15,24.12,5.85,11.55,59.95,146.23,60.5,147.59,.04,.11,3.97,13.13-4.22,22.85l1.34-.35c.57-.16,1.12-.34,1.66-.54,7.44-10.09,3.05-21.69,2.85-22.2-2.23-5.56-54.69-136.12-60.58-147.76-5.16-10.19-22.54-20.33-28.11-23.39l-1.94-.18h0l-1.63-.15Z"></path><path fill="#6b98f6" d="M1294.45,812.47c3.54,2.04,17.3,10.78,23.98,26.96,7.84,18.98,55.13,156.83,55.6,158.21l.03,.1,.05,.09c.04,.07,3.59,7.51,.3,12.57h2.25c3-5.41-.49-12.07-1.01-13-1.46-4.26-47.85-139.41-55.62-158.23-5.76-13.94-16.56-22.6-22.25-26.4l-3.34-.31Z"></path><path fill="#6b98f6" d="M1254.89,811.89c.1,.05,5.08,2.51,9.94,6.77,4.85,4.26,10.64,10.83,14.46,20.09,7.83,18.97,52.68,156.36,53.14,157.74l.03,.11,.06,.1c.04,.07,2.63,8.48-.66,13.54h2.84c2.32-4.61-.09-12.97-.64-13.96-1.43-4.39-45.38-138.97-53.16-157.79-7.31-17.7-21.12-25.8-24.01-27.33-.22,.07-.44,.14-.65,.22l-1.35,.51Z"></path></g></g><path fill="#ffae73" d="M1222.1,726.36s2.01,14.06,2.14,15.88c.94,12.37-.84,13.56,6.03,15.75,1.91,.61,7.09,.62,10.05-2.96,0,0-4.81-.3-3.98-7.09,.96-7.83,.46-5.61-4.38-12l-1.13-11.75-8.74,2.17Z"></path><path fill="#25468f" d="M1228.62,738.28c-5.62,1.07-11.72,.64-11.72,.64,0,0-16.69-50.57-18.84-55.19-2.15-4.62-49.59-59.3-49.59-59.3l19.76-48.5s51.31,84.04,56.52,95.85c8.61,19.51,11.6,63.27,11.6,63.27,0,0-3.31,2.38-7.73,3.22Z"></path><path fill="#ffae73" d="M1224.25,742.24s-1.21,3.09-1.25,4.53c-.13,4.64-1.45,6.8-.61,7.2,1.74,.85,3.48-2.78,4.14-5.93,.66-3.15-2.28-5.8-2.28-5.8Z"></path></g><g><path fill="#0b3563" d="M874.25,429.7c0-2.1-1.73-3.79-3.87-3.79s-3.87,1.7-3.87,3.79,1.73,3.79,3.87,3.79,3.87-1.7,3.87-3.79Z"></path><path fill="#0b3563" d="M877.31,425.63c-.32,0-.64-.11-.88-.34-2.03-1.88-4.13-2.79-6.25-2.71-3.29,.12-5.64,2.61-5.67,2.64-.48,.52-1.29,.56-1.82,.09-.53-.47-.57-1.26-.1-1.78,.12-.13,3.06-3.29,7.45-3.47,2.84-.12,5.59,1.03,8.15,3.4,.52,.48,.54,1.28,.05,1.79-.25,.26-.6,.4-.94,.4Z"></path><path fill="#0b3563" d="M881.32,420.15c-.32,0-.64-.11-.88-.34-3.38-3.12-6.9-4.63-10.46-4.49-5.54,.21-9.44,4.38-9.48,4.42-.48,.52-1.29,.56-1.82,.09-.53-.47-.57-1.26-.1-1.78,.19-.2,4.64-4.98,11.27-5.25,4.29-.18,8.45,1.57,12.36,5.18,.52,.48,.54,1.28,.05,1.79-.25,.26-.6,.4-.94,.4Z"></path><path fill="#0b3563" d="M885.55,414.81c-.32,0-.64-.11-.88-.34-4.79-4.43-9.8-6.57-14.89-6.37-7.9,.31-13.45,6.24-13.51,6.3-.48,.52-1.29,.56-1.82,.09-.53-.47-.57-1.26-.1-1.78,.25-.28,6.29-6.76,15.29-7.13,5.82-.24,11.47,2.14,16.79,7.05,.52,.48,.54,1.28,.05,1.79-.25,.26-.6,.4-.94,.4Z"></path></g><g><path fill="#0b3563" d="M622.26,413.64h-25.19c-.93,0-1.68-.74-1.68-1.64h0c0-.91,.75-1.64,1.68-1.64h25.19c.93,0,1.68,.74,1.68,1.64h0c0,.91-.75,1.64-1.68,1.64Z"></path><path fill="#0b3563" d="M622.26,420.92h-25.19c-.93,0-1.68-.74-1.68-1.64h0c0-.91,.75-1.64,1.68-1.64h25.19c.93,0,1.68,.74,1.68,1.64h0c0,.91-.75,1.64-1.68,1.64Z"></path><path fill="#0b3563" d="M622.26,428.69h-25.19c-.93,0-1.68-.74-1.68-1.64h0c0-.91,.75-1.64,1.68-1.64h25.19c.93,0,1.68,.74,1.68,1.64h0c0,.91-.75,1.64-1.68,1.64Z"></path></g><path fill="#f6fbff" d="M320.3,198.66s9.24-16.22,31.33-14.42c0,0,32.07-27.03,66.27-3.6,0,0,36.35-5.8,63.28,5.03,17.95,7.22,23.88,14.8,23.88,14.8l-184.75-1.8Z"></path><path fill="#f6fbff" d="M471.31,130s20.57-36.12,69.77-32.11c0,0,71.43-60.21,147.6-8.03,0,0,80.97-12.93,140.93,11.19,39.98,16.08,53.18,32.96,53.18,32.96l-411.48-4.01Z"></path><path fill="#f6fbff" d="M402.41,266.27s15.66-26.92,53.11-23.93c0,0,54.37-44.86,112.34-5.98,0,0,61.63-9.63,107.27,8.34,30.43,11.98,40.48,24.56,40.48,24.56l-313.19-2.99Z"></path><g><ellipse fill="#e9f1ff" ry="40.2" rx="41" cy="814.94" cx="758.24"></ellipse><path fill="#ff8732" d="M696.73,820.57c1.18,34.63,62.54,88.03,62.54,88.03,0,0,57.58-57.31,56.4-91.94-1.18-34.63-28.76-61.84-61.61-60.76-32.84,1.08-58.51,30.03-57.33,64.66Zm24.3-4.48c-.65-18.93,14.56-34.88,33.87-35.51,19.4-.64,35.57,14.28,36.21,33.21,.65,19.02-14.47,34.87-33.87,35.51-19.3,.63-35.56-14.19-36.21-33.21Z"></path></g><rect fill="#2d3554" ry="2.18" rx="2.18" height="4.36" width="1620" y="1023.64" x="0"></rect></g></g></g></svg>