<svg viewBox="0 0 1620 1028" xmlns="http://www.w3.org/2000/svg"><g id="a"></g><g id="b"><g id="c"><g><path fill="#e8f2fa" d="M1620,573.94c.01,5.37-.01,10.74-.09,16.11-.12,9.96-.39,19.91-.8,29.82-8.33,206.45-72.47,398.98-72.47,398.98l-375.79,.12h-32.04l-59.27,.03-94.25,.03-80.84,.03h0l-162.47,.06h-35.55l-80.76,.04-116.32,.03-116.32,.04-360.2,.12c-72.46-138.77-7.55-188.77,40.34-259.6,25.65-37.93,46.41-81.84,38.6-148.53-2.71-23.13-8.86-49.01-19.43-78.33-4.73-13.13-6.26-26.85-8.48-39.94-1.01-5.89-1.9-11.74-2.66-17.54-.21-1.54-.41-3.08-.6-4.61C43.49,169.42,198.79,27.46,440.35,3.66c189.54-18.68,268.17,38.03,317.94,83.02,164.71,148.87,177.32,8.3,529.91,39.43,191.2,16.89,279.4,133.73,313.56,277.64h0c2.34,9.82,4.42,19.77,6.26,29.82,.98,5.33,1.89,10.69,2.74,16.08,1.56,9.86,2.89,19.81,4.02,29.82,.65,5.66,1.23,11.34,1.74,17.04,.9,9.89,1.62,19.85,2.15,29.82,.33,5.91,.58,11.85,.79,17.79,.33,9.93,.51,19.87,.54,29.82Z"></path><g><path fill="#dfebfa" d="M1318.09,449.95h-37.52v-80.77c-.58-.32-1.16-.64-1.74-.96h-11.19v-.04h-65.08v.04h-.05v12.11h.05v8.33h-.05v12.1h.05v8.36h-.05v12.11h.05v.04l-6.89-.04v-63.34h-73.03v8.02h-.04v12.1h.04v10.64h-.04v12.1h.04v8.36h-.04v12.11h.04v7.73h-.04v12.11h.04v7.73h-.04v12.11h.04v7.28h-.04v7.69h.04v.84h-82.32v69.29h-30.75v17.45h-33.16v-30.06h-59.65v-81.67h-9.33v-8.14h-1.33v8.14h-46.43v-8.14h-1.33v8.12h-10.08v41.07l-50.1-.23v25.35h-42.48v-156.7h-125.86v167.87h-38.44v-90.77h-125.86v587.26l860.04-3.16-7.45-572.45Z"></path><polygon fill="#dfebfa" points="465.61 545.24 465.61 600.28 465.61 682.16 465.61 1021.56 358.38 1021.56 358.38 682.16 358.38 600.28 358.38 545.24 465.61 545.24"></polygon><rect fill="#eef6ff" height="26.56" width="93.48" y="361.21" x="662.17"></rect><rect fill="#eef6ff" height="26.56" width="93.48" y="402.09" x="662.17"></rect><rect fill="#eef6ff" height="26.56" width="93.48" y="443.83" x="662.17"></rect><rect fill="#eef6ff" height="26.56" width="93.48" y="486.23" x="662.17"></rect><rect fill="#eef6ff" height="26.56" width="93.48" y="527.14" x="662.17"></rect><g><rect fill="#eef6ff" height="16.13" width="46.74" y="357.88" x="1122.64"></rect><rect fill="#eef6ff" height="16.13" width="46.74" y="382.71" x="1122.64"></rect><rect fill="#eef6ff" height="16.13" width="46.74" y="408.06" x="1122.64"></rect><rect fill="#eef6ff" height="16.13" width="46.74" y="433.81" x="1122.64"></rect><rect fill="#eef6ff" height="16.13" width="46.74" y="458.65" x="1122.64"></rect></g><g><rect fill="#eef6ff" height="16.13" width="46.74" y="486" x="1122.64"></rect><rect fill="#eef6ff" height="16.13" width="46.74" y="510.83" x="1122.64"></rect><rect fill="#eef6ff" height="16.13" width="46.74" y="536.17" x="1122.64"></rect><rect fill="#eef6ff" height="16.13" width="46.74" y="561.92" x="1122.64"></rect><rect fill="#eef6ff" height="16.13" width="46.74" y="586.77" x="1122.64"></rect></g><g><rect fill="#eef6ff" height="16.13" width="46.74" y="368.46" x="1202.65"></rect><rect fill="#eef6ff" height="16.13" width="46.74" y="393.29" x="1202.65"></rect><rect fill="#eef6ff" height="16.13" width="46.74" y="418.64" x="1202.65"></rect><rect fill="#eef6ff" height="16.13" width="46.74" y="444.39" x="1202.65"></rect><rect fill="#eef6ff" height="16.13" width="46.74" y="469.23" x="1202.65"></rect></g><g><rect fill="#eef6ff" height="16.13" width="46.74" y="495.14" x="1202.65"></rect><rect fill="#eef6ff" height="16.13" width="46.74" y="519.96" x="1202.65"></rect><rect fill="#eef6ff" height="16.13" width="46.74" y="545.31" x="1202.65"></rect><rect fill="#eef6ff" height="16.13" width="46.74" y="571.06" x="1202.65"></rect><rect fill="#eef6ff" height="16.13" width="46.74" y="595.91" x="1202.65"></rect></g><g><rect fill="#eef6ff" height="16.13" width="46.74" y="624.4" x="1202.65"></rect><rect fill="#eef6ff" height="16.13" width="46.74" y="649.23" x="1202.65"></rect><rect fill="#eef6ff" height="16.13" width="46.74" y="674.57" x="1202.65"></rect><rect fill="#eef6ff" height="16.13" width="46.74" y="700.32" x="1202.65"></rect><rect fill="#eef6ff" height="16.13" width="46.74" y="725.17" x="1202.65"></rect></g><rect fill="#dfebfa" height="32.91" width="2.32" y="444.39" x="1055.64"></rect><rect fill="#dfebfa" height="63.74" width="3.61" y="416.12" x="1094.71"></rect><rect fill="#dfebfa" height="11.74" width="1.5" y="349.47" x="638.15"></rect><rect fill="#dfebfa" height="11.74" width="1.5" y="349.47" x="670.01"></rect><rect fill="#dfebfa" height="11.74" width="1.5" y="349.47" x="743.04"></rect><rect fill="#dfebfa" height="9.06" width="1.16" y="348.83" x="1129.88"></rect><rect fill="#dfebfa" height="9.06" width="1.16" y="348.83" x="1184.7"></rect><rect fill="#dfebfa" height="11.74" width="1.5" y="349.47" x="714.49"></rect></g><path fill="#afcdfb" d="M1244.98,881.77c-13.62,4.98-103.8,14.12-100.09,25.14,3.72,11.02,66.75,22.14,99.42,8.12,0,0-26.51,93.42-76.18,94.51-49.67,1.08-68.47-26.53-99.15-25.32-30.69,1.21-51.94,11.64-35.77,17.81,16.17,6.17,66.98-5.01,94.01,12.33,3.97,2.54,7.82,4.94,11.35,7.21,2.13,1.37,4.14,2.7,6.01,3.99h-180.69c0-1.41,0-2.74-.04-3.99-.16-7.34-.81-11.54-.81-11.54,0,0-93.51-37.4-60.46-106.4,0,0,27.91-43.23,61.75-57.39,0,0-6.97,98.06,12.02,98.18,18.99,.13-.4-109.81-.4-109.81,0,0,87.14-53.42,123.81-54.17,0,0-45.84,100.21-27.4,95.82,18.43-4.39,71.15-106.52,71.15-106.52,0,0,92.66-27.73,114.49,24.71,21.84,52.44,.59,82.33-13.03,87.31Z"></path><path fill="#cde0fb" d="M504.48,194.29c16.57-45.51,96.67-25.23,96.67-25.23,0,0,48.94,85.18,64.83,88.25,15.89,3.07-27.1-80.71-27.1-80.71,31.3-.69,107.69,41.69,107.69,41.69,0,0-12.24,94.45,3.94,93.65,16.19-.8,6.42-84.16,6.42-84.16,29.41,10.84,54.9,46.7,54.9,46.7,30.88,57.63-47.4,92.92-47.4,92.92,0,0-3.51,32.82,14.66,72.04h0s4.22,7.3,8.15,19.49l-8.2-.58c-.51-2.17-1.09-4.27-1.76-6.3,0-.02,0-.03-.01-.04,0-.03-.02-.06-.03-.09-.47-1.26-1.14-3.06-1.99-5.25h0s0-.01,0-.02c-2.14-4.91-3.57-8.53-4.45-11.13,0,0,0-.02,0-.02-6.37-15.39-15.71-35.51-22.61-40.08,0,0,1-1.17,2.03-3.5-.65,1.12-1.32,2.28-2.03,3.5-16.25,28.02-86.79,27.88-125.29,17.36-38.51-10.52-20.65-19.95,1.72-35.72,22.37-15.78,66.13-8.09,79.68-13.94,13.55-5.85-4.98-13.97-31.19-13.89-26.21,.08-41.16,24.31-83.56,25.19-42.4,.88-68.65-77.82-68.65-77.82,28.41,10.77,81.72-1,84.46-10.53,2.74-9.53-74.52-14.05-86.33-17.8-11.81-3.76-31.09-28.47-14.51-73.98Z"></path><path fill="#dfebf9" d="M1122.48,245.6c-12.84-35.25-74.87-19.54-74.87-19.54,0,0-37.9,65.97-50.21,68.35-12.31,2.38,20.99-62.51,20.99-62.51-24.24-.54-83.4,32.29-83.4,32.29,0,0,9.48,73.15-3.05,72.53-12.54-.62-4.97-65.18-4.97-65.18-22.78,8.4-42.52,36.17-42.52,36.17-23.92,44.64,36.71,71.97,36.71,71.97,0,0,2.72,25.42-11.36,55.8h0s-3.27,5.66-6.31,15.09l6.35-.45c.39-1.68,.84-3.31,1.36-4.88,0-.01,0-.02,.01-.03,0-.02,.02-.04,.02-.07,.36-.98,.89-2.37,1.54-4.07h0s0-.01,0-.01c1.66-3.8,2.76-6.6,3.44-8.62,0,0,0-.01,0-.02,4.94-11.92,12.17-27.5,17.51-31.04,0,0-.78-.9-1.57-2.71,.5,.87,1.02,1.77,1.57,2.71,12.58,21.7,67.22,21.59,97.04,13.45,29.82-8.15,15.99-15.45-1.33-27.67-17.32-12.22-51.22-6.27-61.71-10.79-10.49-4.53,3.86-10.82,24.16-10.76,20.3,.06,31.88,18.83,64.72,19.51,32.84,.68,53.17-60.27,53.17-60.27-22,8.34-63.29-.78-65.41-8.16-2.12-7.38,57.72-10.88,66.86-13.79,9.15-2.91,24.08-22.05,11.24-57.3Z"></path><path fill="#afcdfb" d="M444.11,649.33c11.91-47.39,94.6-34.79,94.6-34.79,0,0,58.13,80.91,74.44,82.45,16.31,1.54-35.71-78.54-35.71-78.54,31.41-3.75,112.68,31.45,112.68,31.45,0,0-2.44,96.2,13.76,93.82,16.2-2.38-2.35-85.28-2.35-85.28,30.72,8.04,60.1,41.62,60.1,41.62,37.09,54.96-37.96,98.09-37.96,98.09,0,0-.1,33.35,22.28,71.04h0s5.01,6.94,10.23,18.81l-8.31,.21c-.74-2.13-1.54-4.19-2.43-6.17,0-.02,0-.03-.02-.04-.01-.03-.03-.06-.04-.09-.6-1.22-1.47-2.97-2.55-5.09h0s0-.01,0-.02c-2.67-4.73-4.48-8.23-5.64-10.76,0,0,0-.02,0-.02-8.02-14.86-19.52-34.19-26.94-38.11,0,0,.88-1.27,1.68-3.72-.53,1.19-1.09,2.42-1.68,3.72-13.41,29.77-84.38,36.5-124.22,29.67-39.83-6.83-22.86-18.05-2.01-36.1,20.85-18.05,65.67-14.58,78.69-21.78,13.02-7.2-6.47-13.57-32.83-10.93-26.36,2.64-38.86,28.46-81.42,33.48-42.56,5.01-77.19-71.59-77.19-71.59,29.7,8.07,82.09-8.97,83.85-18.82,1.76-9.85-76.43-6.87-88.7-9.5-12.27-2.63-34.25-25.61-22.34-73Z"></path><path fill="#afcdfb" d="M1209.34,692.07c21.81-35.57-36.11-75.11-36.11-75.11,0,0-84.88,15.95-95.72,7.58-10.85-8.37,69.81-27.31,69.81-27.31-16.77-20.2-87.68-45.21-87.68-45.21,0,0-57.47,59.8-65.85,49.11-8.38-10.69,53.68-50.44,53.68-50.44-23.58-12.65-62-9.03-62-9.03-56.2,12.21-37.06,81.22-37.06,81.22,0,0-20.38,20.31-57.06,30.41h0s-7.29,1.35-17.74,5.58l4.91,4.87c1.75-.87,3.51-1.66,5.25-2.36,.01,0,.02-.01,.03-.01,.02-.01,.05-.02,.08-.03,1.12-.4,2.71-.96,4.66-1.64h.02c4.52-1.35,7.76-2.44,10.01-3.32,0,0,.01,0,.02,0,13.97-4.44,32.8-9.62,39.71-7.77,0,0,.24-1.28,1.26-3.22-.4,1.03-.82,2.1-1.26,3.22-10.1,25.73,28.87,70.31,57.24,88.9,28.37,18.58,24.94,2.08,23.34-20.77-1.6-22.86-30.94-46.33-34.43-58.13-3.49-11.8,12.24-4.54,26.63,12.1,14.39,16.64,6.15,39.46,28.92,66.78,22.77,27.33,90.74,.58,90.74,.58-22.98-12.05-44.35-52.29-39.38-59.28,4.97-6.99,50.61,39.44,59.67,44.85,9.06,5.41,36.49,4,58.29-31.57Z"></path><g><g><path fill="#fff" d="M707.93,291.61h295.51c38.39,0,69.56,31.17,69.56,69.56V953.41c0,38.39-31.17,69.56-69.56,69.56h-295.51c-38.39,0-69.56-31.17-69.56-69.56V361.18c0-38.39,31.17-69.56,69.56-69.56Z"></path><path fill="#2b478b" d="M1032.71,1027.85h-354.06c-25,0-45.34-19.63-45.34-43.76V330.49c0-24.13,20.34-43.76,45.34-43.76h354.06c25,0,45.34,19.63,45.34,43.76V984.1c0,24.13-20.34,43.76-45.34,43.76ZM678.65,296.49c-19.43,0-35.23,15.25-35.23,34V984.1c0,18.75,15.8,34,35.23,34h354.06c19.42,0,35.23-15.25,35.23-34V330.49c0-18.75-15.8-34-35.23-34h-354.06Z"></path></g><rect fill="#dceaff" height="59.56" width="145.41" y="375.19" x="658.53"></rect><rect fill="#dceaff" height="59.56" width="145.41" y="454.34" x="658.53"></rect><rect fill="#dceaff" transform="translate(1317.15 -428.07) rotate(90)" height="66.38" width="140.33" y="411.35" x="802.45"></rect><ellipse fill="#dceaff" ry="66.73" rx="69.15" cy="712.22" cx="789.56"></ellipse><rect fill="#dceaff" height="10.36" width="396.14" y="712.22" x="658.53"></rect><rect fill="#dceaff" height="10.36" width="385.4" y="530.33" x="658.53"></rect><rect fill="#dceaff" transform="translate(1510.81 -76.01) rotate(90)" height="10.74" width="354.32" y="712.03" x="616.25"></rect><rect fill="#dceaff" transform="translate(1594.44 -504.16) rotate(90)" height="10.74" width="354.32" y="539.77" x="872.14"></rect><rect fill="#dceaff" transform="translate(1562.99 -293.24) rotate(90)" height="10.74" width="519.37" y="629.51" x="668.43"></rect><ellipse fill="#fff" ry="44.94" rx="46.57" cy="712.22" cx="789.56"></ellipse><rect fill="#dceaff" height="79.59" width="53.11" y="553.38" x="812.86"></rect><rect fill="#dceaff" height="57.19" width="51.77" y="613.28" x="658.53"></rect><rect fill="#dceaff" height="49.96" width="104.17" y="553.38" x="658.53"></rect><rect fill="#dceaff" height="49.48" width="37.15" y="553.38" x="874.94"></rect><rect fill="#dceaff" height="82.68" width="37.15" y="613.28" x="874.94"></rect><rect fill="#dceaff" height="48.95" width="37.15" y="732.39" x="874.94"></rect><rect fill="#dceaff" height="142.58" width="29.97" y="553.38" x="957.35"></rect><rect fill="#dceaff" height="142.58" width="37.15" y="553.38" x="997.05"></rect><rect fill="#dceaff" height="142.58" width="52.87" y="373.26" x="978.34"></rect><rect fill="#dceaff" height="156.95" width="103.01" y="737.61" x="951.66"></rect><rect fill="#dceaff" height="59.36" width="102.52" y="835.2" x="809.57"></rect><rect fill="#dceaff" height="31.46" width="102.52" y="792.54" x="809.57"></rect><rect fill="#dceaff" height="102.02" width="92.09" y="792.54" x="658.53"></rect><rect fill="#dceaff" height="54.97" width="38.77" y="728.13" x="658.53"></rect><path fill="#f99746" d="M1003.69,979.43c-23.33,0-44.62-11.96-56.44-30.98-15.87-25.55-45.24-42.69-78.85-42.69h-209.87v75.7c0,12.89,11.06,23.34,24.7,23.34h351.47c11.03,0,19.97-8.45,19.97-18.88v-6.49h-50.98Z"></path><g><path fill="#f99746" d="M975.92,938.05c0-15,12.6-27.16,28.14-27.16s28.14,12.16,28.14,27.16-12.6,27.16-28.14,27.16-28.14-12.16-28.14-27.16Z"></path><polygon fill="#fff" points="987.48 939.3 1014.65 926.2 1006.28 955.09 999.59 944.05 987.48 939.3"></polygon></g><rect fill="#fff" height="6.35" width="154.02" y="961.17" x="742.78"></rect><rect fill="#ed7d2b" height="6.35" width="70.2" y="961.17" x="672.58"></rect><polygon fill="#233862" points="731.02 942.48 783.58 964.81 729.9 987.95 738.49 965.21 731.02 942.48"></polygon><path fill="#fff" d="M906.22,964.35c0-5.83,4.9-10.56,10.95-10.56s10.95,4.73,10.95,10.56-4.9,10.56-10.95,10.56-10.95-4.73-10.95-10.56Z"></path><path fill="#afcdfb" d="M697.74,296.77h315.95c29.91,0,54.19,24.28,54.19,54.19h-424.32c0-29.91,24.28-54.19,54.19-54.19Z"></path></g><g id="d"><path fill="#ffb27d" d="M1493.89,587.16c-2.46,6.38-6.73,13.8-11.2,15.64-5.07,2.09-7.19,5.04-7.19,5.04l-4.1-2.3-4.89-2.75s.12-.52,.36-1.38c.24-.85,.6-2.04,1.1-3.35,0,0,1.5-1.86,.58-4.2-.92-2.34-.74-5.95,.83-8.15,1.57-2.2,3.08-7.62,4.03-7.46,2.29,.38-1.12,7.84-.15,9.22,.89,1.25,1.99,.82,2.2,.73,.01,0,.03-.01,.04-.02,6.42-2.72,14.21-17.41,17.66-15.43,1.29,.74,1.79,11.69,.74,14.41Z"></path><g><path fill="#2b478b" d="M1471.67,596.05l8.04,5.46c.57,.39,1.36,.25,1.76-.3l20.61-28.29c.4-.55,.26-1.31-.31-1.7l-8.04-5.46c-.57-.39-1.36-.25-1.76,.3l-20.61,28.29c-.4,.55-.26,1.31,.31,1.7Z"></path><path fill="#233862" d="M1479.04,601.04l4.72,3.2c.43,.29,1.03,.19,1.34-.23l20.95-28.77c.3-.42,.2-1-.23-1.29l-4.72-3.2c-.43-.29-1.03-.19-1.34,.23l-20.95,28.77c-.3,.42-.2,1,.23,1.29Z"></path></g><path fill="#233862" d="M1356.28,555.45s40.93,68.89,55.78,81.57l54.45-39.17s7.9,2.34,11.36,9.99c0,0-33.06,65-65.61,67.76-32.55,2.76-78.24-77.91-78.24-77.91l22.27-42.23Z"></path><g><path fill="#233862" d="M1263.66,1024.01h-23.65c-2.98-1.56-5.63-5.13-6.47-10.46-1.15-7.35-9.69-11.36-11.54-17.38-1.84-6.01,7.62-14.47,7.62-14.47l1.58-1.97,1.65-2.04,15.7,3.57s.39,3.61,.62,8.2c.17,3.31,.26,7.15,.07,10.51-.46,8.02,2.32,16.65,9.71,18.21,5.46,1.15,5.21,4.28,4.71,5.83Z"></path><path fill="#233862" d="M1400.9,1024.01h-54.08c-2.6-3.06-1.64-14.37-1.25-18.06,.08-.74,.14-1.18,.14-1.18,0,0,18.47-14.25,21-3.34,.08,.34,.17,.68,.27,1.01,3.2,10.21,17.53,14.85,25.81,16.14,5.38,.84,7.37,3.54,8.11,5.42Z"></path><path fill="#f99746" d="M1390.6,732.69s-2.8,33.76-6.1,74.35c-4.48,55.13-9.87,122.85-10.4,135.68-.92,22.28-4.62,57.91-4.62,57.91,0,0-8.77,8.47-26.31,4.9,0,0-15.63-50.87-20.1-104.69-.07-.88-.14-1.77-.21-2.66-4.15-54.79-10.61-170.17-10.61-170.17l78.35,4.68Z"></path><path fill="#ed7d2b" d="M1390.6,732.69s-2.8,33.76-6.1,74.35l-61.43,93.8c-.07-.88-.14-1.77-.21-2.66-4.15-54.79-10.61-170.17-10.61-170.17l78.35,4.68Z"></path><path fill="#f99746" d="M1377.79,736.7s-50.55,122.28-83.78,179.74c-33.24,57.46-43.62,73.5-43.62,73.5,0,0-19.04-7.35-20.77-12.36,0,0,12.71-110.94,34.97-137.98,12.58-15.28,27.35-61.14,28.04-77.18,.69-16.04,4.5-47.77,4.5-47.77l80.67,22.05Z"></path></g><path fill="#ffb27d" d="M1365.21,558.44c-19.75,6.02-53.93-10.22-53.93-10.22,0,0,18.21-13.19,17.26-40.61l15.27,11.88,10.37,8.07s-.04,4.76-1.18,13.09c-.3,2.19-.67,4.64-1.14,7.31,8.48,4.49,13.34,10.49,13.34,10.49Z"></path><path fill="#ed975d" d="M1354.18,527.56s-.04,4.76-1.18,13.09c-11.5-1.9-24.53-19.83-24.53-19.83,5.85-1.63,10.98-1.92,15.34-1.33l10.37,8.07Z"></path><path fill="#ffb27d" d="M1360.23,527.11s-32.63,5.23-35.69-14.43c-3.06-19.66-9.34-32.22,11.37-36.39,20.7-4.17,25.93,2.74,28.6,9.06,2.68,6.32,4.13,39.89-4.28,41.75Z"></path><path fill="#2b478b" d="M1392.78,735.5c-.59,.48-1.28,.76-2.08,.76-7.42-.1-29.05,3.88-47.35,2.06-15.43-1.43-29.09-5.84-43.75-12.18-1.95-.84-6.43-3.15-6.33-5.25,.07-2.3,.3-5.64,.6-9.84,1.04-14.61,2.85-39.73,1.08-68.72-.32-5.4-.48-10.75-.5-16.02-.15-39.29,7.92-73.84,24.14-85.53,1.39-.96,9.89,3.05,17.71,6.77,7.22,3.44,14.44,3.82,21.26,2.48l6.82,5.82c8.31,7.44,17.41,17.56,21.37,32.93,3.37,13.08,5.34,36.65,6.43,61.09,.49,11.07,.89,22.24,.99,32.84v.38c.1,1.05,.1,2.2,.1,3.25,.4,27.2,0,48.77-.49,49.16Z"></path><path fill="#233862" d="M1293.87,711.06c1.04-14.61,2.85-39.73,1.08-68.72-.32-5.4-.48-10.75-.5-16.02,6.76-15.82,12.28-27.29,12.28-27.29h17.03s12.49,82.3-29.89,112.03Z"></path><g><path fill="#233862" d="M1206.63,804.34l72.64,9.99c9.45,1.3,18.29-5.1,19.64-14.22l4.49-30.38c1.35-9.12-5.29-17.65-14.74-18.95l-72.64-9.99c-9.45-1.3-18.29,5.1-19.64,14.22l-4.49,30.38c-1.35,9.12,5.29,17.65,14.74,18.95Z"></path><path fill="#2b478b" d="M1292.76,759.83h0c-2.04-4.93-6.45-8.83-12.03-10.15h0s0,0-.01,0c-.55-.13-1.1-.24-1.68-.31l-14.46-1.99,.97-6.56c.22-1.46-.17-2.92-1.09-4.11-.92-1.18-2.27-1.96-3.79-2.16l-3.77-.52-15.19-2.09-2.74-.38c-3.14-.43-6.06,1.68-6.5,4.71l-.97,6.56-24.97-3.44c-9.49-1.3-18.36,5.12-19.71,14.28l-4.53,30.73c-1.35,9.16,5.31,17.71,14.79,19.02l72.51,9.97c1.28,.18,2.55,.21,3.78,.12h.01c1.98-.14,3.89-.62,5.66-1.38,5.33-2.27,9.38-7.07,10.26-13.02l4.54-30.73c.44-3,.03-5.92-1.06-8.56Zm-56.74-23.06c.14-.92,.88-1.61,1.78-1.75,.21-.03,.42-.04,.65,0l3.23,.44,11.95,1.65,6.52,.9c1.17,.16,1.99,1.21,1.82,2.34l-.97,6.56-25.95-3.57,.97-6.55Z"></path></g><path fill="#ffb27d" d="M1261.87,713.89s-3.82,4.9-3.97,6.86c-1.03,13.28,5.26,15.12-11.02,22.49,0,0-6.95,2.56-7.07-2.65-.12-5.21,4.82-5.29,3.92-12.58-1.04-8.41-.94-8.49,4.78-12.88l3.79-6.04,9.56,4.79Z"></path><path fill="#2b478b" d="M1252.17,717.65c6.13,1.15,12.78,.69,12.78,.69,0,0,18.21-54.28,20.55-59.24,2.34-4.96,54.08-63.64,54.08-63.64l-21.55-52.05s-55.96,90.21-61.64,102.88c-9.39,20.95-12.65,67.91-12.65,67.91,0,0,3.61,2.55,8.43,3.46Z"></path><path fill="#2b478b" d="M1324.51,510.79s3.35-.54,2.81-4.99c-.54-4.45-.53-10.27,3.22-9.18,3.75,1.08,3.94,3.98,5.48,2.29,1.54-1.69,1.57-8.82,12.72-9.32,11.16-.5,15.69,3.25,20.88,1.05,5.19-2.2,5.46-9.78,5.46-9.78,0,0-1.48,2.71-3.7,3.57,0,0,8.66-11.42-1.37-19.26-10.02-7.83-20.24-2.71-26.04-2.37-12.78,.75-21.03,1.49-25.2,9.59-4.17,8.1-2.45,30.6,5.75,38.4Z"></path><path fill="#ffb27d" d="M1255.85,719.73s3.67,3.69,3.91,5.23c.74,4.93,2.45,7.07,1.6,7.6-1.78,1.12-4.13-2.54-5.26-5.82-1.12-3.28-.24-7.02-.24-7.02Z"></path></g><path fill="#2e3552" d="M1576.09,1024.34v.91c0,1.52-.8,2.76-1.77,2.76H1.77c-.98,0-1.77-1.24-1.77-2.76v-.91c0-1.52,.8-2.76,1.77-2.76H1574.32c.98,0,1.77,1.24,1.77,2.76Z"></path><path fill="#f99746" d="M270.54,384.16c-33.03,0-59.81,27.11-59.81,60.54s59.81,99.21,59.81,99.21c0,0,59.81-65.77,59.81-99.21s-26.78-60.54-59.81-60.54Zm0,85.26c-16.63,0-30.12-13.01-30.12-29.06s13.48-29.06,30.12-29.06,30.12,13.01,30.12,29.06-13.48,29.06-30.12,29.06Z"></path><path fill="#415da5" d="M377.56,776.57c-1.5-4.87,1.38-10,6.43-11.45,5.05-1.45,10.36,1.33,11.86,6.2,1.5,4.87-1.38,10-6.43,11.45-5.05,1.45-10.36-1.33-11.86-6.2Z"></path><path fill="#2c3a64" d="M292.16,632.03c-.07-.85-1.11-10.05-15.69-10.01,0,0,7.19,.56,8.55,3.56,0,0-5.02-3.58-8.94-2.23-3.92,1.35-5.99,8.15-5.93,10.36,.06,2.21,2.54,9.25,5.09,9.76,.96,.19,2.06,.09,3.05-.11-.63,1.03-1.25,2.17-1.82,3.44-5.36,11.72,1.07,22.75,5.94,21.33,3.12-.91,4.22,4.25,4.22,4.25l29.72-25.05s-12.13-22.07-24.17-15.3Z"></path><path fill="#ed975d" d="M281.93,783.39s5.47,10.99,12.39,26.22c7.76,17.08,17.33,39.49,23.03,57.71,3.02,9.64,4.95,18.1,4.96,23.99,0,2.02-8.07,10.22-10.4,13.35-14.7,19.75-34.79,46.12-34.79,46.12l-5.48-1.33s7.68-32.98,18.86-49.45c2.2-3.24,8.4-7.18,8.1-7.54,0,0,0,0-.01-.01-.97-1.17-3.37-4.09-6.66-8.27-9.07-11.52-24.81-32.5-35.35-52.02-.66-1.22-1.29-2.43-1.91-3.63-5.56-10.89-9.23-21.1-8.87-28.67l36.12-16.46Z"></path><g><path fill="#233862" d="M266.79,950.71l3.77,2.3c1.39,.58,2.55,.8,3.96,1.42,2.13,.95,2.53,2.28,2.59,2.57,0,.04,.01,.06,.01,.06l16.03,9.78c.77-.31,1.22-1.83,1.47-3.01,.17-.8-.07-1.63-.63-2.24-1.39-1.51-4.46-3.98-5.77-8.53-.74-2.56-4.71-10.62-4.71-10.62l-.03-.03c-.15-.09-.97-.3-5.58,.31-2.38,.31-3.03-4.35-3.03-4.35,0,0-.76,.09-1.61,.61-.68,.4-1.42,1.07-1.9,2.16-.67,1.54-3.14,3.66-4.91,5.03-1.07,.83-1.88,1.39-1.88,1.39,0,0-.75,.76,2.23,3.14Z"></path><path fill="#233862" d="M273.24,938.98c.5,1.16,1.61,3.53,2.77,4.46,1.56,1.25,7.49-.99,7.49-.99l-.03-.03c-.15-.09-.97-.3-5.58,.31-2.38,.31-3.03-4.35-3.03-4.35,0,0-.76,.09-1.61,.61Z"></path><path fill="#233862" d="M266.79,950.71l3.77,2.3c1.39,.58,2.55,.8,3.96,1.42,2.13,.95,2.53,2.28,2.59,2.57,0,.04,.01,.06,.01,.06l16.03,9.78c.77-.31,1.22-1.83,1.47-3.01-.21-.71-1.81,1.43-2.31,1.62-.5,.19-13.16-7.85-13.56-8.82-.4-.97-2.02-3.23-5.58-4.41-3.1-1.02-6.02-5.04-6.73-6.06-1.07,.83-1.88,1.39-1.88,1.39,0,0-.75,.76,2.23,3.14Z"></path></g><polygon fill="#415da5" points="286.55 960.44 243.51 830.52 250.76 828.29 293.81 958.2 286.55 960.44"></polygon><polygon fill="#f99746" points="282.93 960.81 181.34 952.28 369.75 829.35 358.97 850.65 203.42 946.75 283.59 953.48 282.93 960.81"></polygon><polygon fill="#f99746" points="296.62 955.05 290.22 951.07 368.39 830.22 377.5 839.31 296.62 955.05"></polygon><path fill="#415da5" d="M307.3,937.82l14.3,7.97c1.68,.94,2.26,3.03,1.29,4.65h0c-.97,1.62-3.14,2.18-4.82,1.25l-14.3-7.97c-1.68-.94-2.26-3.03-1.29-4.65h0c.97-1.62,3.14-2.18,4.82-1.25Z"></path><polygon fill="#415da5" points="310.13 942.96 292.1 962.21 290.44 960.82 308.47 941.56 310.13 942.96"></polygon><path fill="#f99746" d="M252.07,877c-1.07,.36-2.26,.25-3.23-.32h0c-34.27-19.98-81.68-12.47-95.4-9.69h-.02c-.76,.16-1.47-.4-1.47-1.14v-2.58c0-1.98,1.5-3.66,3.52-3.95,7.42-1.07,24.75-3.35,34.44-3.39,.26,0,.52,0,.78,0,21.69,0,40.43,3.75,55.82,11.15,3.14,1.51,6.79,1.72,10.1,.6l4.22-1.43c2.41-.82,5.06,.41,5.9,2.73h0c.55,1.5-.27,3.15-1.83,3.68l-12.84,4.35Z"></path><path fill="#415da5" d="M220.22,826.65s-1.38-6.03,2.54-6.43c3.92-.41,18.2,2.55,22.01,2.14,3.81-.41,23.71-3.57,27.2-.31,3.49,3.27,2.01,6.13-4.97,6.74-6.99,.61-16.3,1.74-18.95,3.88-2.65,2.14-21.8,8.48-27.84-6.03Z"></path><ellipse fill="#415da5" ry="18.38" rx="19.05" cy="959.32" cx="290.18"></ellipse><g><polygon fill="#afcdfb" points="186.5 949.11 165.33 892.19 166.93 891.64 188.09 948.56 186.5 949.11"></polygon><polygon fill="#afcdfb" points="128.08 975.33 127.41 973.83 187.31 949 226.68 894.71 228.07 895.65 188.42 950.31 188.19 950.41 128.08 975.33"></polygon><path fill="#afcdfb" d="M164.11,1012.42l-1.61-.52c.42-1.23,23.58-60.04,24.57-62.54l.6-1.53,37.31,56.94-1.43,.87-35.5-54.18c-8.48,21.54-23.62,60.01-23.94,60.95Z"></path><polygon fill="#afcdfb" points="187.72 946.37 121.25 935.34 121.54 933.73 188 944.76 187.72 946.37"></polygon><polygon fill="#afcdfb" points="192.9 945.42 191.29 944.9 210.77 888.52 212.37 889.04 192.9 945.42"></polygon><polygon fill="#afcdfb" points="187.73 950.51 187.48 950.38 126.51 920.56 127.28 919.1 188 948.8 253.34 938.23 253.62 939.84 187.73 950.51"></polygon><path fill="#afcdfb" d="M212.46,1010.38c-.36-1.02-16.01-38.17-24.76-58.95l-33.84,51.37-1.43-.88,35.6-54.04,.62,1.47c1.02,2.42,24.99,59.28,25.42,60.51l-1.61,.52Z"></path><polygon fill="#afcdfb" points="122.36 959.86 122.12 958.24 187.74 948.85 187.99 950.46 122.36 959.86"></polygon><polygon fill="#afcdfb" points="183.83 941.2 147.43 900.76 148.7 899.68 185.11 940.13 183.83 941.2"></polygon><polygon fill="#afcdfb" points="185.74 1013.46 184.05 1013.32 189.13 954.08 190.82 954.22 185.74 1013.46"></polygon><polygon fill="#afcdfb" points="242.42 985.87 184.41 947.06 185.38 945.71 243.38 984.53 242.42 985.87"></polygon><polygon fill="#afcdfb" points="139.78 993.54 138.57 992.39 187.01 945.23 187.01 883.88 188.71 883.88 188.71 945.91 139.78 993.54"></polygon></g><path fill="#699dee" d="M175.37,949.65c0-6.66,5.59-12.05,12.49-12.05s12.49,5.4,12.49,12.05-5.59,12.05-12.49,12.05-12.49-5.4-12.49-12.05Z"></path><path fill="#415da5" d="M187.86,1020.33c-40.39,0-73.24-31.71-73.24-70.68s32.86-70.68,73.24-70.68,73.24,31.71,73.24,70.68c0,12.49-3.42,24.77-9.9,35.51-6.34,10.5-15.42,19.31-26.28,25.47-11.19,6.35-24.01,9.7-37.06,9.7Zm0-131.55c-34.78,0-63.08,27.31-63.08,60.87s28.3,60.87,63.08,60.87c11.24,0,22.27-2.89,31.91-8.35,9.36-5.31,17.19-12.89,22.65-21.95,5.58-9.24,8.52-19.82,8.52-30.58,0-33.57-28.3-60.87-63.08-60.87Z"></path><path fill="#f99746" d="M188.42,1012.33c-35.57,0-64.51-27.93-64.51-62.26s28.94-62.26,64.51-62.26,64.51,27.93,64.51,62.26-28.94,62.26-64.51,62.26Zm0-122c-34.14,0-61.91,26.8-61.91,59.74s27.77,59.74,61.91,59.74,61.91-26.8,61.91-59.74-27.77-59.74-61.91-59.74Z"></path><g><polygon fill="#afcdfb" points="425.34 949.11 404.18 892.19 405.77 891.64 426.94 948.56 425.34 949.11"></polygon><polygon fill="#afcdfb" points="366.92 975.33 366.25 973.83 426.15 949 465.53 894.71 466.91 895.65 427.26 950.31 427.04 950.41 366.92 975.33"></polygon><path fill="#afcdfb" d="M402.95,1012.42l-1.61-.52c.42-1.23,23.58-60.04,24.57-62.54l.6-1.53,37.31,56.94-1.43,.87-35.5-54.18c-8.48,21.54-23.62,60.01-23.94,60.95Z"></path><polygon fill="#afcdfb" points="426.56 946.37 360.09 935.34 360.38 933.73 426.85 944.76 426.56 946.37"></polygon><polygon fill="#afcdfb" points="431.74 945.42 430.14 944.9 449.61 888.52 451.22 889.04 431.74 945.42"></polygon><polygon fill="#afcdfb" points="426.57 950.51 426.32 950.38 365.36 920.56 366.12 919.1 426.84 948.8 492.19 938.23 492.47 939.84 426.57 950.51"></polygon><path fill="#afcdfb" d="M451.31,1010.38c-.36-1.02-16.01-38.17-24.76-58.95l-33.84,51.37-1.43-.88,35.6-54.04,.62,1.47c1.02,2.42,24.99,59.28,25.42,60.51l-1.61,.52Z"></path><polygon fill="#afcdfb" points="361.21 959.86 360.96 958.24 426.58 948.85 426.83 950.46 361.21 959.86"></polygon><polygon fill="#afcdfb" points="422.68 941.2 386.27 900.76 387.55 899.68 423.96 940.13 422.68 941.2"></polygon><polygon fill="#afcdfb" points="424.59 1013.46 422.9 1013.32 427.98 954.08 429.67 954.22 424.59 1013.46"></polygon><polygon fill="#afcdfb" points="481.26 985.87 423.26 947.06 424.23 945.71 482.23 984.53 481.26 985.87"></polygon><polygon fill="#afcdfb" points="378.62 993.54 377.42 992.39 425.86 945.23 425.86 883.88 427.55 883.88 427.55 945.91 378.62 993.54"></polygon></g><path fill="#415da5" d="M426.71,1020.33c-40.39,0-73.24-31.71-73.24-70.68s32.86-70.68,73.24-70.68,73.24,31.71,73.24,70.68c0,12.49-3.42,24.77-9.9,35.51-6.34,10.5-15.42,19.31-26.28,25.47-11.19,6.35-24.01,9.7-37.06,9.7Zm0-131.55c-34.78,0-63.08,27.31-63.08,60.87s28.3,60.87,63.08,60.87c11.24,0,22.27-2.89,31.91-8.35,9.36-5.31,17.19-12.89,22.65-21.95,5.58-9.24,8.52-19.82,8.52-30.58,0-33.57-28.3-60.87-63.08-60.87Z"></path><path fill="#f99746" d="M427.27,1012.33c-35.57,0-64.51-27.93-64.51-62.26s28.94-62.26,64.51-62.26,64.51,27.93,64.51,62.26-28.94,62.26-64.51,62.26Zm0-122c-34.14,0-61.91,26.8-61.91,59.74s27.77,59.74,61.91,59.74,61.91-26.8,61.91-59.74-27.77-59.74-61.91-59.74Z"></path><path fill="#ed975d" d="M309.88,698.45s-10.35,5.62-9.13,19.86c1.22,14.24,14.76,36.68,25.05,42.25,8.15,4.41,31.74,11.3,31.74,11.3l.85-6.18s-19.19-12.09-23.34-16.22c-8.91-8.86-17.38-54.45-25.16-51.01Z"></path><path fill="#ffb27d" d="M308.85,730.47c-.47,3.21-1.35,5.97-2.43,8.6-.9,2.2-1.94,4.3-3.02,6.48-3.14,6.42-10.55,9.58-10.8,21.93-.08,4.25-3.76,13.82-1.68,20.76,10.24,34.19-56.77,3.1-53.14-5.98,7.21-18.05,17.52-28.49,17.3-43.36,0-.04,0-.08-.01-.11-.07-.72-.17-2.65-.28-5.2-.28-6.24-.64-16.19-.78-21.23,0-.12,0-.23,0-.34-.05-2.16-.12-3.72-.21-4.13,4.98-20.46,16.45-20.55,20.36-20.48,1.45,.02,2.97,.12,4.22,.22,2.46-1.35,6.71-7.64,8.92-17.99l.89,.37,15.03,6.16s-1.39,4.69-2.37,9.17c-.77,3.5-1.29,6.88-.71,7.8,1.18,.41,1.89,.68,1.89,.68h0c.26,.59,9.23,20.4,6.83,36.67Z"></path><path fill="#ed975d" d="M306.42,739.07c-.9,2.2-1.94,4.3-3.02,6.48-3.14,6.42-10.55,9.58-10.8,21.93-.23,.02-.46,.04-.69,.06-27.48,2.07-36.85-28.75-36.85-28.75-.07-.72-.17-2.65-.28-5.2l49.59,.08s1.02,2.17,2.05,5.41Z"></path><path fill="#fff" d="M313.4,724.46c-.14,.4-.29,.79-.46,1.19-4.76,10.96-9.13,20.11-9.13,20.11-.13-.07-.26-.14-.4-.21-3.21-1.7-7.01-3-11.08-3.97-3.42-.82-7.02-1.42-10.6-1.85-11.08-1.33-21.97-1.05-26.65-.84,0-.04,0-.08-.01-.11-.23-2.48-.87-19.33-1.06-26.43,0-.12,0-.23,0-.34,1.1-.84,2.16-1.63,3.14-2.37,3.15-2.4,5.5-4.44,5.56-6.94,.02-.99-.05-2-.19-3.01-.07-.48-.15-.95-.24-1.42-.99-4.99-3.34-9.45-3.34-9.45,5.4-2.34,15.22-1.42,15.22-1.42,0,0,0,.52,.04,1.38,.1,3.45,.48,12.28,1.69,13.91,1.51,2.03,28.02,10.21,29.29,7.33,1.25-2.83-2.98-15.71-3.14-16.2h0c8.89,2.98,12.13,5.66,12.13,5.66-5.15,3.5,2.93,14.4-.75,24.99Z"></path><path fill="#ed975d" d="M303.21,676.15s-1.39,4.69-2.37,9.17c-8.72-2.01-11.68-10.67-12.65-15.33l15.03,6.16Z"></path><path fill="#ffb27d" d="M305.22,680.99s-20.83-3.86-18.13-16.34c2.69-12.48,1.82-21.38,15.23-19.44,13.41,1.94,14.96,7.22,15.11,11.59,.15,4.38-6.72,24.87-12.21,24.19Z"></path><path fill="#2c3a64" d="M318.32,649.74c-2.39-4.4-5-4.07-6.6-3.21-10.04-8.31-19.28-.89-19.28-.89-3.33,8.67-11.13,12.45-11.13,12.45,0,0,3.29,3.02,12.48,2.62,2.81-.12,5.58-1.47,8.08-3.28-4.77,5-10.46,8.14-10.46,8.14,11.43-2.54,18.64-15.68,19.38-17.07,1.03,1.35,3.01,4.24,3.26,6.74,.35,3.39-.61,10.02,1.41,10.2,0,0,6.44-9.08,2.85-15.68Z"></path><path fill="#ffb27d" d="M330.4,772.07l-1.5,6.16s-34.94-4.6-46.37-11.02c-11.42-6.42-28.72-44.13-30.08-60.07-.07-.85-.12-1.65-.14-2.42-.42-13.77,6.61-15.91,6.61-15.91,2.81-1.24,6.31,3.41,10.01,10.68,7.77,15.25,16.44,42.02,21.6,49.94,3.96,6.09,39.86,22.64,39.86,22.64Z"></path><path fill="#fff" d="M268.94,699.49c-9.58-2.18-16.62,5.23-16.62,5.23-.42-13.77,6.61-15.91,6.61-15.91,2.81-1.24,6.31,3.41,10.01,10.68Z"></path><path fill="#fff" d="M314.15,699.47s4.02,8.15,4.85,10.28c0,0-5.18,.03-7.6,4.91,0,0-.32-13.87,2.75-15.19Z"></path><path fill="#ffb27d" d="M237.11,783.6s-15.49,23.7,3.65,36.73c19.14,13.03,83.59,19.27,80.43,21.8-9.67,7.73-18.45,19.63-17.99,90.84l4.78,2.38s45.96-96.48,42.88-107.98c-2.04-7.61-69.07-48.81-113.75-43.76Z"></path><path fill="#f99746" d="M274.27,832.91s-39.05-6.24-43.08-19.55c-3.01-9.94-3.9-13.99,13.8-46.1,0,0,7.39,13.56,46,10.42,0,0-.2,1.76-.2,4.14,.05,3.95,.69,9.56,3.89,11.18,.05,.05,.15,.05,.2,.1,5.08,2.24,12.94,6.75,14.13,7.17,.05,0-23.69,4.39-34.73,32.64Z"></path><g><path fill="#233862" d="M296.73,936.42l4.02,1.87c1.45,.42,2.63,.5,4.1,.97,2.23,.71,2.79,1.99,2.88,2.27,.01,.04,.02,.06,.02,.06l17.09,7.92c.73-.39,1-1.96,1.09-3.15,.07-.81-.27-1.61-.9-2.15-1.56-1.35-4.91-3.45-6.76-7.83-1.04-2.46-5.95-10.02-5.95-10.02l-.03-.03c-.16-.07-1-.19-5.51,.93-2.33,.58-3.54-3.98-3.54-3.98,0,0-.74,.18-1.53,.78-.63,.48-1.29,1.22-1.63,2.36-.48,1.6-2.68,3.99-4.27,5.55-.96,.95-1.7,1.59-1.7,1.59,0,0-.66,.84,2.6,2.87Z"></path><path fill="#233862" d="M301.73,924.05c.64,1.1,2.02,3.33,3.28,4.12,1.7,1.07,7.32-1.83,7.32-1.83l-.03-.03c-.16-.07-1-.19-5.51,.93-2.33,.58-3.54-3.98-3.54-3.98,0,0-.74,.18-1.53,.78Z"></path><path fill="#233862" d="M296.73,936.42l4.02,1.87c1.45,.42,2.63,.5,4.1,.97,2.23,.71,2.79,1.99,2.88,2.27,.01,.04,.02,.06,.02,.06l17.09,7.92c.73-.39,1-1.96,1.09-3.15-.3-.69-1.63,1.63-2.1,1.87-.48,.25-14.01-6.33-14.53-7.24-.51-.92-2.4-2.98-6.07-3.75-3.2-.67-6.59-4.33-7.41-5.26-.96,.95-1.7,1.59-1.7,1.59,0,0-.66,.84,2.6,2.87Z"></path></g><path fill="#415da5" d="M393.88,858.1c-1.09-2.64-3.64-4.29-6.4-4.46-31.62-70.1-31.96-70.64-32.44-71.4l-4.57,8.74c-.24-.38,17.26,37.17,29.76,64.69l-1.78,.69,43.54,89.91,7.06-2.78-35.16-85.4Z"></path><polygon fill="#415da5" points="384.7 782.76 329.15 796.21 328.18 785.38 383.74 771.93 384.7 782.76"></polygon><path fill="#ffb27d" d="M330.4,772.07s5.23,3.31,8.93,3.16c3.7-.15,8.4,1.34,8.4,1.34,0,0,4.93,1.41,5.39,7.06,0,0-.02,1.64-7.78-.67-1.7-.5-5.78,.45-7.16,0-1.39-.45-5.6-4.84-9.27-4.72l1.5-6.16Z"></path><path fill="#ed975d" d="M358.38,765.68s5.23,3.31,8.93,3.16c3.7-.15,8.4,1.34,8.4,1.34,0,0,4.93,1.41,5.39,7.06,0,0-.11,2.32-7.78-.67-2.1-.82-5.78,.45-7.16,0-1.39-.45-6.47-4.21-9.99-5.14l2.21-5.75Z"></path><path fill="#415da5" d="M318.49,792.69c-1.5-4.87,1.38-10,6.43-11.45,5.05-1.45,10.36,1.33,11.86,6.2,1.5,4.87-1.38,10-6.43,11.45-5.05,1.45-10.36-1.33-11.86-6.2Z"></path><path fill="#699dee" d="M414.22,949.65c0-6.66,5.59-12.05,12.49-12.05s12.49,5.4,12.49,12.05-5.59,12.05-12.49,12.05-12.49-5.4-12.49-12.05Z"></path><g><path fill="#f99746" d="M929.66,443.61c-19.27,0-34.89,15.81-34.89,35.31s34.89,57.87,34.89,57.87c0,0,34.89-38.36,34.89-57.87s-15.62-35.31-34.89-35.31Zm0,49.73c-9.7,0-17.57-7.59-17.57-16.95s7.86-16.95,17.57-16.95,17.57,7.59,17.57,16.95-7.86,16.95-17.57,16.95Z"></path><path fill="#f99746" d="M933.45,722.69h-87.32l.09-3.74c0-.15,.25-15.17-6.31-30.07-8.54-19.39-24.22-29.57-46.62-30.24-18.21-.55-32.56,4.19-42.66,14.07-17.92,17.55-16.79,45.86-16.77,46.15l.18,3.83h-155.91l-183.41-135.32h-124.48v-7.32h127.05l183.41,135.32h145.58c.27-9.01,2.65-31.79,18.91-47.76,11.64-11.42,27.9-16.9,48.34-16.29,32.02,.96,46.75,19.52,53.46,34.92,5.15,11.8,6.42,23.37,6.73,29.13h72.15v-146.83h7.58v154.15Z"></path><g><path fill="#fff" d="M913.87,560.37c0-8.41,7.07-15.23,15.78-15.23s15.78,6.82,15.78,15.23-7.07,15.23-15.78,15.23-15.78-6.82-15.78-15.23Z"></path><path fill="#f99746" d="M929.66,578.45c-10.33,0-18.73-8.11-18.73-18.08s8.4-18.08,18.73-18.08,18.73,8.11,18.73,18.08-8.4,18.08-18.73,18.08Zm0-30.46c-7.08,0-12.84,5.56-12.84,12.38s5.76,12.39,12.84,12.39,12.83-5.56,12.83-12.39-5.76-12.38-12.83-12.38Z"></path></g><g><ellipse fill="#fff" ry="15.23" rx="15.78" cy="583.78" cx="270.54"></ellipse><path fill="#f99746" d="M270.54,601.86c-10.33,0-18.73-8.11-18.73-18.08s8.4-18.08,18.73-18.08,18.73,8.11,18.73,18.08-8.4,18.08-18.73,18.08Zm0-30.46c-7.08,0-12.83,5.56-12.83,12.38s5.76,12.39,12.83,12.39,12.83-5.56,12.83-12.39-5.76-12.38-12.83-12.38Z"></path></g><g><path fill="#fff" d="M715.25,717.4c0-8.41,7.07-15.23,15.78-15.23s15.78,6.82,15.78,15.23-7.07,15.23-15.78,15.23-15.78-6.82-15.78-15.23Z"></path><path fill="#f99746" d="M731.03,735.48c-10.33,0-18.73-8.11-18.73-18.08s8.4-18.08,18.73-18.08,18.73,8.11,18.73,18.08-8.4,18.08-18.73,18.08Zm0-30.46c-7.08,0-12.83,5.56-12.83,12.38s5.76,12.39,12.83,12.39,12.83-5.56,12.83-12.39-5.76-12.38-12.83-12.38Z"></path></g></g><g><path fill="#fff" d="M702.57,336.06l-5.19,3.6-5.22-3.56c1.16-1.57,3.07-2.61,5.22-2.61s4.03,1.01,5.19,2.57Z"></path><path fill="#fff" d="M697.38,324.73c-5.22,0-9.83,2.5-12.63,6.33l3.29,2.23c2.07-2.83,5.49-4.67,9.33-4.67s7.21,1.82,9.28,4.61l3.28-2.27c-2.81-3.78-7.4-6.23-12.56-6.23Z"></path><path fill="#fff" d="M697.38,308.07c-11.04,0-20.81,5.3-26.72,13.39l3.3,2.23c5.19-7.09,13.76-11.73,23.43-11.73s18.1,4.57,23.31,11.56l3.27-2.27c-5.93-7.98-15.63-13.19-26.58-13.19Z"></path><path fill="#fff" d="M697.38,317.18c-7.85,0-14.82,3.75-19.06,9.5l3.29,2.23c3.51-4.74,9.27-7.84,15.76-7.84s12.16,3.05,15.68,7.72l3.27-2.26c-4.25-5.67-11.16-9.36-18.95-9.36Z"></path></g><g><path fill="#cde0fb" d="M1448.53,363.49c-23.21,0-42.03,19.05-42.03,42.54s42.03,69.71,42.03,69.71c0,0,42.03-46.22,42.03-69.71s-18.82-42.54-42.03-42.54Zm0,59.91c-11.69,0-21.16-9.14-21.16-20.42s9.47-20.42,21.16-20.42,21.16,9.14,21.16,20.42-9.47,20.42-21.16,20.42Z"></path><polygon fill="#cde0fb" points="1529.83 841.78 1524.39 839.55 1564.76 747.74 1564.76 624.04 1510.75 622.34 1510.75 546.76 1459.98 497.77 1464.16 493.73 1516.66 544.39 1516.66 616.82 1570.67 618.52 1570.67 748.9 1570.44 749.44 1529.83 841.78"></polygon><g><path fill="#fff" d="M1511.33,843c0-8.41,7.07-15.23,15.78-15.23s15.78,6.82,15.78,15.23-7.07,15.23-15.78,15.23-15.78-6.82-15.78-15.23Z"></path><path fill="#cde0fb" d="M1527.11,861.08c-10.33,0-18.74-8.11-18.74-18.08s8.41-18.08,18.74-18.08,18.74,8.11,18.74,18.08-8.41,18.08-18.74,18.08Zm0-30.46c-7.07,0-12.83,5.55-12.83,12.38s5.76,12.38,12.83,12.38,12.83-5.55,12.83-12.38-5.75-12.38-12.83-12.38Z"></path></g><g><path fill="#fff" d="M1551.93,621.28c0-8.41,7.07-15.23,15.78-15.23s15.78,6.82,15.78,15.23-7.07,15.23-15.78,15.23-15.78-6.82-15.78-15.23Z"></path><path fill="#cde0fb" d="M1567.71,639.36c-10.33,0-18.74-8.11-18.74-18.08s8.41-18.08,18.74-18.08,18.74,8.11,18.74,18.08-8.41,18.08-18.74,18.08Zm0-30.46c-7.07,0-12.83,5.55-12.83,12.38s5.76,12.38,12.83,12.38,12.83-5.55,12.83-12.38-5.76-12.38-12.83-12.38Z"></path></g><ellipse fill="#cde0fb" ry="6.43" rx="6.67" cy="495.75" cx="1462.07"></ellipse></g><path fill="#fff" d="M910.7,477.73c0-10.11,8.49-18.3,18.96-18.3s18.96,8.19,18.96,18.3-8.49,18.3-18.96,18.3-18.96-8.19-18.96-18.3Z"></path></g></g></g></svg>