<?xml version="1.0" standalone="no"?><!DOCTYPE svg PUBLIC "-//W3C//DTD SVG 1.1//EN" "http://www.w3.org/Graphics/SVG/1.1/DTD/svg11.dtd"><svg t="1656722743185" class="icon" viewBox="0 0 1024 1024" version="1.1" xmlns="http://www.w3.org/2000/svg" p-id="2270" xmlns:xlink="http://www.w3.org/1999/xlink" width="200" height="200"><defs><style type="text/css">@font-face { font-family: feedback-iconfont; src: url("//at.alicdn.com/t/font_1031158_u69w8yhxdu.woff2?t=1630033759944") format("woff2"), url("//at.alicdn.com/t/font_1031158_u69w8yhxdu.woff?t=1630033759944") format("woff"), url("//at.alicdn.com/t/font_1031158_u69w8yhxdu.ttf?t=1630033759944") format("truetype"); }
</style></defs><path d="M512 928a31.912 31.912 0 0 1-22.624-9.376l-96-96c-12.512-12.512-12.512-32.736 0-45.248s32.736-12.512 45.248 0L512 850.752l73.376-73.376C591.36 771.36 599.488 768 608 768h224c17.664 0 32-14.336 32-32V224c0-17.632-14.336-32-32-32H192c-17.632 0-32 14.368-32 32v512c0 17.664 14.368 32 32 32h96c17.664 0 32 14.304 32 32s-14.336 32-32 32h-96c-52.928 0-96-43.072-96-96V224c0-52.928 43.072-96 96-96h640c52.928 0 96 43.072 96 96v512c0 52.928-43.072 96-96 96H621.248l-86.624 86.624A31.912 31.912 0 0 1 512 928z" p-id="2271"></path><path d="M336 512c-26.464 0-48-21.536-48-48s21.536-48 48-48 48 21.536 48 48-21.536 48-48 48zM528 512c-26.464 0-48-21.536-48-48s21.536-48 48-48 48 21.536 48 48-21.536 48-48 48zM720 512c-26.464 0-48-21.536-48-48s21.536-48 48-48 48 21.536 48 48-21.536 48-48 48z" p-id="2272"></path></svg>