<?xml version="1.0" standalone="no"?><!DOCTYPE svg PUBLIC "-//W3C//DTD SVG 1.1//EN" "http://www.w3.org/Graphics/SVG/1.1/DTD/svg11.dtd"><svg t="1653631629790" class="icon" viewBox="0 0 1024 1024" version="1.1" xmlns="http://www.w3.org/2000/svg" p-id="3201" xmlns:xlink="http://www.w3.org/1999/xlink" width="200" height="200"><defs><style type="text/css">@font-face { font-family: feedback-iconfont; src: url("//at.alicdn.com/t/font_1031158_u69w8yhxdu.woff2?t=1630033759944") format("woff2"), url("//at.alicdn.com/t/font_1031158_u69w8yhxdu.woff?t=1630033759944") format("woff"), url("//at.alicdn.com/t/font_1031158_u69w8yhxdu.ttf?t=1630033759944") format("truetype"); }
</style></defs><path d="M661.333333 896L597.333333 341.333333h95.146667L644.266667 147.626667 718.506667 128l53.333333 213.333333H938.666667l-64 554.666667h-213.333334M213.333333 469.333333h213.333334a128 128 0 0 1 128 128H85.333333a128 128 0 0 1 128-128m341.333334 298.666667a128 128 0 0 1-128 128H213.333333a128 128 0 0 1-128-128h469.333334M128 640h213.333333l64 64L469.333333 640h42.666667a42.666667 42.666667 0 0 1 42.666667 42.666667 42.666667 42.666667 0 0 1-42.666667 42.666666H128a42.666667 42.666667 0 0 1-42.666667-42.666666 42.666667 42.666667 0 0 1 42.666667-42.666667z" fill="" p-id="3202"></path></svg>