<?xml version="1.0" standalone="no"?><!DOCTYPE svg PUBLIC "-//W3C//DTD SVG 1.1//EN" "http://www.w3.org/Graphics/SVG/1.1/DTD/svg11.dtd"><svg t="1653631863196" class="icon" viewBox="0 0 1024 1024" version="1.1" xmlns="http://www.w3.org/2000/svg" p-id="6476" xmlns:xlink="http://www.w3.org/1999/xlink" width="200" height="200"><defs><style type="text/css">@font-face { font-family: feedback-iconfont; src: url("//at.alicdn.com/t/font_1031158_u69w8yhxdu.woff2?t=1630033759944") format("woff2"), url("//at.alicdn.com/t/font_1031158_u69w8yhxdu.woff?t=1630033759944") format("woff"), url("//at.alicdn.com/t/font_1031158_u69w8yhxdu.ttf?t=1630033759944") format("truetype"); }
</style></defs><path d="M815.261538 781.784615l-17.723076 17.723077c-19.692308 19.692308-45.292308 29.538462-72.861539 29.538462h-51.2c-47.261538 0-98.461538-37.415385-98.461538-102.4v-49.230769c0-39.384615 17.723077-63.015385 27.56923-76.8l212.676923-216.615385c5.907692-5.907692 11.815385-19.692308 11.815385-27.569231V192.984615C827.076923 141.784615 783.753846 98.461538 732.553846 98.461538H228.430769C177.230769 98.461538 133.907692 145.723077 133.907692 192.984615H102.4C66.953846 192.984615 39.384615 222.523077 39.384615 257.969231s27.569231 63.015385 63.015385 63.015384h31.507692v128H102.4C66.953846 448.984615 39.384615 476.553846 39.384615 512s27.569231 63.015385 63.015385 63.015385h31.507692v128H102.4c-35.446154 0-63.015385 29.538462-63.015385 63.015384 0 35.446154 27.569231 63.015385 63.015385 63.015385h31.507692c0 63.015385 43.323077 94.523077 94.523077 94.523077h504.123077c51.2 0 94.523077-43.323077 94.523077-94.523077V787.692308c0-9.846154-3.938462-11.815385-11.815385-5.907693z m-161.476923-445.046153c0 17.723077-13.784615 31.507692-31.507692 31.507692h-315.076923c-17.723077 0-31.507692-13.784615-31.507692-31.507692v-31.507693c0-17.723077 13.784615-31.507692 31.507692-31.507692h315.076923c17.723077 0 31.507692 13.784615 31.507692 31.507692v31.507693zM512 718.769231c0 17.723077-13.784615 31.507692-31.507692 31.507692h-173.292308c-17.723077 0-31.507692-13.784615-31.507692-31.507692v-31.507693c0-17.723077 13.784615-31.507692 31.507692-31.507692h173.292308c17.723077 0 31.507692 13.784615 31.507692 31.507692v31.507693z m47.261538-191.015385c0 17.723077-13.784615 31.507692-31.507692 31.507692H307.2c-17.723077 0-31.507692-13.784615-31.507692-31.507692v-31.507692c0-17.723077 13.784615-31.507692 31.507692-31.507692h220.553846c17.723077 0 31.507692 13.784615 31.507692 31.507692v31.507692z m415.507693-86.646154l-19.692308-19.692307c-11.815385-11.815385-31.507692-11.815385-43.323077 0L671.507692 669.538462c-1.969231 0-1.969231 3.938462-1.96923 3.938461v53.169231c0 3.938462 0 7.876923 3.938461 7.876923h51.2c1.969231 0 3.938462-1.969231 5.907692-1.969231l242.215385-244.184615c15.753846-13.784615 15.753846-33.476923 1.969231-47.261539z" p-id="6477"></path></svg>