<?xml version="1.0" standalone="no"?><!DOCTYPE svg PUBLIC "-//W3C//DTD SVG 1.1//EN" "http://www.w3.org/Graphics/SVG/1.1/DTD/svg11.dtd"><svg t="1653631712090" class="icon" viewBox="0 0 1024 1024" version="1.1" xmlns="http://www.w3.org/2000/svg" p-id="4141" xmlns:xlink="http://www.w3.org/1999/xlink" width="200" height="200"><defs><style type="text/css">@font-face { font-family: feedback-iconfont; src: url("//at.alicdn.com/t/font_1031158_u69w8yhxdu.woff2?t=1630033759944") format("woff2"), url("//at.alicdn.com/t/font_1031158_u69w8yhxdu.woff?t=1630033759944") format("woff"), url("//at.alicdn.com/t/font_1031158_u69w8yhxdu.ttf?t=1630033759944") format("truetype"); }
</style></defs><path d="M900.824999 215.762614l-484.10488-197.034037 65.53842 197.034037-65.747808 196.824648z" fill="#A7A9AC" p-id="4142"></path><path d="M919.8793 215.762614c0-1.256328-0.209388-2.303267-0.418776-3.350207 0-0.418776-0.209388-0.628164-0.209387-1.04694-0.209388-0.837552-0.418776-1.465715-0.628164-2.303267-0.209388-0.418776-0.209388-0.628164-0.418776-1.04694-0.418776-1.04694-0.837552-1.884491-1.465716-2.93143l-0.209387-0.209388c-0.628164-0.837552-1.256328-1.675103-1.884492-2.303268l-0.628164-0.628163c-0.628164-0.628164-1.256328-1.04694-1.884491-1.465716-0.209388-0.209388-0.628164-0.418776-0.837552-0.628164-0.628164-0.418776-1.465715-0.837552-2.303267-1.256327-0.209388-0.209388-0.418776-0.209388-0.628164-0.418776l-484.10488-196.824648c-6.909801-2.722043-14.657155-1.256328-20.10124 3.768982s-7.328577 12.772663-5.025311 19.891853l63.444541 190.961787-63.863316 190.961786c-2.303267 7.119189-0.418776 14.866543 5.02531 19.891853 3.559595 3.350207 8.166129 5.234698 12.982051 5.234698 2.303267 0 4.815922-0.418776 7.11919-1.465715l484.523655-196.824649h0.209388c0.209388 0 0.418776-0.209388 0.628164-0.418776 0.837552-0.418776 1.675103-0.837552 2.303267-1.256327 0.209388-0.209388 0.628164-0.418776 0.837552-0.628164 0.628164-0.418776 1.256328-1.04694 1.884491-1.465716l0.628164-0.628163c0.837552-0.837552 1.465715-1.675103 2.093879-2.512655 0.628164-0.837552 1.04694-1.884491 1.465716-2.931431 0.209388-0.418776 0.209388-0.628164 0.418776-1.04694 0.209388-0.837552 0.418776-1.465715 0.628163-2.303267 0-0.418776 0.209388-0.628164 0.209388-1.04694 0-1.465715 0.209388-2.722043 0.209388-3.768982z m-472.169768-163.950745l356.168858 144.896444h-308.009636l-48.159222-144.896444z m48.159222 182.795658h307.800249l-356.168859 144.896443 48.36861-144.896443zM320.401674 1023.790612c5.02531 0 9.841232-2.093879 13.400827-5.653474s5.653474-8.375517 5.653474-13.400827-2.093879-9.841232-5.653474-13.400827c-3.559595-3.559595-8.375517-5.653474-13.400827-5.653474s-9.841232 2.093879-13.400827 5.653474-5.653474 8.375517-5.653474 13.400827 2.093879 9.841232 5.653474 13.400827c3.559595 3.768983 8.375517 5.653474 13.400827 5.653474zM840.311889 968.930976c4.815922 0 9.422457-1.675103 13.191439-5.234698 7.537965-7.328577 7.747353-19.263689 0.418776-26.801654-7.328577-7.537965-19.263689-7.747353-26.801654-0.628164-7.537965 7.328577-7.747353 19.263689-0.628164 26.801654 3.768983 3.768983 8.794293 5.862862 13.819603 5.862862zM871.301302 913.443176c2.722043 1.465715 5.653474 2.093879 8.584905 2.093879 6.909801 0 13.610215-3.768983 16.960422-10.469396 4.815922-9.422457 1.04694-20.729404-8.375517-25.545327-9.422457-4.815922-20.729404-1.04694-25.545327 8.375517-4.815922 9.422457-1.04694 20.729404 8.375517 25.545327zM881.980086 721.015674c9.003681-5.444086 11.725724-17.16981 6.281638-25.964102-5.444086-9.003681-17.16981-11.725724-26.173491-6.281638s-11.725724 17.16981-6.281637 26.17349c3.559595 5.862862 9.841232 9.003681 16.12287 9.003681 3.559595-0.209388 6.909801-1.04694 10.05062-2.931431zM878.001716 770.431224c1.884491 9.003681 9.841232 15.075931 18.426137 15.075931 1.256328 0 2.722043-0.209388 3.97837-0.418776 10.260008-2.093879 16.751034-12.1445 14.657155-22.404508-2.093879-10.260008-12.1445-16.751034-22.404508-14.657155-10.260008 2.093879-16.751034 12.1445-14.657154 22.404508zM843.033932 666.784202c6.700414-8.166129 5.444086-20.101241-2.722043-26.801654-8.166129-6.700414-20.101241-5.444086-26.801654 2.722043-6.700414 8.166129-5.444086 20.101241 2.722043 26.801654 3.559595 2.931431 7.747353 4.187758 11.935112 4.187758 5.653474 0 11.09756-2.303267 14.866542-6.909801zM104.313337 444.833002c1.465715 9.422457 9.631845 16.332258 18.844913 16.332258 0.837552 0 1.884491 0 2.722043-0.209387 10.469396-1.465715 17.588586-11.09756 16.12287-21.566957s-11.09756-17.588586-21.566956-16.12287-17.588586 11.09756-16.12287 21.566956zM157.497869 297.005128c-9.003681-5.234698-20.729404-2.303267-25.964102 6.700414-5.234698 9.003681-2.303267 20.729404 6.700413 25.964102 2.931431 1.675103 6.281638 2.512655 9.631845 2.512655 6.491026 0 12.772663-3.350207 16.332258-9.422456 5.444086-8.794293 2.512655-20.520017-6.700414-25.754715zM184.299524 576.747394c5.02531 0 10.260008-2.093879 13.819603-6.072249 7.119189-7.747353 6.700414-19.682465-1.04694-26.801655s-19.682465-6.700414-26.801654 1.04694-6.700414 19.682465 1.046939 26.801654c3.768983 3.350207 8.375517 5.02531 12.982052 5.02531zM247.534677 576.747394c-9.631845-4.187758-20.729404 0.209388-24.917163 9.841233s0.209388 20.729404 9.841232 24.917163c2.512655 1.04694 5.02531 1.465715 7.537965 1.465715 7.328577 0 14.238379-4.187758 17.379198-11.516335 4.187758-9.422457-0.209388-20.520017-9.841232-24.707776zM205.238316 250.311621c-6.700414-7.956741-18.844913-9.003681-26.801654-2.093879-7.956741 6.700414-9.003681 18.844913-2.09388 26.801654 3.768983 4.397146 9.213069 6.700414 14.447767 6.700414 4.397146 0 8.584905-1.465715 12.353888-4.606535 7.747353-6.909801 8.794293-18.844913 2.093879-26.801654zM120.854983 394.161125c1.256328 0.209388 2.512655 0.418776 3.559594 0.418776 8.794293 0 16.960422-6.281638 18.635526-15.494707 1.884491-10.260008-4.815922-20.310629-15.075931-22.19512-10.260008-1.884491-20.310629 4.815922-22.19512 15.075931-1.884491 10.260008 4.815922 20.310629 15.075931 22.19512zM143.887654 524.191026c2.931431 0 6.07225-0.628164 8.794293-2.09388 9.213069-4.815922 12.772663-16.332258 7.956741-25.545326-4.815922-9.213069-16.332258-12.772663-25.545327-7.956741s-12.772663 16.332258-7.956741 25.545326c3.350207 6.281638 9.841232 10.05062 16.751034 10.050621zM918.204197 835.341481c1.256328-10.469396-6.07225-19.891853-16.541646-21.148181s-19.891853 6.07225-21.14818 16.332258c-1.256328 10.469396 6.07225 19.891853 16.332258 21.148181 0.837552 0.209388 1.675103 0.209388 2.512655 0.209388 9.422457 0 17.588586-6.909801 18.844913-16.541646zM438.077687 591.404549c-10.469396 0-19.054301 8.375517-19.054301 19.054301 0 10.469396 8.584905 19.054301 19.054301 19.054301s19.054301-8.584905 19.054301-19.054301c-0.209388-10.678784-8.584905-19.054301-19.054301-19.054301zM635.321112 1004.945699c0 10.469396 8.375517 19.054301 19.054301 19.054301 10.469396 0 19.054301-8.584905 19.054301-19.054301s-8.584905-19.054301-19.054301-19.054301-19.054301 8.584905-19.054301 19.054301zM434.936868 1004.945699c0 10.469396 8.375517 19.054301 19.054302 19.054301 10.469396 0 19.054301-8.584905 19.054301-19.054301s-8.584905-19.054301-19.054301-19.054301-19.054301 8.584905-19.054302 19.054301zM638.252543 591.404549c-10.469396 0-19.054301 8.375517-19.054301 19.054301 0 10.469396 8.584905 19.054301 19.054301 19.054301s19.054301-8.584905 19.054301-19.054301c0-10.678784-8.375517-19.054301-19.054301-19.054301zM504.872435 591.404549c-10.469396 0-19.054301 8.375517-19.054301 19.054301 0 10.469396 8.375517 19.054301 19.054301 19.054301 10.469396 0 19.054301-8.584905 19.054301-19.054301-0.209388-10.678784-8.584905-19.054301-19.054301-19.054301zM368.351509 1004.945699c0 10.469396 8.375517 19.054301 19.054301 19.054301 10.469396 0 19.054301-8.584905 19.054301-19.054301s-8.584905-19.054301-19.054301-19.054301c-10.678784 0-19.054301 8.584905-19.054301 19.054301zM501.731616 1004.945699c0 10.469396 8.584905 19.054301 19.054301 19.054301s19.054301-8.584905 19.054301-19.054301-8.375517-19.054301-19.054301-19.054301c-10.469396 0-19.054301 8.584905-19.054301 19.054301zM568.526364 1004.945699c0 10.469396 8.375517 19.054301 19.054301 19.054301 10.469396 0 18.844913-8.584905 18.844913-19.054301s-8.375517-19.054301-18.844913-19.054301-19.054301 8.584905-19.054301 19.054301zM571.667183 591.404549c-10.469396 0-19.054301 8.375517-19.054301 19.054301 0 10.469396 8.375517 19.054301 19.054301 19.054301 10.469396 0 19.054301-8.584905 19.054301-19.054301-0.209388-10.678784-8.584905-19.054301-19.054301-19.054301zM352.228639 610.249462c0 10.469396 8.584905 19.054301 19.054301 19.054301s19.054301-8.584905 19.054301-19.054301-8.375517-19.054301-19.054301-19.054301c-10.469396 0.209388-19.054301 8.584905-19.054301 19.054301zM331.91801 215.343838c-0.209388-10.469396-9.003681-18.844913-19.473077-18.426138-10.469396 0.209388-18.635525 9.003681-18.426137 19.473077 0.209388 10.469396 9.003681 18.635525 19.473077 18.426138 10.469396-0.418776 18.844913-9.003681 18.426137-19.473077zM285.643279 608.574359c-0.628164 10.469396 7.119189 19.473077 17.588585 20.310629h1.256328c9.841232 0 18.216749-7.537965 18.844913-17.588586 0.628164-10.469396-7.119189-19.473077-17.588586-20.310629s-19.473077 7.119189-20.10124 17.588586zM265.542038 221.834863c-3.768983-9.841232-14.657155-14.657155-24.498387-10.888172s-14.657155 14.657155-10.888172 24.498387c2.931431 7.537965 10.05062 12.1445 17.797973 12.1445 2.303267 0 4.606534-0.418776 6.700414-1.256327 9.841232-3.768983 14.657155-14.657155 10.888172-24.498388zM788.383684 628.466212c3.559595-9.841232-1.465715-20.729404-11.516336-24.288999-9.841232-3.559595-20.729404 1.465715-24.288999 11.306947-3.559595 9.841232 1.465715 20.729404 11.516336 24.289 2.093879 0.837552 4.397146 1.04694 6.491026 1.046939 7.747353 0.209388 15.075931-4.606534 17.797973-12.353887zM705.256678 591.404549c-10.469396 0-19.054301 8.375517-19.054301 18.844913s8.375517 19.054301 18.844913 19.054301h0.209388c10.469396 0 18.844913-8.375517 19.054301-18.844913-0.209388-10.469396-8.584905-19.054301-19.054301-19.054301zM785.242865 1006.202026c2.722043 0 5.234698-0.628164 7.956741-1.675103 9.631845-4.397146 13.819603-15.704094 9.422457-25.126551-4.397146-9.631845-15.494706-13.819603-25.126551-9.422456s-13.819603 15.704094-9.422457 25.12655c3.140819 6.909801 10.05062 11.09756 17.16981 11.09756zM702.115859 1005.783251c0.837552 9.841232 9.213069 17.379198 18.844914 17.379197h1.675103c10.469396-0.837552 18.216749-10.05062 17.16981-20.520016-0.837552-10.469396-10.05062-18.216749-20.520017-17.16981-10.260008 0.628164-18.007361 9.841232-17.16981 20.310629z" fill="" p-id="4143"></path><path d="M394.106223 229.163441c3.559595-3.559595 5.444086-8.375517 5.444086-13.400827s-2.093879-9.841232-5.444086-13.400827c-3.559595-3.559595-8.375517-5.653474-13.400827-5.653474s-9.841232 2.093879-13.400827 5.653474-5.653474 8.375517-5.653474 13.400827 2.093879 9.841232 5.653474 13.400827c3.559595 3.559595 8.375517 5.653474 13.400827 5.653474 5.02531-0.209388 9.841232-2.093879 13.400827-5.653474z" fill="" p-id="4144"></path></svg>