<?xml version="1.0" standalone="no"?><!DOCTYPE svg PUBLIC "-//W3C//DTD SVG 1.1//EN" "http://www.w3.org/Graphics/SVG/1.1/DTD/svg11.dtd"><svg t="1653631484713" class="icon" viewBox="0 0 1118 1024" version="1.1" xmlns="http://www.w3.org/2000/svg" p-id="7873" xmlns:xlink="http://www.w3.org/1999/xlink" width="218.359375" height="200"><defs><style type="text/css">@font-face { font-family: feedback-iconfont; src: url("//at.alicdn.com/t/font_1031158_u69w8yhxdu.woff2?t=1630033759944") format("woff2"), url("//at.alicdn.com/t/font_1031158_u69w8yhxdu.woff?t=1630033759944") format("woff"), url("//at.alicdn.com/t/font_1031158_u69w8yhxdu.ttf?t=1630033759944") format("truetype"); }
</style></defs><path d="M680.958809 1012.62667a31.047197 31.047197 0 0 1-31.246728-30.847665v-270.326106a31.047197 31.047197 0 0 1 31.246728-30.847665h191.550829a30.847665 30.847665 0 1 1 0 61.695329h-150.606839a9.457822 9.457822 0 0 0-9.577541 9.457822v42.021463a9.457822 9.457822 0 0 0 9.577541 9.457822h137.238187a30.847665 30.847665 0 1 1 0 61.69533h-137.238187a9.457822 9.457822 0 0 0-9.577541 9.457822v107.108838a31.166916 31.166916 0 0 1-31.366449 31.12701z m-252.847093 0a31.047197 31.047197 0 0 1-31.246729-30.847665v-107.108838a9.457822 9.457822 0 0 0-9.577541-9.457822H250.049259a30.847665 30.847665 0 1 1 0-61.69533h137.238187a9.457822 9.457822 0 0 0 9.577541-9.457822v-42.181088a9.457822 9.457822 0 0 0-9.577541-9.457823H236.680607a30.847665 30.847665 0 1 1 0-61.695329h191.550828a31.047197 31.047197 0 0 1 31.246729 30.847665v270.326106a31.00729 31.00729 0 0 1-31.366448 30.727946z" p-id="7874"></path><path d="M108.660804 1023.960094a30.847665 30.847665 0 1 1 0-61.69533h83.125078a9.417916 9.417916 0 0 0 9.537635-9.457822V378.992492a9.298196 9.298196 0 0 0-6.704279-8.978945 484.344251 484.344251 0 0 1-184.72683-95.775414 30.847665 30.847665 0 0 1-1.396725-43.897065 31.366448 31.366448 0 0 1 22.666848-9.777073 30.847665 30.847665 0 0 1 21.270123 8.380348 322.364081 322.364081 0 0 0 87.79413 55.030957 8.819319 8.819319 0 0 0 3.990642 0.758222 10.136231 10.136231 0 0 0 3.112701-0.478877 938.399526 938.399526 0 0 0 204.560322-102.599412 750.240744 750.240744 0 0 0 169.243138-157.630369 15.962569 15.962569 0 0 0 1.556351-2.79345 29.730285 29.730285 0 0 1 11.971926-15.643318 31.366448 31.366448 0 0 1 17.638639-5.586899h2.67373a30.847665 30.847665 0 0 1 17.678546 5.427274 31.366448 31.366448 0 0 1 11.971926 15.643317 6.185495 6.185495 0 0 0 1.556351 2.79345 760.855852 760.855852 0 0 0 169.243138 157.789995 932.852534 932.852534 0 0 0 205.35845 102.759038 10.455483 10.455483 0 0 0 7.023531-0.319252 307.279454 307.279454 0 0 0 96.094665-62.453551 31.366448 31.366448 0 0 1 43.897065-1.396725 30.688039 30.688039 0 0 1 1.237099 43.897065 453.975463 453.975463 0 0 1-190.353635 104.475014 9.497729 9.497729 0 0 0-6.544654 8.978945v575.211175a9.417916 9.417916 0 0 0 9.537635 9.457822h80.65088a30.847665 30.847665 0 1 1 0 61.69533H108.660804zM273.194984 390.764887a10.136231 10.136231 0 0 0-5.946057 1.995321 9.697261 9.697261 0 0 0-3.591578 7.302875v552.584233a9.417916 9.417916 0 0 0 9.537635 9.457823h567.309703a9.417916 9.417916 0 0 0 9.537635-9.457823v-553.50208a9.298196 9.298196 0 0 0-3.591578-7.422595 9.178477 9.178477 0 0 0-5.946057-1.995321 8.978945 8.978945 0 0 0-2.035228 0 1397.083947 1397.083947 0 0 1-563.199341 0.917848z m280.502244-302.889747a9.497729 9.497729 0 0 0-7.14325 3.272326 811.018226 811.018226 0 0 1-159.62569 141.827426 985.688637 985.688637 0 0 1-119.080765 67.840918 9.537635 9.537635 0 0 0-5.147928 10.535296 26.976742 26.976742 0 0 1 0.798128 6.185495 9.457822 9.457822 0 0 0 7.342782 8.978946 1320.902587 1320.902587 0 0 0 571.779222-0.917848 9.298196 9.298196 0 0 0 7.183156-8.6996 22.946193 22.946193 0 0 1 0.319252-3.392046 9.457822 9.457822 0 0 0-5.307555-10.056419 1006.320258 1006.320258 0 0 1-124.388319-70.514648 811.098038 811.098038 0 0 1-159.62569-141.6678 9.138571 9.138571 0 0 0-7.063437-3.392046z" p-id="7875"></path></svg>