<?xml version="1.0" standalone="no"?><!DOCTYPE svg PUBLIC "-//W3C//DTD SVG 1.1//EN" "http://www.w3.org/Graphics/SVG/1.1/DTD/svg11.dtd"><svg t="1653631344263" class="icon" viewBox="0 0 1024 1024" version="1.1" xmlns="http://www.w3.org/2000/svg" p-id="4185" xmlns:xlink="http://www.w3.org/1999/xlink" width="200" height="200"><defs><style type="text/css">@font-face { font-family: feedback-iconfont; src: url("//at.alicdn.com/t/font_1031158_u69w8yhxdu.woff2?t=1630033759944") format("woff2"), url("//at.alicdn.com/t/font_1031158_u69w8yhxdu.woff?t=1630033759944") format("woff"), url("//at.alicdn.com/t/font_1031158_u69w8yhxdu.ttf?t=1630033759944") format("truetype"); }
</style></defs><path d="M830.577778 398.222222h-7.964445c19.399111-33.507556 30.72-72.248889 30.72-113.777778a227.555556 227.555556 0 0 0-455.111111 0 227.555556 227.555556 0 0 0-227.555555 227.555556c0 41.472 11.264 80.270222 30.72 113.777778H193.422222c-81.066667 36.295111-136.533333 114.062222-136.533333 197.006222V910.222222c0 19.968 31.516444 56.888889 55.125333 56.888889h577.763556c23.608889 0 49.777778-36.920889 49.777778-56.888889v-87.438222c0-28.956444-7.111111-57.116444-19.342223-83.228444h197.12c23.608889 0 49.777778-36.920889 49.777778-56.888889v-87.438223c0-82.944-55.466667-160.711111-136.533333-197.006222zM625.777778 170.666667c62.748444 0 113.777778 51.029333 113.777778 113.777777s-51.029333 113.777778-113.777778 113.777778a112.071111 112.071111 0 0 1-34.247111-5.859555 228.067556 228.067556 0 0 0-73.728-73.671111A112.071111 112.071111 0 0 1 511.943111 284.444444c0-62.748444 51.029333-113.777778 113.777778-113.777777zM398.222222 398.222222a113.777778 113.777778 0 0 1 0 227.555556 113.607111 113.607111 0 0 1-111.843555-94.492445A102.172444 102.172444 0 0 1 284.444444 512a113.777778 113.777778 0 0 1 113.777778-113.777778z m227.555556 455.111111H170.666667v-30.549333c0-30.890667 20.252444-62.976 51.086222-83.228444h352.881778c30.833778 20.252444 51.086222 52.337778 51.086222 83.228444V853.333333z m227.555555-227.555555h-258.275555c19.399111-33.507556 30.72-72.248889 30.72-113.777778h176.469333c30.833778 20.252444 51.086222 52.337778 51.086222 83.228444V625.777778z" fill="" p-id="4186"></path></svg>